<svg viewBox="0 0 975 400" xmlns="http://www.w3.org/2000/svg"><g><g><g><g><g><line x1="50" y1="378" x2="45" y2="378" style="visibility: inherit;" fill="rgb(0, 0, 0)" stroke="rgb(204, 204, 204)" stroke-width="1px"></line><line x1="50" y1="343.6363636363636" x2="45" y2="343.6363636363636" style="visibility: inherit;" fill="rgb(0, 0, 0)" stroke="rgb(204, 204, 204)" stroke-width="1px"></line><line x1="50" y1="309.27272727272725" x2="45" y2="309.27272727272725" style="visibility: inherit;" fill="rgb(0, 0, 0)" stroke="rgb(204, 204, 204)" stroke-width="1px"></line><line x1="50" y1="274.9090909090909" x2="45" y2="274.9090909090909" style="visibility: inherit;" fill="rgb(0, 0, 0)" stroke="rgb(204, 204, 204)" stroke-width="1px"></line><line x1="50" y1="240.54545454545453" x2="45" y2="240.54545454545453" style="visibility: inherit;" fill="rgb(0, 0, 0)" stroke="rgb(204, 204, 204)" stroke-width="1px"></line><line x1="50" y1="206.1818181818182" x2="45" y2="206.1818181818182" style="visibility: inherit;" fill="rgb(0, 0, 0)" stroke="rgb(204, 204, 204)" stroke-width="1px"></line><line x1="50" y1="171.81818181818184" x2="45" y2="171.81818181818184" style="visibility: inherit;" fill="rgb(0, 0, 0)" stroke="rgb(204, 204, 204)" stroke-width="1px"></line><line x1="50" y1="137.4545454545455" x2="45" y2="137.4545454545455" style="visibility: inherit;" fill="rgb(0, 0, 0)" stroke="rgb(204, 204, 204)" stroke-width="1px"></line><line x1="50" y1="103.09090909090912" x2="45" y2="103.09090909090912" style="visibility: inherit;" fill="rgb(0, 0, 0)" stroke="rgb(204, 204, 204)" stroke-width="1px"></line><line x1="50" y1="68.72727272727275" x2="45" y2="68.72727272727275" style="visibility: inherit;" fill="rgb(0, 0, 0)" stroke="rgb(204, 204, 204)" stroke-width="1px"></line><line x1="50" y1="34.363636363636374" x2="45" y2="34.363636363636374" style="visibility: inherit;" fill="rgb(0, 0, 0)" stroke="rgb(204, 204, 204)" stroke-width="1px"></line><line x1="50" y1="0" x2="45" y2="0" style="visibility: inherit;" fill="rgb(0, 0, 0)" stroke="rgb(204, 204, 204)" stroke-width="1px"></line></g><g transform="translate(40, 0)"><text x="0" y="378" dx="0em" dy="0.3em" style="text-anchor: end; visibility: hidden; font-family: &quot;Helvetica Neue&quot;, sans-serif; font-size: 12px; font-weight: 200;" fill="rgb(50, 49, 63)" stroke="none" stroke-width="1px">-0.1</text><text x="0" y="343.6363636363636" dx="0em" dy="0.3em" style="text-anchor: end; visibility: inherit; font-family: &quot;Helvetica Neue&quot;, sans-serif; font-size: 12px; font-weight: 200;" fill="rgb(50, 49, 63)" stroke="none" stroke-width="1px">0</text><text x="0" y="309.27272727272725" dx="0em" dy="0.3em" style="text-anchor: end; visibility: inherit; font-family: &quot;Helvetica Neue&quot;, sans-serif; font-size: 12px; font-weight: 200;" fill="rgb(50, 49, 63)" stroke="none" stroke-width="1px">0.1</text><text x="0" y="274.9090909090909" dx="0em" dy="0.3em" style="text-anchor: end; visibility: inherit; font-family: &quot;Helvetica Neue&quot;, sans-serif; font-size: 12px; font-weight: 200;" fill="rgb(50, 49, 63)" stroke="none" stroke-width="1px">0.2</text><text x="0" y="240.54545454545453" dx="0em" dy="0.3em" style="text-anchor: end; visibility: inherit; font-family: &quot;Helvetica Neue&quot;, sans-serif; font-size: 12px; font-weight: 200;" fill="rgb(50, 49, 63)" stroke="none" stroke-width="1px">0.3</text><text x="0" y="206.1818181818182" dx="0em" dy="0.3em" style="text-anchor: end; visibility: inherit; font-family: &quot;Helvetica Neue&quot;, sans-serif; font-size: 12px; font-weight: 200;" fill="rgb(50, 49, 63)" stroke="none" stroke-width="1px">0.4</text><text x="0" y="171.81818181818184" dx="0em" dy="0.3em" style="text-anchor: end; visibility: inherit; font-family: &quot;Helvetica Neue&quot;, sans-serif; font-size: 12px; font-weight: 200;" fill="rgb(50, 49, 63)" stroke="none" stroke-width="1px">0.5</text><text x="0" y="137.4545454545455" dx="0em" dy="0.3em" style="text-anchor: end; visibility: inherit; font-family: &quot;Helvetica Neue&quot;, sans-serif; font-size: 12px; font-weight: 200;" fill="rgb(50, 49, 63)" stroke="none" stroke-width="1px">0.6</text><text x="0" y="103.09090909090912" dx="0em" dy="0.3em" style="text-anchor: end; visibility: inherit; font-family: &quot;Helvetica Neue&quot;, sans-serif; font-size: 12px; font-weight: 200;" fill="rgb(50, 49, 63)" stroke="none" stroke-width="1px">0.7</text><text x="0" y="68.72727272727275" dx="0em" dy="0.3em" style="text-anchor: end; visibility: inherit; font-family: &quot;Helvetica Neue&quot;, sans-serif; font-size: 12px; font-weight: 200;" fill="rgb(50, 49, 63)" stroke="none" stroke-width="1px">0.8</text><text x="0" y="34.363636363636374" dx="0em" dy="0.3em" style="text-anchor: end; visibility: inherit; font-family: &quot;Helvetica Neue&quot;, sans-serif; font-size: 12px; font-weight: 200;" fill="rgb(50, 49, 63)" stroke="none" stroke-width="1px">0.9</text><text x="0" y="0" dx="0em" dy="0.3em" style="text-anchor: end; visibility: hidden; font-family: &quot;Helvetica Neue&quot;, sans-serif; font-size: 12px; font-weight: 200;" fill="rgb(50, 49, 63)" stroke="none" stroke-width="1px">1</text></g><line x1="50" y1="0" x2="50" y2="378" fill="rgb(0, 0, 0)" stroke="rgb(204, 204, 204)" stroke-width="1px"></line></g></g><g transform="translate(50, 0)" clip-path="url(#clip_0)"><clipPath id="clip_0"><rect width="925" height="378"></rect></clipPath><g><g><g><line x1="0" y1="0" x2="0" y2="378" fill="rgb(0, 0, 0)" stroke="rgb(60, 60, 60)" stroke-width="1px" opacity="0.25"></line><line x1="77.08333333333333" y1="0" x2="77.08333333333333" y2="378" fill="rgb(0, 0, 0)" stroke="rgb(60, 60, 60)" stroke-width="1px" opacity="0.25"></line><line x1="154.16666666666666" y1="0" x2="154.16666666666666" y2="378" fill="rgb(0, 0, 0)" stroke="rgb(60, 60, 60)" stroke-width="1px" opacity="0.25"></line><line x1="231.25" y1="0" x2="231.25" y2="378" fill="rgb(0, 0, 0)" stroke="rgb(60, 60, 60)" stroke-width="1px" opacity="0.25"></line><line x1="308.3333333333333" y1="0" x2="308.3333333333333" y2="378" fill="rgb(0, 0, 0)" stroke="rgb(60, 60, 60)" stroke-width="1px" opacity="0.25"></line><line x1="385.4166666666667" y1="0" x2="385.4166666666667" y2="378" fill="rgb(0, 0, 0)" stroke="rgb(60, 60, 60)" stroke-width="1px" opacity="0.25"></line><line x1="462.5" y1="0" x2="462.5" y2="378" fill="rgb(0, 0, 0)" stroke="rgb(60, 60, 60)" stroke-width="1px" opacity="0.25"></line><line x1="539.5833333333334" y1="0" x2="539.5833333333334" y2="378" fill="rgb(0, 0, 0)" stroke="rgb(60, 60, 60)" stroke-width="1px" opacity="0.25"></line><line x1="616.6666666666666" y1="0" x2="616.6666666666666" y2="378" fill="rgb(0, 0, 0)" stroke="rgb(60, 60, 60)" stroke-width="1px" opacity="0.25"></line><line x1="693.75" y1="0" x2="693.75" y2="378" fill="rgb(0, 0, 0)" stroke="rgb(60, 60, 60)" stroke-width="1px" opacity="0.25"></line><line x1="770.8333333333334" y1="0" x2="770.8333333333334" y2="378" fill="rgb(0, 0, 0)" stroke="rgb(60, 60, 60)" stroke-width="1px" opacity="0.25"></line><line x1="847.9166666666666" y1="0" x2="847.9166666666666" y2="378" fill="rgb(0, 0, 0)" stroke="rgb(60, 60, 60)" stroke-width="1px" opacity="0.25"></line><line x1="925" y1="0" x2="925" y2="378" fill="rgb(0, 0, 0)" stroke="rgb(60, 60, 60)" stroke-width="1px" opacity="0.25"></line></g><g><line x1="0" y1="378" x2="925" y2="378" fill="rgb(0, 0, 0)" stroke="rgb(60, 60, 60)" stroke-width="1px" opacity="0.25"></line><line x1="0" y1="343.6363636363636" x2="925" y2="343.6363636363636" fill="rgb(0, 0, 0)" stroke="rgb(60, 60, 60)" stroke-width="1px" opacity="0.25"></line><line x1="0" y1="309.27272727272725" x2="925" y2="309.27272727272725" fill="rgb(0, 0, 0)" stroke="rgb(60, 60, 60)" stroke-width="1px" opacity="0.25"></line><line x1="0" y1="274.9090909090909" x2="925" y2="274.9090909090909" fill="rgb(0, 0, 0)" stroke="rgb(60, 60, 60)" stroke-width="1px" opacity="0.25"></line><line x1="0" y1="240.54545454545453" x2="925" y2="240.54545454545453" fill="rgb(0, 0, 0)" stroke="rgb(60, 60, 60)" stroke-width="1px" opacity="0.25"></line><line x1="0" y1="206.1818181818182" x2="925" y2="206.1818181818182" fill="rgb(0, 0, 0)" stroke="rgb(60, 60, 60)" stroke-width="1px" opacity="0.25"></line><line x1="0" y1="171.81818181818184" x2="925" y2="171.81818181818184" fill="rgb(0, 0, 0)" stroke="rgb(60, 60, 60)" stroke-width="1px" opacity="0.25"></line><line x1="0" y1="137.4545454545455" x2="925" y2="137.4545454545455" fill="rgb(0, 0, 0)" stroke="rgb(60, 60, 60)" stroke-width="1px" opacity="0.25"></line><line x1="0" y1="103.09090909090912" x2="925" y2="103.09090909090912" fill="rgb(0, 0, 0)" stroke="rgb(60, 60, 60)" stroke-width="1px" opacity="0.25"></line><line x1="0" y1="68.72727272727275" x2="925" y2="68.72727272727275" fill="rgb(0, 0, 0)" stroke="rgb(60, 60, 60)" stroke-width="1px" opacity="0.25"></line><line x1="0" y1="34.363636363636374" x2="925" y2="34.363636363636374" fill="rgb(0, 0, 0)" stroke="rgb(60, 60, 60)" stroke-width="1px" opacity="0.25"></line><line x1="0" y1="0" x2="925" y2="0" fill="rgb(0, 0, 0)" stroke="rgb(60, 60, 60)" stroke-width="1px" opacity="0.25"></line></g></g></g><g><g><line x1="0" y1="343.6363636363636" x2="925" y2="343.6363636363636" fill="rgb(0, 0, 0)" stroke="rgb(153, 153, 153)" stroke-width="1.5px"></line></g></g><g><g><line x1="77.08333333333333" y1="0" x2="77.08333333333333" y2="378" fill="rgb(0, 0, 0)" stroke="rgb(153, 153, 153)" stroke-width="1.5px"></line></g></g><g><g><g><g><g><path stroke="rgb(204, 51, 17)" stroke-width="2px" d="M77.08333333333333,209.2745445533232L92.5,183.8836380568417L107.91666666666667,150.06769336460243L123.33333333333333,142.06988796426555L138.75,130.57674694884517L154.16666666666666,120.14593139668335L169.58333333333331,122.00428846664386L185,110.27438931403759L200.41666666666669,106.07475572175451L215.83333333333334,100.09358128891836L231.25,94.20822591187755L246.66666666666666,91.68793367579656L262.0833333333333,88.71952112496672L277.5,86.04679763182577L292.91666666666663,82.95520913994397L308.3333333333333,81.79515262615735L323.75,80.31664783905012L339.16666666666663,78.58614368998559L354.58333333333337,80.28134684611126L370,78.49981078676666L385.4166666666667,75.27849963649459L400.83333333333337,74.99708507012105L416.25,74.3578943501658L431.6666666666667,72.12157398631462L447.0833333333333,70.75026016623775L462.5,70.68911308937095L477.91666666666674,69.46906946556243L493.3333333333333,69.25156219046335L508.75000000000006,68.38937084231367L524.1666666666666,68.11297219914627L539.5833333333334,67.066434160867L555,66.57348565319023L570.4166666666667,65.62909952921865L585.8333333333333,65.14885534115473L601.25,64.48972648097816L616.6666666666666,64.1687698710299L632.0833333333334,63.49956848455861L647.5,62.68930317644549L662.9166666666666,63.62214161366046L678.3333333333333,62.993629681819414L693.75,62.6970554028627L709.1666666666667,63.903200655942214L724.5833333333334,63.424711155039745L740,62.90446692158906L755.4166666666666,62.35082296924173L770.8333333333334,62.595212509530086L786.25,62.30961475655903L801.6666666666667,61.53131195916126L817.0833333333333,62.35197225061199L832.5,61.70265881960688" style="fill: none;" fill="none"></path></g><g><path stroke="rgb(187, 187, 187)" stroke-width="2px" d="M77.08333333333333,286.93636138330805L92.5,265.3636359084736L107.91666666666667,252.23472264679992L123.33333333333333,224.99334702734936L138.75,202.01925486711787L154.16666666666666,190.01415714954658L169.58333333333331,181.49580593488275L185,180.49140757269944L200.41666666666669,165.15172435347142L215.83333333333334,153.17136052938167L231.25,152.51447933452394L246.66666666666666,148.099458502971L262.0833333333333,140.6831218480992L277.5,135.5505842361525L292.91666666666663,132.02741805633255L308.3333333333333,125.6481955068767L323.75,130.94659190986448L339.16666666666663,129.61251283657364L354.58333333333337,127.92643762138835L370,120.05071304054013L385.4166666666667,121.41350481691154L400.83333333333337,117.58326745541791L416.25,114.73671993897051L431.6666666666667,119.23278910192857L447.0833333333333,114.7503885205079L462.5,112.34248963816543L477.91666666666674,107.59414840376996L493.3333333333333,104.35049726670758L508.75000000000006,102.79034848174473L524.1666666666666,101.19903768381386L539.5833333333334,98.34440449723132L555,96.7495335246129L570.4166666666667,95.06146797101803L585.8333333333333,95.63674060441127L601.25,94.99676881773479L616.6666666666666,92.0098989613162L632.0833333333334,92.78302789424191L647.5,91.75166232688304L662.9166666666666,88.72700843465333L678.3333333333333,87.33851142254593L693.75,87.05259691620967L709.1666666666667,87.30501009589017L724.5833333333334,86.47595053960407L740,88.08084617192685L755.4166666666666,89.08981369412567L770.8333333333334,90.03442945598823L786.25,87.28492166178455L801.6666666666667,85.63517457697964L817.0833333333333,84.17793082938147L832.5,83.01214519075148" style="fill: none;" fill="none"></path></g><g><path stroke="rgb(255, 112, 67)" stroke-width="2px" d="M77.08333333333333,297.93272682211614L92.5,275.97818239168686L107.91666666666667,257.5132032353903L123.33333333333333,239.3096661752714L138.75,219.02802997941268L154.16666666666666,198.0348150438772L169.58333333333331,172.61560039693745L185,165.73480345698684L200.41666666666669,154.28025782458226L215.83333333333334,154.2060582760004L231.25,144.82681192303812L246.66666666666666,137.93005402146784L262.0833333333333,131.06595693850497L277.5,124.7822242794918L292.91666666666663,117.50764454497164L308.3333333333333,116.09658139257965L323.75,112.38086924455456L339.16666666666663,106.98938930935327L354.58333333333337,104.66418331917515L370,103.16386684150257L385.4166666666667,100.4438221304224L400.83333333333337,96.96136055915889L416.25,96.12048713221236L431.6666666666667,94.27567928899936L447.0833333333333,90.94030714160317L462.5,89.72420519234907L477.91666666666674,89.44159192691598L493.3333333333333,89.62890937997548L508.75000000000006,88.53962406249349L524.1666666666666,87.80642651707745L539.5833333333334,85.43151757195767L555,83.73878045091556L570.4166666666667,83.00401184761608L585.8333333333333,83.24151205090197L601.25,81.91885423694634L616.6666666666666,82.78590933473242L632.0833333333334,82.92949001711474L647.5,81.05083727881157L662.9166666666666,82.64129794942119L678.3333333333333,81.43905968463679L693.75,81.37087695922992L709.1666666666667,81.38506562426454L724.5833333333334,80.43416891471077L740,78.91743522317819L755.4166666666666,79.3536036383079L770.8333333333334,78.46539705522059L786.25,77.2737407080013L801.6666666666667,77.21389874974744L817.0833333333333,77.85331409351858L832.5,77.05900177192973" style="fill: none;" fill="none"></path></g></g></g></g><g opacity="0.2"><g><g><g><path stroke="rgb(204, 51, 17)" stroke-width="2px" d="M77.08333333333333,209.27454455332324L92.5,163.5709128596566L107.91666666666667,101.37273300777787L123.33333333333333,126.45817182280803L138.75,103.43454512682831L154.16666666666666,92.09454774856573L169.58333333333331,127.48908812349495L185,73.1945452906869L200.41666666666669,92.09454774856573L215.83333333333334,79.38000213016164L231.25,73.1945452906869L246.66666666666666,82.47273054989904L262.0833333333333,77.6618219505657L277.5,75.94364177096975L292.91666666666663,71.1327331716364L308.3333333333333,77.3181900111112L323.75,74.5690935308283L339.16666666666663,71.81999705054545L354.58333333333337,86.94000720977789L370,71.47636511109096L385.4166666666667,62.541811791333316L400.83333333333337,73.8818091695959L416.25,71.81999705054545L431.6666666666667,63.22909615256572L447.0833333333333,65.29090827161616L462.5,70.445448810404L477.91666666666674,64.60364439270717L493.3333333333333,68.38363669135356L508.75000000000006,64.94727633216166L524.1666666666666,67.00908845121211L539.5833333333334,62.88546421311122L555,64.60364439270717L570.4166666666667,61.854547912424266L585.8333333333333,63.22909615256572L601.25,61.854547912424266L616.6666666666666,62.88546421311122L632.0833333333334,60.82363161173737L647.5,59.44908337159592L662.9166666666666,67.35272039066666L678.3333333333333,60.47999967228287L693.75,61.51091597296977L709.1666666666667,68.72726863080806L724.5833333333334,61.51091597296977L740,60.82363161173737L755.4166666666666,60.13636773282832L770.8333333333334,63.57272809202021L786.25,61.167263551191866L801.6666666666667,58.41818755323237L817.0833333333333,65.63454021107071L832.5,59.10545143214142" style="fill: none;" fill="none"></path></g><g><path stroke="rgb(187, 187, 187)" stroke-width="2px" d="M77.08333333333333,286.93636138330805L92.5,248.1054555286061L107.91666666666667,233.3290875499899L123.33333333333333,171.81818181818184L138.75,147.7636388215152L154.16666666666666,157.72908795963636L169.58333333333331,156.35453971949494L185,177.31636453758588L200.41666666666669,114.0872786261819L215.83333333333334,111.68181408535355L231.25,150.16908288002017L246.66666666666666,131.95636478337374L262.0833333333333,113.05636232549494L277.5,116.14909074523234L292.91666666666663,118.55455528606069L308.3333333333333,101.02910106832331L323.75,151.54363112016162L339.16666666666663,124.39635970375755L354.58333333333337,121.30363128402018L370,89.00181932882833L385.4166666666667,126.8018242445859L400.83333333333337,102.40362882614141L416.25,103.43454512682831L431.6666666666667,137.11090532216159L447.0833333333333,96.90545634789902L462.5,102.74728124791926L477.91666666666674,88.65818738937384L493.3333333333333,91.40726338733327L508.75000000000006,96.56182440844452L524.1666666666666,94.84364422884858L539.5833333333334,86.94000720977789L555,90.37636756896978L570.4166666666667,88.31455544991928L585.8333333333333,97.93637264858597L601.25,92.43817968802023L616.6666666666666,80.06726600907069L632.0833333333334,95.87454004721212L647.5,87.62727108868688L662.9166666666666,76.6309056498788L678.3333333333333,81.78544618866664L693.75,85.90909090909093L709.1666666666667,88.31455544991928L724.5833333333334,83.15999442880803L740,94.49999180707067L755.4166666666666,93.12546404925263L770.8333333333334,93.81272792816168L786.25,76.28727371042424L801.6666666666667,79.03637019070715L817.0833333333333,78.34908582947475L832.5,78.34908582947475" style="fill: none;" fill="none"></path></g><g><path stroke="rgb(255, 112, 67)" stroke-width="2px" d="M77.08333333333333,297.93272682211614L92.5,258.41454684734344L107.91666666666667,230.92363325032323L123.33333333333333,203.7763618339192L138.75,171.1309179392728L154.16666666666666,141.57818198204043L169.58333333333331,97.59272022680807L185,143.98364652286878L200.41666666666669,116.14909074523234L215.83333333333334,153.94909566098997L231.25,111.338182145899L246.66666666666666,112.71273038604045L262.0833333333333,105.49635724587876L277.5,101.02910106832331L292.91666666666663,89.68908320773733L308.3333333333333,110.65091826699L323.75,97.93637264858597L339.16666666666663,85.90909090909093L354.58333333333337,95.53090810775763L370,97.24908828735357L385.4166666666667,89.68908320773733L400.83333333333337,83.15999442880803L416.25,92.78181162747472L431.6666666666667,86.94000720977789L447.0833333333333,77.6618219505657L462.5,84.87817460840398L477.91666666666674,88.31455544991928L493.3333333333333,90.37636756896978L508.75000000000006,84.19091072949499L524.1666666666666,84.87817460840398L539.5833333333334,75.94364177096975L555,76.9745375893333L570.4166666666667,80.06726600907069L585.8333333333333,84.19091072949499L601.25,76.6309056498788L616.6666666666666,86.25272284854543L632.0833333333334,83.50362636826259L647.5,73.5381772301414L662.9166666666666,89.00181932882833L678.3333333333333,76.6309056498788L693.75,81.09818230975759L709.1666666666667,81.44181424921209L724.5833333333334,76.6309056498788L740,72.85091335123235L755.4166666666666,81.09818230975759L770.8333333333334,74.91272547028285L786.25,72.50728141177785L801.6666666666667,76.9745375893333L817.0833333333333,80.4109184308486L832.5,73.8818091695959" style="fill: none;" fill="none"></path></g></g></g></g></g></g><g transform="translate(50, 378)" clip-path="url(#clip_1)"><clipPath id="clip_1"><rect width="925" height="22"></rect></clipPath><g><g><line x1="0" y1="0" x2="0" y2="5" style="visibility: inherit;" fill="rgb(0, 0, 0)" stroke="rgb(204, 204, 204)" stroke-width="1px"></line><line x1="77.08333333333333" y1="0" x2="77.08333333333333" y2="5" style="visibility: inherit;" fill="rgb(0, 0, 0)" stroke="rgb(204, 204, 204)" stroke-width="1px"></line><line x1="154.16666666666666" y1="0" x2="154.16666666666666" y2="5" style="visibility: inherit;" fill="rgb(0, 0, 0)" stroke="rgb(204, 204, 204)" stroke-width="1px"></line><line x1="231.25" y1="0" x2="231.25" y2="5" style="visibility: inherit;" fill="rgb(0, 0, 0)" stroke="rgb(204, 204, 204)" stroke-width="1px"></line><line x1="308.3333333333333" y1="0" x2="308.3333333333333" y2="5" style="visibility: inherit;" fill="rgb(0, 0, 0)" stroke="rgb(204, 204, 204)" stroke-width="1px"></line><line x1="385.4166666666667" y1="0" x2="385.4166666666667" y2="5" style="visibility: inherit;" fill="rgb(0, 0, 0)" stroke="rgb(204, 204, 204)" stroke-width="1px"></line><line x1="462.5" y1="0" x2="462.5" y2="5" style="visibility: inherit;" fill="rgb(0, 0, 0)" stroke="rgb(204, 204, 204)" stroke-width="1px"></line><line x1="539.5833333333334" y1="0" x2="539.5833333333334" y2="5" style="visibility: inherit;" fill="rgb(0, 0, 0)" stroke="rgb(204, 204, 204)" stroke-width="1px"></line><line x1="616.6666666666666" y1="0" x2="616.6666666666666" y2="5" style="visibility: inherit;" fill="rgb(0, 0, 0)" stroke="rgb(204, 204, 204)" stroke-width="1px"></line><line x1="693.75" y1="0" x2="693.75" y2="5" style="visibility: inherit;" fill="rgb(0, 0, 0)" stroke="rgb(204, 204, 204)" stroke-width="1px"></line><line x1="770.8333333333334" y1="0" x2="770.8333333333334" y2="5" style="visibility: inherit;" fill="rgb(0, 0, 0)" stroke="rgb(204, 204, 204)" stroke-width="1px"></line><line x1="847.9166666666666" y1="0" x2="847.9166666666666" y2="5" style="visibility: inherit;" fill="rgb(0, 0, 0)" stroke="rgb(204, 204, 204)" stroke-width="1px"></line><line x1="925" y1="0" x2="925" y2="5" style="visibility: inherit;" fill="rgb(0, 0, 0)" stroke="rgb(204, 204, 204)" stroke-width="1px"></line></g><g transform="translate(0, 8)"><text x="0" y="0" dx="0em" dy="0.95em" style="text-anchor: middle; visibility: hidden; font-family: &quot;Helvetica Neue&quot;, sans-serif; font-size: 12px; font-weight: 200;" fill="rgb(50, 49, 63)" stroke="none" stroke-width="1px">-5</text><text x="77.08333333333333" y="0" dx="0em" dy="0.95em" style="text-anchor: middle; visibility: inherit; font-family: &quot;Helvetica Neue&quot;, sans-serif; font-size: 12px; font-weight: 200;" fill="rgb(50, 49, 63)" stroke="none" stroke-width="1px">0</text><text x="154.16666666666666" y="0" dx="0em" dy="0.95em" style="text-anchor: middle; visibility: inherit; font-family: &quot;Helvetica Neue&quot;, sans-serif; font-size: 12px; font-weight: 200;" fill="rgb(50, 49, 63)" stroke="none" stroke-width="1px">5</text><text x="231.25" y="0" dx="0em" dy="0.95em" style="text-anchor: middle; visibility: inherit; font-family: &quot;Helvetica Neue&quot;, sans-serif; font-size: 12px; font-weight: 200;" fill="rgb(50, 49, 63)" stroke="none" stroke-width="1px">10</text><text x="308.3333333333333" y="0" dx="0em" dy="0.95em" style="text-anchor: middle; visibility: inherit; font-family: &quot;Helvetica Neue&quot;, sans-serif; font-size: 12px; font-weight: 200;" fill="rgb(50, 49, 63)" stroke="none" stroke-width="1px">15</text><text x="385.4166666666667" y="0" dx="0em" dy="0.95em" style="text-anchor: middle; visibility: inherit; font-family: &quot;Helvetica Neue&quot;, sans-serif; font-size: 12px; font-weight: 200;" fill="rgb(50, 49, 63)" stroke="none" stroke-width="1px">20</text><text x="462.5" y="0" dx="0em" dy="0.95em" style="text-anchor: middle; visibility: inherit; font-family: &quot;Helvetica Neue&quot;, sans-serif; font-size: 12px; font-weight: 200;" fill="rgb(50, 49, 63)" stroke="none" stroke-width="1px">25</text><text x="539.5833333333334" y="0" dx="0em" dy="0.95em" style="text-anchor: middle; visibility: inherit; font-family: &quot;Helvetica Neue&quot;, sans-serif; font-size: 12px; font-weight: 200;" fill="rgb(50, 49, 63)" stroke="none" stroke-width="1px">30</text><text x="616.6666666666666" y="0" dx="0em" dy="0.95em" style="text-anchor: middle; visibility: inherit; font-family: &quot;Helvetica Neue&quot;, sans-serif; font-size: 12px; font-weight: 200;" fill="rgb(50, 49, 63)" stroke="none" stroke-width="1px">35</text><text x="693.75" y="0" dx="0em" dy="0.95em" style="text-anchor: middle; visibility: inherit; font-family: &quot;Helvetica Neue&quot;, sans-serif; font-size: 12px; font-weight: 200;" fill="rgb(50, 49, 63)" stroke="none" stroke-width="1px">40</text><text x="770.8333333333334" y="0" dx="0em" dy="0.95em" style="text-anchor: middle; visibility: inherit; font-family: &quot;Helvetica Neue&quot;, sans-serif; font-size: 12px; font-weight: 200;" fill="rgb(50, 49, 63)" stroke="none" stroke-width="1px">45</text><text x="847.9166666666666" y="0" dx="0em" dy="0.95em" style="text-anchor: middle; visibility: inherit; font-family: &quot;Helvetica Neue&quot;, sans-serif; font-size: 12px; font-weight: 200;" fill="rgb(50, 49, 63)" stroke="none" stroke-width="1px">50</text><text x="925" y="0" dx="0em" dy="0.95em" style="text-anchor: middle; visibility: hidden; font-family: &quot;Helvetica Neue&quot;, sans-serif; font-size: 12px; font-weight: 200;" fill="rgb(50, 49, 63)" stroke="none" stroke-width="1px">55</text></g><line x1="0" y1="0" x2="925" y2="0" fill="rgb(0, 0, 0)" stroke="rgb(204, 204, 204)" stroke-width="1px"></line></g></g></g></g></svg>