<svg viewBox="0 0 975 400" xmlns="http://www.w3.org/2000/svg"><g><g><g><g><g><line x1="50" y1="378" x2="45" y2="378" style="visibility: inherit;" fill="rgb(0, 0, 0)" stroke="rgb(204, 204, 204)" stroke-width="1px"></line><line x1="50" y1="352.8" x2="45" y2="352.8" style="visibility: inherit;" fill="rgb(0, 0, 0)" stroke="rgb(204, 204, 204)" stroke-width="1px"></line><line x1="50" y1="327.6" x2="45" y2="327.6" style="visibility: inherit;" fill="rgb(0, 0, 0)" stroke="rgb(204, 204, 204)" stroke-width="1px"></line><line x1="50" y1="302.4" x2="45" y2="302.4" style="visibility: inherit;" fill="rgb(0, 0, 0)" stroke="rgb(204, 204, 204)" stroke-width="1px"></line><line x1="50" y1="277.2" x2="45" y2="277.2" style="visibility: inherit;" fill="rgb(0, 0, 0)" stroke="rgb(204, 204, 204)" stroke-width="1px"></line><line x1="50" y1="252" x2="45" y2="252" style="visibility: inherit;" fill="rgb(0, 0, 0)" stroke="rgb(204, 204, 204)" stroke-width="1px"></line><line x1="50" y1="226.79999999999998" x2="45" y2="226.79999999999998" style="visibility: inherit;" fill="rgb(0, 0, 0)" stroke="rgb(204, 204, 204)" stroke-width="1px"></line><line x1="50" y1="201.60000000000002" x2="45" y2="201.60000000000002" style="visibility: inherit;" fill="rgb(0, 0, 0)" stroke="rgb(204, 204, 204)" stroke-width="1px"></line><line x1="50" y1="176.4" x2="45" y2="176.4" style="visibility: inherit;" fill="rgb(0, 0, 0)" stroke="rgb(204, 204, 204)" stroke-width="1px"></line><line x1="50" y1="151.20000000000002" x2="45" y2="151.20000000000002" style="visibility: inherit;" fill="rgb(0, 0, 0)" stroke="rgb(204, 204, 204)" stroke-width="1px"></line><line x1="50" y1="126" x2="45" y2="126" style="visibility: inherit;" fill="rgb(0, 0, 0)" stroke="rgb(204, 204, 204)" stroke-width="1px"></line><line x1="50" y1="100.79999999999995" x2="45" y2="100.79999999999995" style="visibility: inherit;" fill="rgb(0, 0, 0)" stroke="rgb(204, 204, 204)" stroke-width="1px"></line><line x1="50" y1="75.60000000000002" x2="45" y2="75.60000000000002" style="visibility: inherit;" fill="rgb(0, 0, 0)" stroke="rgb(204, 204, 204)" stroke-width="1px"></line><line x1="50" y1="50.39999999999998" x2="45" y2="50.39999999999998" style="visibility: inherit;" fill="rgb(0, 0, 0)" stroke="rgb(204, 204, 204)" stroke-width="1px"></line><line x1="50" y1="25.200000000000045" x2="45" y2="25.200000000000045" style="visibility: inherit;" fill="rgb(0, 0, 0)" stroke="rgb(204, 204, 204)" stroke-width="1px"></line><line x1="50" y1="0" x2="45" y2="0" style="visibility: inherit;" fill="rgb(0, 0, 0)" stroke="rgb(204, 204, 204)" stroke-width="1px"></line></g><g transform="translate(40, 0)"><text x="0" y="378" dx="0em" dy="0.3em" style="text-anchor: end; visibility: hidden; font-family: &quot;Helvetica Neue&quot;, sans-serif; font-size: 12px; font-weight: 200;" fill="rgb(50, 49, 63)" stroke="none" stroke-width="1px">-0.4</text><text x="0" y="352.8" dx="0em" dy="0.3em" style="text-anchor: end; visibility: inherit; font-family: &quot;Helvetica Neue&quot;, sans-serif; font-size: 12px; font-weight: 200;" fill="rgb(50, 49, 63)" stroke="none" stroke-width="1px">-0.2</text><text x="0" y="327.6" dx="0em" dy="0.3em" style="text-anchor: end; visibility: inherit; font-family: &quot;Helvetica Neue&quot;, sans-serif; font-size: 12px; font-weight: 200;" fill="rgb(50, 49, 63)" stroke="none" stroke-width="1px">0</text><text x="0" y="302.4" dx="0em" dy="0.3em" style="text-anchor: end; visibility: inherit; font-family: &quot;Helvetica Neue&quot;, sans-serif; font-size: 12px; font-weight: 200;" fill="rgb(50, 49, 63)" stroke="none" stroke-width="1px">0.2</text><text x="0" y="277.2" dx="0em" dy="0.3em" style="text-anchor: end; visibility: inherit; font-family: &quot;Helvetica Neue&quot;, sans-serif; font-size: 12px; font-weight: 200;" fill="rgb(50, 49, 63)" stroke="none" stroke-width="1px">0.4</text><text x="0" y="252" dx="0em" dy="0.3em" style="text-anchor: end; visibility: inherit; font-family: &quot;Helvetica Neue&quot;, sans-serif; font-size: 12px; font-weight: 200;" fill="rgb(50, 49, 63)" stroke="none" stroke-width="1px">0.6</text><text x="0" y="226.79999999999998" dx="0em" dy="0.3em" style="text-anchor: end; visibility: inherit; font-family: &quot;Helvetica Neue&quot;, sans-serif; font-size: 12px; font-weight: 200;" fill="rgb(50, 49, 63)" stroke="none" stroke-width="1px">0.8</text><text x="0" y="201.60000000000002" dx="0em" dy="0.3em" style="text-anchor: end; visibility: inherit; font-family: &quot;Helvetica Neue&quot;, sans-serif; font-size: 12px; font-weight: 200;" fill="rgb(50, 49, 63)" stroke="none" stroke-width="1px">1</text><text x="0" y="176.4" dx="0em" dy="0.3em" style="text-anchor: end; visibility: inherit; font-family: &quot;Helvetica Neue&quot;, sans-serif; font-size: 12px; font-weight: 200;" fill="rgb(50, 49, 63)" stroke="none" stroke-width="1px">1.2</text><text x="0" y="151.20000000000002" dx="0em" dy="0.3em" style="text-anchor: end; visibility: inherit; font-family: &quot;Helvetica Neue&quot;, sans-serif; font-size: 12px; font-weight: 200;" fill="rgb(50, 49, 63)" stroke="none" stroke-width="1px">1.4</text><text x="0" y="126" dx="0em" dy="0.3em" style="text-anchor: end; visibility: inherit; font-family: &quot;Helvetica Neue&quot;, sans-serif; font-size: 12px; font-weight: 200;" fill="rgb(50, 49, 63)" stroke="none" stroke-width="1px">1.6</text><text x="0" y="100.79999999999995" dx="0em" dy="0.3em" style="text-anchor: end; visibility: inherit; font-family: &quot;Helvetica Neue&quot;, sans-serif; font-size: 12px; font-weight: 200;" fill="rgb(50, 49, 63)" stroke="none" stroke-width="1px">1.8</text><text x="0" y="75.60000000000002" dx="0em" dy="0.3em" style="text-anchor: end; visibility: inherit; font-family: &quot;Helvetica Neue&quot;, sans-serif; font-size: 12px; font-weight: 200;" fill="rgb(50, 49, 63)" stroke="none" stroke-width="1px">2</text><text x="0" y="50.39999999999998" dx="0em" dy="0.3em" style="text-anchor: end; visibility: inherit; font-family: &quot;Helvetica Neue&quot;, sans-serif; font-size: 12px; font-weight: 200;" fill="rgb(50, 49, 63)" stroke="none" stroke-width="1px">2.2</text><text x="0" y="25.200000000000045" dx="0em" dy="0.3em" style="text-anchor: end; visibility: inherit; font-family: &quot;Helvetica Neue&quot;, sans-serif; font-size: 12px; font-weight: 200;" fill="rgb(50, 49, 63)" stroke="none" stroke-width="1px">2.4</text><text x="0" y="0" dx="0em" dy="0.3em" style="text-anchor: end; visibility: hidden; font-family: &quot;Helvetica Neue&quot;, sans-serif; font-size: 12px; font-weight: 200;" fill="rgb(50, 49, 63)" stroke="none" stroke-width="1px">2.6</text></g><line x1="50" y1="0" x2="50" y2="378" fill="rgb(0, 0, 0)" stroke="rgb(204, 204, 204)" stroke-width="1px"></line></g></g><g transform="translate(50, 0)" clip-path="url(#clip_0)"><clipPath id="clip_0"><rect width="925" height="378"></rect></clipPath><g><g><g><line x1="0" y1="0" x2="0" y2="378" fill="rgb(0, 0, 0)" stroke="rgb(60, 60, 60)" stroke-width="1px" opacity="0.25"></line><line x1="77.08333333333333" y1="0" x2="77.08333333333333" y2="378" fill="rgb(0, 0, 0)" stroke="rgb(60, 60, 60)" stroke-width="1px" opacity="0.25"></line><line x1="154.16666666666666" y1="0" x2="154.16666666666666" y2="378" fill="rgb(0, 0, 0)" stroke="rgb(60, 60, 60)" stroke-width="1px" opacity="0.25"></line><line x1="231.25" y1="0" x2="231.25" y2="378" fill="rgb(0, 0, 0)" stroke="rgb(60, 60, 60)" stroke-width="1px" opacity="0.25"></line><line x1="308.3333333333333" y1="0" x2="308.3333333333333" y2="378" fill="rgb(0, 0, 0)" stroke="rgb(60, 60, 60)" stroke-width="1px" opacity="0.25"></line><line x1="385.4166666666667" y1="0" x2="385.4166666666667" y2="378" fill="rgb(0, 0, 0)" stroke="rgb(60, 60, 60)" stroke-width="1px" opacity="0.25"></line><line x1="462.5" y1="0" x2="462.5" y2="378" fill="rgb(0, 0, 0)" stroke="rgb(60, 60, 60)" stroke-width="1px" opacity="0.25"></line><line x1="539.5833333333334" y1="0" x2="539.5833333333334" y2="378" fill="rgb(0, 0, 0)" stroke="rgb(60, 60, 60)" stroke-width="1px" opacity="0.25"></line><line x1="616.6666666666666" y1="0" x2="616.6666666666666" y2="378" fill="rgb(0, 0, 0)" stroke="rgb(60, 60, 60)" stroke-width="1px" opacity="0.25"></line><line x1="693.75" y1="0" x2="693.75" y2="378" fill="rgb(0, 0, 0)" stroke="rgb(60, 60, 60)" stroke-width="1px" opacity="0.25"></line><line x1="770.8333333333334" y1="0" x2="770.8333333333334" y2="378" fill="rgb(0, 0, 0)" stroke="rgb(60, 60, 60)" stroke-width="1px" opacity="0.25"></line><line x1="847.9166666666666" y1="0" x2="847.9166666666666" y2="378" fill="rgb(0, 0, 0)" stroke="rgb(60, 60, 60)" stroke-width="1px" opacity="0.25"></line><line x1="925" y1="0" x2="925" y2="378" fill="rgb(0, 0, 0)" stroke="rgb(60, 60, 60)" stroke-width="1px" opacity="0.25"></line></g><g><line x1="0" y1="378" x2="925" y2="378" fill="rgb(0, 0, 0)" stroke="rgb(60, 60, 60)" stroke-width="1px" opacity="0.25"></line><line x1="0" y1="352.8" x2="925" y2="352.8" fill="rgb(0, 0, 0)" stroke="rgb(60, 60, 60)" stroke-width="1px" opacity="0.25"></line><line x1="0" y1="327.6" x2="925" y2="327.6" fill="rgb(0, 0, 0)" stroke="rgb(60, 60, 60)" stroke-width="1px" opacity="0.25"></line><line x1="0" y1="302.4" x2="925" y2="302.4" fill="rgb(0, 0, 0)" stroke="rgb(60, 60, 60)" stroke-width="1px" opacity="0.25"></line><line x1="0" y1="277.2" x2="925" y2="277.2" fill="rgb(0, 0, 0)" stroke="rgb(60, 60, 60)" stroke-width="1px" opacity="0.25"></line><line x1="0" y1="252" x2="925" y2="252" fill="rgb(0, 0, 0)" stroke="rgb(60, 60, 60)" stroke-width="1px" opacity="0.25"></line><line x1="0" y1="226.79999999999998" x2="925" y2="226.79999999999998" fill="rgb(0, 0, 0)" stroke="rgb(60, 60, 60)" stroke-width="1px" opacity="0.25"></line><line x1="0" y1="201.60000000000002" x2="925" y2="201.60000000000002" fill="rgb(0, 0, 0)" stroke="rgb(60, 60, 60)" stroke-width="1px" opacity="0.25"></line><line x1="0" y1="176.4" x2="925" y2="176.4" fill="rgb(0, 0, 0)" stroke="rgb(60, 60, 60)" stroke-width="1px" opacity="0.25"></line><line x1="0" y1="151.20000000000002" x2="925" y2="151.20000000000002" fill="rgb(0, 0, 0)" stroke="rgb(60, 60, 60)" stroke-width="1px" opacity="0.25"></line><line x1="0" y1="126" x2="925" y2="126" fill="rgb(0, 0, 0)" stroke="rgb(60, 60, 60)" stroke-width="1px" opacity="0.25"></line><line x1="0" y1="100.79999999999995" x2="925" y2="100.79999999999995" fill="rgb(0, 0, 0)" stroke="rgb(60, 60, 60)" stroke-width="1px" opacity="0.25"></line><line x1="0" y1="75.60000000000002" x2="925" y2="75.60000000000002" fill="rgb(0, 0, 0)" stroke="rgb(60, 60, 60)" stroke-width="1px" opacity="0.25"></line><line x1="0" y1="50.39999999999998" x2="925" y2="50.39999999999998" fill="rgb(0, 0, 0)" stroke="rgb(60, 60, 60)" stroke-width="1px" opacity="0.25"></line><line x1="0" y1="25.200000000000045" x2="925" y2="25.200000000000045" fill="rgb(0, 0, 0)" stroke="rgb(60, 60, 60)" stroke-width="1px" opacity="0.25"></line><line x1="0" y1="0" x2="925" y2="0" fill="rgb(0, 0, 0)" stroke="rgb(60, 60, 60)" stroke-width="1px" opacity="0.25"></line></g></g></g><g><g><line x1="0" y1="327.6" x2="925" y2="327.6" fill="rgb(0, 0, 0)" stroke="rgb(153, 153, 153)" stroke-width="1.5px"></line></g></g><g><g><line x1="77.08333333333333" y1="0" x2="77.08333333333333" y2="378" fill="rgb(0, 0, 0)" stroke="rgb(153, 153, 153)" stroke-width="1.5px"></line></g></g><g><g><g><g><g><path stroke="rgb(204, 51, 17)" stroke-width="2px" d="M77.08333333333333,86.71238551139834L92.5,111.6177369117737L107.91666666666667,134.81027237470033L123.33333333333333,148.71821381057183L138.75,161.5603992435604L154.16666666666666,172.59827410353984L169.58333333333331,177.49126204531072L185,187.4901317078741L200.41666666666669,192.5792362309758L215.83333333333334,199.20892985482615L231.25,205.35804097787033L246.66666666666666,208.824003743194L262.0833333333333,212.6344171647818L277.5,215.49050688822996L292.91666666666663,219.5300744620035L308.3333333333333,221.83475704763518L323.75,223.9951307697914L339.16666666666663,225.7873521260282L354.58333333333337,225.65737228827288L370,228.08824538338402L385.4166666666667,230.7965840889138L400.83333333333337,232.26682467138394L416.25,233.9199805177343L431.6666666666667,236.0717773627993L447.0833333333333,237.33533217169472L462.5,237.79843682866527L477.91666666666674,239.00308781139972L493.3333333333333,240.05924236762277L508.75000000000006,241.410665181907L524.1666666666666,242.26752969432417L539.5833333333334,243.06436908601626L555,243.28508244464442L570.4166666666667,243.83773284604362L585.8333333333333,244.46880016170093L601.25,245.1120347026822L616.6666666666666,245.65798372473256L632.0833333333334,246.2517023079758L647.5,246.8807040966888L662.9166666666666,246.7494368249201L678.3333333333333,247.01022550405378L693.75,246.81710997715965L709.1666666666667,246.1202938709778L724.5833333333334,246.26243863261482L740,246.8607029496773L755.4166666666666,247.3850927684991L770.8333333333334,247.7412773246433L786.25,247.65504027734798L801.6666666666667,248.52362441261533L817.0833333333333,248.53086996003157L832.5,249.23090276327392" style="fill: none;" fill="none"></path></g><g><path stroke="rgb(204, 51, 17)" stroke-width="2px" d="M77.08333333333333,99.23248014450076L92.5,110.5069454669952L107.91666666666667,118.97424431081674L123.33333333333333,127.66366751833658L138.75,135.34752377760174L154.16666666666666,142.19559539497874L169.58333333333331,148.7228776768093L185,154.90365163861927L200.41666666666669,159.79207890729367L215.83333333333334,165.41734203210285L231.25,170.54153365162733L246.66666666666666,174.6988047866682L262.0833333333333,179.4000268589412L277.5,183.30803702281872L292.91666666666663,187.05127245467128L308.3333333333333,190.8017181063673L323.75,193.02097424615766L339.16666666666663,196.7515196594247L354.58333333333337,199.919015886668L370,202.17043804713194L385.4166666666667,204.8497450435839L400.83333333333337,206.91514283989787L416.25,209.2251702805463L431.6666666666667,211.03268748124415L447.0833333333333,213.3429914460808L462.5,214.78326213250432L477.91666666666674,216.17447594655528L493.3333333333333,217.1539216795561L508.75000000000006,218.92697721036131L524.1666666666666,220.04007666107253L539.5833333333334,220.92149407973042L555,222.6436847171056L570.4166666666667,223.91696738073395L585.8333333333333,224.39555000662446L601.25,225.72335517487892L616.6666666666666,227.1192317608563L632.0833333333334,228.26306901208412L647.5,229.71354872077933L662.9166666666666,230.29268695913655L678.3333333333333,231.20041015609655L693.75,232.11278011943978L709.1666666666667,232.2074282256227L724.5833333333334,232.64471324252128L740,233.53413068118235L755.4166666666666,234.58737400929706L770.8333333333334,235.27216667840798L786.25,235.79371335259344L801.6666666666667,236.66788433033398L817.0833333333333,236.96126782135124L832.5,236.78689911753645" style="fill: none;" fill="none"></path></g><g><path stroke="rgb(255, 112, 67)" stroke-width="2px" d="M77.08333333333333,52.69564733505251L92.5,55.022536373138394L107.91666666666667,61.85977481779497L123.33333333333333,70.94102222977608L138.75,77.2339269394763L154.16666666666666,85.68154286843179L169.58333333333331,93.48071716387244L185,100.1075032658423L200.41666666666669,106.84840202989295L215.83333333333334,111.87351279202824L231.25,118.19294965720684L246.66666666666666,123.77923457589662L262.0833333333333,129.44675247467677L277.5,134.64655372181875L292.91666666666663,139.08889845375273L308.3333333333333,143.3793486959062L323.75,147.97038639379247L339.16666666666663,152.82828642243913L354.58333333333337,156.31124560548741L370,160.33876469206157L385.4166666666667,164.1179095621785L400.83333333333337,167.14822824942954L416.25,169.5133155529463L431.6666666666667,172.34848589797033L447.0833333333333,175.50621345210251L462.5,178.28484700453555L477.91666666666674,180.7755013131722L493.3333333333333,182.877167613644L508.75000000000006,185.74524853083668L524.1666666666666,187.54704548353268L539.5833333333334,190.4866195776171L555,192.59821071573336L570.4166666666667,195.25759136788923L585.8333333333333,196.60232694626973L601.25,198.04871851057115L616.6666666666666,199.24504371368812L632.0833333333334,200.8247982366428L647.5,203.0998310679484L662.9166666666666,203.91035788365505L678.3333333333333,205.41457764645057L693.75,206.8785035985583L709.1666666666667,207.5692891327078L724.5833333333334,208.808964394071L740,210.01076507517996L755.4166666666666,210.96448228614764L770.8333333333334,212.07000309958994L786.25,213.51863328898656L801.6666666666667,214.61065973442163L817.0833333333333,215.7029005204529L832.5,216.8430236346584" style="fill: none;" fill="none"></path></g></g></g></g><g opacity="0.2"><g><g><g><path stroke="rgb(204, 51, 17)" stroke-width="2px" d="M77.08333333333333,86.71238551139834L92.5,131.542018032074L107.91666666666667,168.20752344131472L123.33333333333333,175.86651549339297L138.75,191.88850436210635L154.16666666666666,202.2822102069855L169.58333333333331,191.93254408836367L185,219.09795055389407L200.41666666666669,209.52041409015658L215.83333333333334,222.16841468811037L231.25,227.31346235275268L246.66666666666666,221.496959066391L262.0833333333333,226.82867238521575L277.5,226.28680500984194L292.91666666666663,234.97769651412966L308.3333333333333,230.72913215160372L323.75,232.39338920116427L339.16666666666663,232.79480860233306L354.58333333333337,225.14681897163393L370,237.6716074705124L385.4166666666667,241.5050388336182L400.83333333333337,238.09354469776153L416.25,240.48381135463714L431.6666666666667,244.62815687656405L447.0833333333333,242.3656835317612L462.5,239.64385721683504L477.91666666666674,243.807128405571L493.3333333333333,244.27364609241488L508.75000000000006,246.80590031147005L524.1666666666666,245.68968400955202L539.5833333333334,246.24778089523315L555,244.16706154346465L570.4166666666667,246.04658303260803L585.8333333333333,246.99146947860717L601.25,247.68366823196413L616.6666666666666,247.84089395999908L632.0833333333334,248.62580595016482L647.5,249.39605805873873L662.9166666666666,246.22447679042818L678.3333333333333,248.05320689678194L693.75,246.04475054740908L709.1666666666667,243.3333258390427L724.5833333333334,246.83096930980685L740,249.25359735488894L755.4166666666666,249.48253784179687L770.8333333333334,249.1659534931183L786.25,247.31010410785677L801.6666666666667,251.99786410331728L817.0833333333333,248.55985150337222L832.5,252.03098402023315" style="fill: none;" fill="none"></path></g><g><path stroke="rgb(204, 51, 17)" stroke-width="2px" d="M77.08333333333333,99.23248014450076L92.5,119.52651772499087L107.91666666666667,131.16715464591982L123.33333333333333,144.6254216194153L138.75,153.49371871948244L154.16666666666666,160.61197743415835L169.58333333333331,167.9876552581787L185,174.44193849563598L200.41666666666669,176.06521997451782L215.83333333333334,184.89835438728335L231.25,188.83747658729553L246.66666666666666,189.89946184158327L262.0833333333333,196.9126530647278L277.5,198.08069715499877L292.91666666666663,201.36569724082946L308.3333333333333,205.27567241191863L323.75,201.64813277721407L339.16666666666663,211.3376836538315L354.58333333333337,212.36075863838198L370,211.04634103775027L385.4166666666667,215.44341180324557L400.83333333333337,215.1005342960358L416.25,218.3971000671387L431.6666666666667,218.2200774908066L447.0833333333333,222.54056689739227L462.5,220.52258012294772L477.91666666666674,221.72251245975497L493.3333333333333,221.06223199367525L508.75000000000006,226.00548098087313L524.1666666666666,224.4855847120285L539.5833333333334,224.44279918670654L555,229.5256249666214L570.4166666666667,229.00606284141543L585.8333333333333,226.3086671590805L601.25,231.03188273906707L616.6666666666666,232.70047316551208L632.0833333333334,232.83693323135378L647.5,235.5139612913132L662.9166666666666,232.60875878334048L678.3333333333333,234.83069965839388L693.75,235.76177487373354L709.1666666666667,232.5859803915024L724.5833333333334,234.39370450973513L740,237.09155831336977L755.4166666666666,238.8001179456711L770.8333333333334,238.01121804714202L786.25,237.87982735633852L801.6666666666667,240.16447076797488L817.0833333333333,238.13477561473846L832.5,236.08943674564364" style="fill: none;" fill="none"></path></g><g><path stroke="rgb(255, 112, 67)" stroke-width="2px" d="M77.08333333333333,52.69564733505251L92.5,56.8840476036072L107.91666666666667,71.70539817810061L123.33333333333333,88.66761717796328L138.75,92.09525070190432L154.16666666666666,108.39954743385317L169.58333333333331,116.49938735961916L185,121.05569658279421L200.41666666666669,129.2882565021515L215.83333333333334,129.27612004280093L231.25,140.756519651413L246.66666666666666,144.20494136810302L262.0833333333333,150.55894861221316L277.5,154.30231032371523L292.91666666666663,156.07677183151247L308.3333333333333,159.93732247352602L323.75,165.8176322937012L339.16666666666663,171.8223258018494L354.58333333333337,169.99210867881774L370,176.21667037010192L385.4166666666667,179.06020674705505L400.83333333333337,179.15770397186282L416.25,178.90385971069338L431.6666666666667,183.62222371101382L447.0833333333333,188.07747588157653L462.5,189.3573916912079L477.91666666666674,190.7080083847046L493.3333333333333,191.26350674629214L508.75000000000006,197.1953814983368L524.1666666666666,194.74308071136477L539.5833333333334,202.2303598880768L555,201.03621039390563L570.4166666666667,205.88668606281283L585.8333333333333,201.97785995006564L601.25,203.83135113716125L616.6666666666666,204.02840337753295L632.0833333333334,207.14176568984985L647.5,212.19759986400604L662.9166666666666,207.15179178714752L678.3333333333333,211.4304569721222L693.75,212.73342905044558L709.1666666666667,210.33213744163513L724.5833333333334,213.76724359989169L740,214.81764063835146L755.4166666666666,214.7791434288025L770.8333333333334,216.4918937444687L786.25,219.3129521369934L801.6666666666667,218.9786437511444L817.0833333333333,220.07176623344424L832.5,221.40343472957613" style="fill: none;" fill="none"></path></g></g></g></g></g></g><g transform="translate(50, 378)" clip-path="url(#clip_1)"><clipPath id="clip_1"><rect width="925" height="22"></rect></clipPath><g><g><line x1="0" y1="0" x2="0" y2="5" style="visibility: inherit;" fill="rgb(0, 0, 0)" stroke="rgb(204, 204, 204)" stroke-width="1px"></line><line x1="77.08333333333333" y1="0" x2="77.08333333333333" y2="5" style="visibility: inherit;" fill="rgb(0, 0, 0)" stroke="rgb(204, 204, 204)" stroke-width="1px"></line><line x1="154.16666666666666" y1="0" x2="154.16666666666666" y2="5" style="visibility: inherit;" fill="rgb(0, 0, 0)" stroke="rgb(204, 204, 204)" stroke-width="1px"></line><line x1="231.25" y1="0" x2="231.25" y2="5" style="visibility: inherit;" fill="rgb(0, 0, 0)" stroke="rgb(204, 204, 204)" stroke-width="1px"></line><line x1="308.3333333333333" y1="0" x2="308.3333333333333" y2="5" style="visibility: inherit;" fill="rgb(0, 0, 0)" stroke="rgb(204, 204, 204)" stroke-width="1px"></line><line x1="385.4166666666667" y1="0" x2="385.4166666666667" y2="5" style="visibility: inherit;" fill="rgb(0, 0, 0)" stroke="rgb(204, 204, 204)" stroke-width="1px"></line><line x1="462.5" y1="0" x2="462.5" y2="5" style="visibility: inherit;" fill="rgb(0, 0, 0)" stroke="rgb(204, 204, 204)" stroke-width="1px"></line><line x1="539.5833333333334" y1="0" x2="539.5833333333334" y2="5" style="visibility: inherit;" fill="rgb(0, 0, 0)" stroke="rgb(204, 204, 204)" stroke-width="1px"></line><line x1="616.6666666666666" y1="0" x2="616.6666666666666" y2="5" style="visibility: inherit;" fill="rgb(0, 0, 0)" stroke="rgb(204, 204, 204)" stroke-width="1px"></line><line x1="693.75" y1="0" x2="693.75" y2="5" style="visibility: inherit;" fill="rgb(0, 0, 0)" stroke="rgb(204, 204, 204)" stroke-width="1px"></line><line x1="770.8333333333334" y1="0" x2="770.8333333333334" y2="5" style="visibility: inherit;" fill="rgb(0, 0, 0)" stroke="rgb(204, 204, 204)" stroke-width="1px"></line><line x1="847.9166666666666" y1="0" x2="847.9166666666666" y2="5" style="visibility: inherit;" fill="rgb(0, 0, 0)" stroke="rgb(204, 204, 204)" stroke-width="1px"></line><line x1="925" y1="0" x2="925" y2="5" style="visibility: inherit;" fill="rgb(0, 0, 0)" stroke="rgb(204, 204, 204)" stroke-width="1px"></line></g><g transform="translate(0, 8)"><text x="0" y="0" dx="0em" dy="0.95em" style="text-anchor: middle; visibility: hidden; font-family: &quot;Helvetica Neue&quot;, sans-serif; font-size: 12px; font-weight: 200;" fill="rgb(50, 49, 63)" stroke="none" stroke-width="1px">-5</text><text x="77.08333333333333" y="0" dx="0em" dy="0.95em" style="text-anchor: middle; visibility: inherit; font-family: &quot;Helvetica Neue&quot;, sans-serif; font-size: 12px; font-weight: 200;" fill="rgb(50, 49, 63)" stroke="none" stroke-width="1px">0</text><text x="154.16666666666666" y="0" dx="0em" dy="0.95em" style="text-anchor: middle; visibility: inherit; font-family: &quot;Helvetica Neue&quot;, sans-serif; font-size: 12px; font-weight: 200;" fill="rgb(50, 49, 63)" stroke="none" stroke-width="1px">5</text><text x="231.25" y="0" dx="0em" dy="0.95em" style="text-anchor: middle; visibility: inherit; font-family: &quot;Helvetica Neue&quot;, sans-serif; font-size: 12px; font-weight: 200;" fill="rgb(50, 49, 63)" stroke="none" stroke-width="1px">10</text><text x="308.3333333333333" y="0" dx="0em" dy="0.95em" style="text-anchor: middle; visibility: inherit; font-family: &quot;Helvetica Neue&quot;, sans-serif; font-size: 12px; font-weight: 200;" fill="rgb(50, 49, 63)" stroke="none" stroke-width="1px">15</text><text x="385.4166666666667" y="0" dx="0em" dy="0.95em" style="text-anchor: middle; visibility: inherit; font-family: &quot;Helvetica Neue&quot;, sans-serif; font-size: 12px; font-weight: 200;" fill="rgb(50, 49, 63)" stroke="none" stroke-width="1px">20</text><text x="462.5" y="0" dx="0em" dy="0.95em" style="text-anchor: middle; visibility: inherit; font-family: &quot;Helvetica Neue&quot;, sans-serif; font-size: 12px; font-weight: 200;" fill="rgb(50, 49, 63)" stroke="none" stroke-width="1px">25</text><text x="539.5833333333334" y="0" dx="0em" dy="0.95em" style="text-anchor: middle; visibility: inherit; font-family: &quot;Helvetica Neue&quot;, sans-serif; font-size: 12px; font-weight: 200;" fill="rgb(50, 49, 63)" stroke="none" stroke-width="1px">30</text><text x="616.6666666666666" y="0" dx="0em" dy="0.95em" style="text-anchor: middle; visibility: inherit; font-family: &quot;Helvetica Neue&quot;, sans-serif; font-size: 12px; font-weight: 200;" fill="rgb(50, 49, 63)" stroke="none" stroke-width="1px">35</text><text x="693.75" y="0" dx="0em" dy="0.95em" style="text-anchor: middle; visibility: inherit; font-family: &quot;Helvetica Neue&quot;, sans-serif; font-size: 12px; font-weight: 200;" fill="rgb(50, 49, 63)" stroke="none" stroke-width="1px">40</text><text x="770.8333333333334" y="0" dx="0em" dy="0.95em" style="text-anchor: middle; visibility: inherit; font-family: &quot;Helvetica Neue&quot;, sans-serif; font-size: 12px; font-weight: 200;" fill="rgb(50, 49, 63)" stroke="none" stroke-width="1px">45</text><text x="847.9166666666666" y="0" dx="0em" dy="0.95em" style="text-anchor: middle; visibility: inherit; font-family: &quot;Helvetica Neue&quot;, sans-serif; font-size: 12px; font-weight: 200;" fill="rgb(50, 49, 63)" stroke="none" stroke-width="1px">50</text><text x="925" y="0" dx="0em" dy="0.95em" style="text-anchor: middle; visibility: hidden; font-family: &quot;Helvetica Neue&quot;, sans-serif; font-size: 12px; font-weight: 200;" fill="rgb(50, 49, 63)" stroke="none" stroke-width="1px">55</text></g><line x1="0" y1="0" x2="925" y2="0" fill="rgb(0, 0, 0)" stroke="rgb(204, 204, 204)" stroke-width="1px"></line></g></g></g></g></svg>