<svg viewBox="0 0 975 400" xmlns="http://www.w3.org/2000/svg"><g><g><g><g><g><line x1="50" y1="378" x2="45" y2="378" style="visibility: inherit;" fill="rgb(0, 0, 0)" stroke="rgb(204, 204, 204)" stroke-width="1px"></line><line x1="50" y1="343.6363636363636" x2="45" y2="343.6363636363636" style="visibility: inherit;" fill="rgb(0, 0, 0)" stroke="rgb(204, 204, 204)" stroke-width="1px"></line><line x1="50" y1="309.27272727272725" x2="45" y2="309.27272727272725" style="visibility: inherit;" fill="rgb(0, 0, 0)" stroke="rgb(204, 204, 204)" stroke-width="1px"></line><line x1="50" y1="274.9090909090909" x2="45" y2="274.9090909090909" style="visibility: inherit;" fill="rgb(0, 0, 0)" stroke="rgb(204, 204, 204)" stroke-width="1px"></line><line x1="50" y1="240.54545454545453" x2="45" y2="240.54545454545453" style="visibility: inherit;" fill="rgb(0, 0, 0)" stroke="rgb(204, 204, 204)" stroke-width="1px"></line><line x1="50" y1="206.1818181818182" x2="45" y2="206.1818181818182" style="visibility: inherit;" fill="rgb(0, 0, 0)" stroke="rgb(204, 204, 204)" stroke-width="1px"></line><line x1="50" y1="171.81818181818184" x2="45" y2="171.81818181818184" style="visibility: inherit;" fill="rgb(0, 0, 0)" stroke="rgb(204, 204, 204)" stroke-width="1px"></line><line x1="50" y1="137.4545454545455" x2="45" y2="137.4545454545455" style="visibility: inherit;" fill="rgb(0, 0, 0)" stroke="rgb(204, 204, 204)" stroke-width="1px"></line><line x1="50" y1="103.09090909090912" x2="45" y2="103.09090909090912" style="visibility: inherit;" fill="rgb(0, 0, 0)" stroke="rgb(204, 204, 204)" stroke-width="1px"></line><line x1="50" y1="68.72727272727275" x2="45" y2="68.72727272727275" style="visibility: inherit;" fill="rgb(0, 0, 0)" stroke="rgb(204, 204, 204)" stroke-width="1px"></line><line x1="50" y1="34.363636363636374" x2="45" y2="34.363636363636374" style="visibility: inherit;" fill="rgb(0, 0, 0)" stroke="rgb(204, 204, 204)" stroke-width="1px"></line><line x1="50" y1="0" x2="45" y2="0" style="visibility: inherit;" fill="rgb(0, 0, 0)" stroke="rgb(204, 204, 204)" stroke-width="1px"></line></g><g transform="translate(40, 0)"><text x="0" y="378" dx="0em" dy="0.3em" style="text-anchor: end; visibility: hidden; font-family: &quot;Helvetica Neue&quot;, sans-serif; font-size: 12px; font-weight: 200;" fill="rgb(50, 49, 63)" stroke="none" stroke-width="1px">-0.1</text><text x="0" y="343.6363636363636" dx="0em" dy="0.3em" style="text-anchor: end; visibility: inherit; font-family: &quot;Helvetica Neue&quot;, sans-serif; font-size: 12px; font-weight: 200;" fill="rgb(50, 49, 63)" stroke="none" stroke-width="1px">0</text><text x="0" y="309.27272727272725" dx="0em" dy="0.3em" style="text-anchor: end; visibility: inherit; font-family: &quot;Helvetica Neue&quot;, sans-serif; font-size: 12px; font-weight: 200;" fill="rgb(50, 49, 63)" stroke="none" stroke-width="1px">0.1</text><text x="0" y="274.9090909090909" dx="0em" dy="0.3em" style="text-anchor: end; visibility: inherit; font-family: &quot;Helvetica Neue&quot;, sans-serif; font-size: 12px; font-weight: 200;" fill="rgb(50, 49, 63)" stroke="none" stroke-width="1px">0.2</text><text x="0" y="240.54545454545453" dx="0em" dy="0.3em" style="text-anchor: end; visibility: inherit; font-family: &quot;Helvetica Neue&quot;, sans-serif; font-size: 12px; font-weight: 200;" fill="rgb(50, 49, 63)" stroke="none" stroke-width="1px">0.3</text><text x="0" y="206.1818181818182" dx="0em" dy="0.3em" style="text-anchor: end; visibility: inherit; font-family: &quot;Helvetica Neue&quot;, sans-serif; font-size: 12px; font-weight: 200;" fill="rgb(50, 49, 63)" stroke="none" stroke-width="1px">0.4</text><text x="0" y="171.81818181818184" dx="0em" dy="0.3em" style="text-anchor: end; visibility: inherit; font-family: &quot;Helvetica Neue&quot;, sans-serif; font-size: 12px; font-weight: 200;" fill="rgb(50, 49, 63)" stroke="none" stroke-width="1px">0.5</text><text x="0" y="137.4545454545455" dx="0em" dy="0.3em" style="text-anchor: end; visibility: inherit; font-family: &quot;Helvetica Neue&quot;, sans-serif; font-size: 12px; font-weight: 200;" fill="rgb(50, 49, 63)" stroke="none" stroke-width="1px">0.6</text><text x="0" y="103.09090909090912" dx="0em" dy="0.3em" style="text-anchor: end; visibility: inherit; font-family: &quot;Helvetica Neue&quot;, sans-serif; font-size: 12px; font-weight: 200;" fill="rgb(50, 49, 63)" stroke="none" stroke-width="1px">0.7</text><text x="0" y="68.72727272727275" dx="0em" dy="0.3em" style="text-anchor: end; visibility: inherit; font-family: &quot;Helvetica Neue&quot;, sans-serif; font-size: 12px; font-weight: 200;" fill="rgb(50, 49, 63)" stroke="none" stroke-width="1px">0.8</text><text x="0" y="34.363636363636374" dx="0em" dy="0.3em" style="text-anchor: end; visibility: inherit; font-family: &quot;Helvetica Neue&quot;, sans-serif; font-size: 12px; font-weight: 200;" fill="rgb(50, 49, 63)" stroke="none" stroke-width="1px">0.9</text><text x="0" y="0" dx="0em" dy="0.3em" style="text-anchor: end; visibility: hidden; font-family: &quot;Helvetica Neue&quot;, sans-serif; font-size: 12px; font-weight: 200;" fill="rgb(50, 49, 63)" stroke="none" stroke-width="1px">1</text></g><line x1="50" y1="0" x2="50" y2="378" fill="rgb(0, 0, 0)" stroke="rgb(204, 204, 204)" stroke-width="1px"></line></g></g><g transform="translate(50, 0)" clip-path="url(#clip_0)"><clipPath id="clip_0"><rect width="925" height="378"></rect></clipPath><g><g><g><line x1="0" y1="0" x2="0" y2="378" fill="rgb(0, 0, 0)" stroke="rgb(60, 60, 60)" stroke-width="1px" opacity="0.25"></line><line x1="77.08333333333333" y1="0" x2="77.08333333333333" y2="378" fill="rgb(0, 0, 0)" stroke="rgb(60, 60, 60)" stroke-width="1px" opacity="0.25"></line><line x1="154.16666666666666" y1="0" x2="154.16666666666666" y2="378" fill="rgb(0, 0, 0)" stroke="rgb(60, 60, 60)" stroke-width="1px" opacity="0.25"></line><line x1="231.25" y1="0" x2="231.25" y2="378" fill="rgb(0, 0, 0)" stroke="rgb(60, 60, 60)" stroke-width="1px" opacity="0.25"></line><line x1="308.3333333333333" y1="0" x2="308.3333333333333" y2="378" fill="rgb(0, 0, 0)" stroke="rgb(60, 60, 60)" stroke-width="1px" opacity="0.25"></line><line x1="385.4166666666667" y1="0" x2="385.4166666666667" y2="378" fill="rgb(0, 0, 0)" stroke="rgb(60, 60, 60)" stroke-width="1px" opacity="0.25"></line><line x1="462.5" y1="0" x2="462.5" y2="378" fill="rgb(0, 0, 0)" stroke="rgb(60, 60, 60)" stroke-width="1px" opacity="0.25"></line><line x1="539.5833333333334" y1="0" x2="539.5833333333334" y2="378" fill="rgb(0, 0, 0)" stroke="rgb(60, 60, 60)" stroke-width="1px" opacity="0.25"></line><line x1="616.6666666666666" y1="0" x2="616.6666666666666" y2="378" fill="rgb(0, 0, 0)" stroke="rgb(60, 60, 60)" stroke-width="1px" opacity="0.25"></line><line x1="693.75" y1="0" x2="693.75" y2="378" fill="rgb(0, 0, 0)" stroke="rgb(60, 60, 60)" stroke-width="1px" opacity="0.25"></line><line x1="770.8333333333334" y1="0" x2="770.8333333333334" y2="378" fill="rgb(0, 0, 0)" stroke="rgb(60, 60, 60)" stroke-width="1px" opacity="0.25"></line><line x1="847.9166666666666" y1="0" x2="847.9166666666666" y2="378" fill="rgb(0, 0, 0)" stroke="rgb(60, 60, 60)" stroke-width="1px" opacity="0.25"></line><line x1="925" y1="0" x2="925" y2="378" fill="rgb(0, 0, 0)" stroke="rgb(60, 60, 60)" stroke-width="1px" opacity="0.25"></line></g><g><line x1="0" y1="378" x2="925" y2="378" fill="rgb(0, 0, 0)" stroke="rgb(60, 60, 60)" stroke-width="1px" opacity="0.25"></line><line x1="0" y1="343.6363636363636" x2="925" y2="343.6363636363636" fill="rgb(0, 0, 0)" stroke="rgb(60, 60, 60)" stroke-width="1px" opacity="0.25"></line><line x1="0" y1="309.27272727272725" x2="925" y2="309.27272727272725" fill="rgb(0, 0, 0)" stroke="rgb(60, 60, 60)" stroke-width="1px" opacity="0.25"></line><line x1="0" y1="274.9090909090909" x2="925" y2="274.9090909090909" fill="rgb(0, 0, 0)" stroke="rgb(60, 60, 60)" stroke-width="1px" opacity="0.25"></line><line x1="0" y1="240.54545454545453" x2="925" y2="240.54545454545453" fill="rgb(0, 0, 0)" stroke="rgb(60, 60, 60)" stroke-width="1px" opacity="0.25"></line><line x1="0" y1="206.1818181818182" x2="925" y2="206.1818181818182" fill="rgb(0, 0, 0)" stroke="rgb(60, 60, 60)" stroke-width="1px" opacity="0.25"></line><line x1="0" y1="171.81818181818184" x2="925" y2="171.81818181818184" fill="rgb(0, 0, 0)" stroke="rgb(60, 60, 60)" stroke-width="1px" opacity="0.25"></line><line x1="0" y1="137.4545454545455" x2="925" y2="137.4545454545455" fill="rgb(0, 0, 0)" stroke="rgb(60, 60, 60)" stroke-width="1px" opacity="0.25"></line><line x1="0" y1="103.09090909090912" x2="925" y2="103.09090909090912" fill="rgb(0, 0, 0)" stroke="rgb(60, 60, 60)" stroke-width="1px" opacity="0.25"></line><line x1="0" y1="68.72727272727275" x2="925" y2="68.72727272727275" fill="rgb(0, 0, 0)" stroke="rgb(60, 60, 60)" stroke-width="1px" opacity="0.25"></line><line x1="0" y1="34.363636363636374" x2="925" y2="34.363636363636374" fill="rgb(0, 0, 0)" stroke="rgb(60, 60, 60)" stroke-width="1px" opacity="0.25"></line><line x1="0" y1="0" x2="925" y2="0" fill="rgb(0, 0, 0)" stroke="rgb(60, 60, 60)" stroke-width="1px" opacity="0.25"></line></g></g></g><g><g><line x1="0" y1="343.6363636363636" x2="925" y2="343.6363636363636" fill="rgb(0, 0, 0)" stroke="rgb(153, 153, 153)" stroke-width="1.5px"></line></g></g><g><g><line x1="77.08333333333333" y1="0" x2="77.08333333333333" y2="378" fill="rgb(0, 0, 0)" stroke="rgb(153, 153, 153)" stroke-width="1.5px"></line></g></g><g><g><g><g><g><path stroke="rgb(187, 187, 187)" stroke-width="2px" d="M77.08333333333333,86.25272284854543L92.5,79.1652244871313L107.91666666666667,73.83973680533376L123.33333333333333,71.17441876607148L138.75,68.02640578264135L154.16666666666666,66.44610997684106L169.58333333333331,64.83941348368722L185,64.04448197871017L200.41666666666669,63.853859387509374L215.83333333333334,64.2938868431279L231.25,63.31459844135503L246.66666666666666,63.55582818204135L262.0833333333333,63.28733191971668L277.5,62.85132942286947L292.91666666666663,62.17738619621275L308.3333333333333,62.32319756925193L323.75,62.27318201634034L339.16666666666663,62.105711366462L354.58333333333337,61.73030936486737L370,60.26795439841703L385.4166666666667,59.94039880211767L400.83333333333337,59.60641545818146L416.25,59.54348212654372L431.6666666666667,60.192997774055755L447.0833333333333,59.89543116708137L462.5,59.44198572382851L477.91666666666674,59.032466036450614L493.3333333333333,59.47402698616179L508.75000000000006,58.226957712949684L524.1666666666666,58.303449665973176L539.5833333333334,57.112253294976426L555,56.397535573501955L570.4166666666667,56.381063324058005L585.8333333333333,56.92099928670456L601.25,57.51987460361079L616.6666666666666,56.22974188198276L632.0833333333334,55.86802878034911L647.5,55.78845369709376L662.9166666666666,56.840347241892744L678.3333333333333,57.334030591306714L693.75,57.63024060053283L709.1666666666667,57.12068634081788L724.5833333333334,55.302956865250735L740,55.31195777254993L755.4166666666666,54.90499179661094L770.8333333333334,55.62299802746594L786.25,54.95416317379596L801.6666666666667,56.88959222167057L817.0833333333333,56.40139176217559L832.5,55.00883289436075" style="fill: none;" fill="none"></path></g><g><path stroke="rgb(0, 153, 136)" stroke-width="2px" d="M77.08333333333333,153.26181129975757L92.5,135.8652267401869L107.91666666666667,116.68909298909182L123.33333333333333,100.9646617210804L138.75,92.94421967945073L154.16666666666666,88.26226920164453L169.58333333333331,83.61714274473593L185,82.03313401054726L200.41666666666669,77.76743806378482L215.83333333333334,75.09741147717438L231.25,75.43713610564322L246.66666666666666,74.12487675641421L262.0833333333333,71.82537742467377L277.5,70.17248030076752L292.91666666666663,70.83179700149151L308.3333333333333,70.53972255186233L323.75,72.56418013676455L339.16666666666663,70.34191776967384L354.58333333333337,69.42109645142L370,68.18134237239985L385.4166666666667,67.30005495089137L400.83333333333337,67.18366681909924L416.25,66.8389271978678L431.6666666666667,68.28154267854455L447.0833333333333,66.5354646555665L462.5,65.07546198808666L477.91666666666674,64.474367814446L493.3333333333333,64.80098419788732L508.75000000000006,64.17222874808965L524.1666666666666,64.3447950440866L539.5833333333334,67.1974234492734L555,66.02245076442364L570.4166666666667,65.18001443101605L585.8333333333333,64.5370998769975L601.25,64.56371768373896L616.6666666666666,64.02986906576331L632.0833333333334,64.1219182283993L647.5,63.764789396739786L662.9166666666666,63.825417650768884L678.3333333333333,63.4494362752032L693.75,63.49875300196959L709.1666666666667,64.07816233432527L724.5833333333334,64.28835515773869L740,64.96428195497043L755.4166666666666,65.7822045535521L770.8333333333334,65.998052561066L786.25,64.61555625312121L801.6666666666667,63.64860569260253L817.0833333333333,63.61825465236922L832.5,63.60004402822949" style="fill: none;" fill="none"></path></g><g><path stroke="rgb(255, 112, 67)" stroke-width="2px" d="M77.08333333333333,297.93272682211614L92.5,273.23386433788323L107.91666666666667,251.6470117421893L123.33333333333333,229.64763218875638L138.75,204.26737791677357L154.16666666666666,177.96451308110744L169.58333333333331,144.8899189820154L185,144.5212172246477L200.41666666666669,133.05683204420617L215.83333333333334,141.464575902912L231.25,129.37014014323088L246.66666666666666,122.6926407776871L262.0833333333333,115.80513180023507L277.5,109.89008422988599L292.91666666666663,101.80588275087882L308.3333333333333,105.34489535167432L323.75,102.38098457935632L339.16666666666663,95.79155788936106L354.58333333333337,95.68729162315316L370,96.31203313037264L385.4166666666667,93.66279504511346L400.83333333333337,89.46161950200297L416.25,90.78970684049881L431.6666666666667,89.24981969163792L447.0833333333333,84.61460741716701L462.5,84.72003447350113L477.91666666666674,86.15784433565295L493.3333333333333,87.84525466520864L508.75000000000006,86.38351655233623L524.1666666666666,85.7813796416466L539.5833333333334,81.84628397140762L555,79.8975852634876L570.4166666666667,79.96545756496187L585.8333333333333,81.65563887920081L601.25,79.64574555292057L616.6666666666666,82.28853649842938L632.0833333333334,82.77457244937057L647.5,79.08001434796029L662.9166666666666,83.04873634914952L678.3333333333333,80.4816040660096L693.75,80.72823536370663L709.1666666666667,81.01366691804617L724.5833333333334,79.260562410273L740,76.6967027862126L755.4166666666666,78.45729459581361L770.8333333333334,77.03946694551291L786.25,75.22659273195103L801.6666666666667,75.92577067491965L817.0833333333333,77.71982977731534L832.5,76.18462153421513" style="fill: none;" fill="none"></path></g></g></g></g><g opacity="0.2"><g><g><g><path stroke="rgb(187, 187, 187)" stroke-width="2px" d="M77.08333333333333,86.25272284854543L92.5,74.91272547028285L107.91666666666667,68.72726863080806L123.33333333333333,68.04000475189906L138.75,63.91636003147477L154.16666666666666,64.25999197092926L169.58333333333331,62.541811791333316L185,62.88546421311122L200.41666666666669,63.57272809202021L215.83333333333334,64.94727633216166L231.25,61.854547912424266L246.66666666666666,63.91636003147477L262.0833333333333,62.88546421311122L277.5,62.19817985187882L292.91666666666663,61.167263551191866L308.3333333333333,62.541811791333316L323.75,62.19817985187882L339.16666666666663,61.854547912424266L354.58333333333337,61.167263551191866L370,58.074555613777875L385.4166666666667,59.44908337159592L400.83333333333337,59.10545143214142L416.25,59.44908337159592L431.6666666666667,61.167263551191866L447.0833333333333,59.44908337159592L462.5,58.761819492686925L477.91666666666674,58.41818755323237L493.3333333333333,60.13636773282832L508.75000000000006,56.35635495185858L524.1666666666666,58.41818755323237L539.5833333333334,55.32545913349503L555,55.32545913349503L570.4166666666667,56.35635495185858L585.8333333333333,57.73090319199997L601.25,58.41818755323237L616.6666666666666,54.29454283280808L632.0833333333334,55.32545913349503L647.5,55.66909107294953L662.9166666666666,58.41818755323237L678.3333333333333,58.074555613777875L693.75,58.074555613777875L709.1666666666667,56.35635495185858L724.5833333333334,52.57636265321213L740,55.32545913349503L755.4166666666666,54.29454283280808L770.8333333333334,56.700007373636424L786.25,53.95091089335358L801.6666666666667,59.79273579337382L817.0833333333333,55.66909107294953L832.5,52.91999459266668" style="fill: none;" fill="none"></path></g><g><path stroke="rgb(0, 153, 136)" stroke-width="2px" d="M77.08333333333333,153.26181129975757L92.5,125.42727600444448L107.91666666666667,98.28000458804047L123.33333333333333,82.47273054989904L138.75,82.47273054989904L154.16666666666666,81.78544618866664L169.58333333333331,76.9745375893333L185,79.72363406961614L200.41666666666669,71.47636511109096L215.83333333333334,71.1327331716364L231.25,75.94364177096975L246.66666666666666,72.16362898999995L262.0833333333333,68.38363669135356L277.5,67.69637281244451L292.91666666666663,71.81999705054545L308.3333333333333,70.1018168709495L323.75,75.60000983151525L339.16666666666663,67.00908845121211L354.58333333333337,68.04000475189906L370,66.32182457230311L385.4166666666667,65.97817215052521L400.83333333333337,67.00908845121211L416.25,66.32182457230311L431.6666666666667,70.445448810404L447.0833333333333,63.91636003147477L462.5,62.88546421311122L477.91666666666674,63.57272809202021L493.3333333333333,65.29090827161616L508.75000000000006,63.22909615256572L524.1666666666666,64.60364439270717L539.5833333333334,71.47636511109096L555,64.25999197092926L570.4166666666667,63.91636003147477L585.8333333333333,63.57272809202021L601.25,64.60364439270717L616.6666666666666,63.22909615256572L632.0833333333334,64.25999197092926L647.5,63.22909615256572L662.9166666666666,63.91636003147477L678.3333333333333,62.88546421311122L693.75,63.57272809202021L709.1666666666667,64.94727633216166L724.5833333333334,64.60364439270717L740,65.97817215052521L755.4166666666666,67.00908845121211L770.8333333333334,66.32182457230311L786.25,62.541811791333316L801.6666666666667,62.19817985187882L817.0833333333333,63.57272809202021L832.5,63.57272809202021" style="fill: none;" fill="none"></path></g><g><path stroke="rgb(255, 112, 67)" stroke-width="2px" d="M77.08333333333333,297.93272682211614L92.5,258.41454684734344L107.91666666666667,230.92363325032323L123.33333333333333,203.7763618339192L138.75,171.1309179392728L154.16666666666666,141.57818198204043L169.58333333333331,97.59272022680807L185,143.98364652286878L200.41666666666669,116.14909074523234L215.83333333333334,153.94909566098997L231.25,111.338182145899L246.66666666666666,112.71273038604045L262.0833333333333,105.49635724587876L277.5,101.02910106832331L292.91666666666663,89.68908320773733L308.3333333333333,110.65091826699L323.75,97.93637264858597L339.16666666666663,85.90909090909093L354.58333333333337,95.53090810775763L370,97.24908828735357L385.4166666666667,89.68908320773733L400.83333333333337,83.15999442880803L416.25,92.78181162747472L431.6666666666667,86.94000720977789L447.0833333333333,77.6618219505657L462.5,84.87817460840398L477.91666666666674,88.31455544991928L493.3333333333333,90.37636756896978L508.75000000000006,84.19091072949499L524.1666666666666,84.87817460840398L539.5833333333334,75.94364177096975L555,76.9745375893333L570.4166666666667,80.06726600907069L585.8333333333333,84.19091072949499L601.25,76.6309056498788L616.6666666666666,86.25272284854543L632.0833333333334,83.50362636826259L647.5,73.5381772301414L662.9166666666666,89.00181932882833L678.3333333333333,76.6309056498788L693.75,81.09818230975759L709.1666666666667,81.44181424921209L724.5833333333334,76.6309056498788L740,72.85091335123235L755.4166666666666,81.09818230975759L770.8333333333334,74.91272547028285L786.25,72.50728141177785L801.6666666666667,76.9745375893333L817.0833333333333,80.4109184308486L832.5,73.8818091695959" style="fill: none;" fill="none"></path></g></g></g></g></g></g><g transform="translate(50, 378)" clip-path="url(#clip_1)"><clipPath id="clip_1"><rect width="925" height="22"></rect></clipPath><g><g><line x1="0" y1="0" x2="0" y2="5" style="visibility: inherit;" fill="rgb(0, 0, 0)" stroke="rgb(204, 204, 204)" stroke-width="1px"></line><line x1="77.08333333333333" y1="0" x2="77.08333333333333" y2="5" style="visibility: inherit;" fill="rgb(0, 0, 0)" stroke="rgb(204, 204, 204)" stroke-width="1px"></line><line x1="154.16666666666666" y1="0" x2="154.16666666666666" y2="5" style="visibility: inherit;" fill="rgb(0, 0, 0)" stroke="rgb(204, 204, 204)" stroke-width="1px"></line><line x1="231.25" y1="0" x2="231.25" y2="5" style="visibility: inherit;" fill="rgb(0, 0, 0)" stroke="rgb(204, 204, 204)" stroke-width="1px"></line><line x1="308.3333333333333" y1="0" x2="308.3333333333333" y2="5" style="visibility: inherit;" fill="rgb(0, 0, 0)" stroke="rgb(204, 204, 204)" stroke-width="1px"></line><line x1="385.4166666666667" y1="0" x2="385.4166666666667" y2="5" style="visibility: inherit;" fill="rgb(0, 0, 0)" stroke="rgb(204, 204, 204)" stroke-width="1px"></line><line x1="462.5" y1="0" x2="462.5" y2="5" style="visibility: inherit;" fill="rgb(0, 0, 0)" stroke="rgb(204, 204, 204)" stroke-width="1px"></line><line x1="539.5833333333334" y1="0" x2="539.5833333333334" y2="5" style="visibility: inherit;" fill="rgb(0, 0, 0)" stroke="rgb(204, 204, 204)" stroke-width="1px"></line><line x1="616.6666666666666" y1="0" x2="616.6666666666666" y2="5" style="visibility: inherit;" fill="rgb(0, 0, 0)" stroke="rgb(204, 204, 204)" stroke-width="1px"></line><line x1="693.75" y1="0" x2="693.75" y2="5" style="visibility: inherit;" fill="rgb(0, 0, 0)" stroke="rgb(204, 204, 204)" stroke-width="1px"></line><line x1="770.8333333333334" y1="0" x2="770.8333333333334" y2="5" style="visibility: inherit;" fill="rgb(0, 0, 0)" stroke="rgb(204, 204, 204)" stroke-width="1px"></line><line x1="847.9166666666666" y1="0" x2="847.9166666666666" y2="5" style="visibility: inherit;" fill="rgb(0, 0, 0)" stroke="rgb(204, 204, 204)" stroke-width="1px"></line><line x1="925" y1="0" x2="925" y2="5" style="visibility: inherit;" fill="rgb(0, 0, 0)" stroke="rgb(204, 204, 204)" stroke-width="1px"></line></g><g transform="translate(0, 8)"><text x="0" y="0" dx="0em" dy="0.95em" style="text-anchor: middle; visibility: hidden; font-family: &quot;Helvetica Neue&quot;, sans-serif; font-size: 12px; font-weight: 200;" fill="rgb(50, 49, 63)" stroke="none" stroke-width="1px">-5</text><text x="77.08333333333333" y="0" dx="0em" dy="0.95em" style="text-anchor: middle; visibility: inherit; font-family: &quot;Helvetica Neue&quot;, sans-serif; font-size: 12px; font-weight: 200;" fill="rgb(50, 49, 63)" stroke="none" stroke-width="1px">0</text><text x="154.16666666666666" y="0" dx="0em" dy="0.95em" style="text-anchor: middle; visibility: inherit; font-family: &quot;Helvetica Neue&quot;, sans-serif; font-size: 12px; font-weight: 200;" fill="rgb(50, 49, 63)" stroke="none" stroke-width="1px">5</text><text x="231.25" y="0" dx="0em" dy="0.95em" style="text-anchor: middle; visibility: inherit; font-family: &quot;Helvetica Neue&quot;, sans-serif; font-size: 12px; font-weight: 200;" fill="rgb(50, 49, 63)" stroke="none" stroke-width="1px">10</text><text x="308.3333333333333" y="0" dx="0em" dy="0.95em" style="text-anchor: middle; visibility: inherit; font-family: &quot;Helvetica Neue&quot;, sans-serif; font-size: 12px; font-weight: 200;" fill="rgb(50, 49, 63)" stroke="none" stroke-width="1px">15</text><text x="385.4166666666667" y="0" dx="0em" dy="0.95em" style="text-anchor: middle; visibility: inherit; font-family: &quot;Helvetica Neue&quot;, sans-serif; font-size: 12px; font-weight: 200;" fill="rgb(50, 49, 63)" stroke="none" stroke-width="1px">20</text><text x="462.5" y="0" dx="0em" dy="0.95em" style="text-anchor: middle; visibility: inherit; font-family: &quot;Helvetica Neue&quot;, sans-serif; font-size: 12px; font-weight: 200;" fill="rgb(50, 49, 63)" stroke="none" stroke-width="1px">25</text><text x="539.5833333333334" y="0" dx="0em" dy="0.95em" style="text-anchor: middle; visibility: inherit; font-family: &quot;Helvetica Neue&quot;, sans-serif; font-size: 12px; font-weight: 200;" fill="rgb(50, 49, 63)" stroke="none" stroke-width="1px">30</text><text x="616.6666666666666" y="0" dx="0em" dy="0.95em" style="text-anchor: middle; visibility: inherit; font-family: &quot;Helvetica Neue&quot;, sans-serif; font-size: 12px; font-weight: 200;" fill="rgb(50, 49, 63)" stroke="none" stroke-width="1px">35</text><text x="693.75" y="0" dx="0em" dy="0.95em" style="text-anchor: middle; visibility: inherit; font-family: &quot;Helvetica Neue&quot;, sans-serif; font-size: 12px; font-weight: 200;" fill="rgb(50, 49, 63)" stroke="none" stroke-width="1px">40</text><text x="770.8333333333334" y="0" dx="0em" dy="0.95em" style="text-anchor: middle; visibility: inherit; font-family: &quot;Helvetica Neue&quot;, sans-serif; font-size: 12px; font-weight: 200;" fill="rgb(50, 49, 63)" stroke="none" stroke-width="1px">45</text><text x="847.9166666666666" y="0" dx="0em" dy="0.95em" style="text-anchor: middle; visibility: inherit; font-family: &quot;Helvetica Neue&quot;, sans-serif; font-size: 12px; font-weight: 200;" fill="rgb(50, 49, 63)" stroke="none" stroke-width="1px">50</text><text x="925" y="0" dx="0em" dy="0.95em" style="text-anchor: middle; visibility: hidden; font-family: &quot;Helvetica Neue&quot;, sans-serif; font-size: 12px; font-weight: 200;" fill="rgb(50, 49, 63)" stroke="none" stroke-width="1px">55</text></g><line x1="0" y1="0" x2="925" y2="0" fill="rgb(0, 0, 0)" stroke="rgb(204, 204, 204)" stroke-width="1px"></line></g></g></g></g></svg>