<svg viewBox="0 0 975 400" xmlns="http://www.w3.org/2000/svg"><g><g><g><g><g><line x1="50" y1="378" x2="45" y2="378" style="visibility: inherit;" fill="rgb(0, 0, 0)" stroke="rgb(204, 204, 204)" stroke-width="1px"></line><line x1="50" y1="343.6363636363636" x2="45" y2="343.6363636363636" style="visibility: inherit;" fill="rgb(0, 0, 0)" stroke="rgb(204, 204, 204)" stroke-width="1px"></line><line x1="50" y1="309.27272727272725" x2="45" y2="309.27272727272725" style="visibility: inherit;" fill="rgb(0, 0, 0)" stroke="rgb(204, 204, 204)" stroke-width="1px"></line><line x1="50" y1="274.9090909090909" x2="45" y2="274.9090909090909" style="visibility: inherit;" fill="rgb(0, 0, 0)" stroke="rgb(204, 204, 204)" stroke-width="1px"></line><line x1="50" y1="240.54545454545453" x2="45" y2="240.54545454545453" style="visibility: inherit;" fill="rgb(0, 0, 0)" stroke="rgb(204, 204, 204)" stroke-width="1px"></line><line x1="50" y1="206.1818181818182" x2="45" y2="206.1818181818182" style="visibility: inherit;" fill="rgb(0, 0, 0)" stroke="rgb(204, 204, 204)" stroke-width="1px"></line><line x1="50" y1="171.81818181818184" x2="45" y2="171.81818181818184" style="visibility: inherit;" fill="rgb(0, 0, 0)" stroke="rgb(204, 204, 204)" stroke-width="1px"></line><line x1="50" y1="137.4545454545455" x2="45" y2="137.4545454545455" style="visibility: inherit;" fill="rgb(0, 0, 0)" stroke="rgb(204, 204, 204)" stroke-width="1px"></line><line x1="50" y1="103.09090909090912" x2="45" y2="103.09090909090912" style="visibility: inherit;" fill="rgb(0, 0, 0)" stroke="rgb(204, 204, 204)" stroke-width="1px"></line><line x1="50" y1="68.72727272727275" x2="45" y2="68.72727272727275" style="visibility: inherit;" fill="rgb(0, 0, 0)" stroke="rgb(204, 204, 204)" stroke-width="1px"></line><line x1="50" y1="34.363636363636374" x2="45" y2="34.363636363636374" style="visibility: inherit;" fill="rgb(0, 0, 0)" stroke="rgb(204, 204, 204)" stroke-width="1px"></line><line x1="50" y1="0" x2="45" y2="0" style="visibility: inherit;" fill="rgb(0, 0, 0)" stroke="rgb(204, 204, 204)" stroke-width="1px"></line></g><g transform="translate(40, 0)"><text x="0" y="378" dx="0em" dy="0.3em" style="text-anchor: end; visibility: hidden; font-family: &quot;Helvetica Neue&quot;, sans-serif; font-size: 12px; font-weight: 200;" fill="rgb(50, 49, 63)" stroke="none" stroke-width="1px">-0.1</text><text x="0" y="343.6363636363636" dx="0em" dy="0.3em" style="text-anchor: end; visibility: inherit; font-family: &quot;Helvetica Neue&quot;, sans-serif; font-size: 12px; font-weight: 200;" fill="rgb(50, 49, 63)" stroke="none" stroke-width="1px">0</text><text x="0" y="309.27272727272725" dx="0em" dy="0.3em" style="text-anchor: end; visibility: inherit; font-family: &quot;Helvetica Neue&quot;, sans-serif; font-size: 12px; font-weight: 200;" fill="rgb(50, 49, 63)" stroke="none" stroke-width="1px">0.1</text><text x="0" y="274.9090909090909" dx="0em" dy="0.3em" style="text-anchor: end; visibility: inherit; font-family: &quot;Helvetica Neue&quot;, sans-serif; font-size: 12px; font-weight: 200;" fill="rgb(50, 49, 63)" stroke="none" stroke-width="1px">0.2</text><text x="0" y="240.54545454545453" dx="0em" dy="0.3em" style="text-anchor: end; visibility: inherit; font-family: &quot;Helvetica Neue&quot;, sans-serif; font-size: 12px; font-weight: 200;" fill="rgb(50, 49, 63)" stroke="none" stroke-width="1px">0.3</text><text x="0" y="206.1818181818182" dx="0em" dy="0.3em" style="text-anchor: end; visibility: inherit; font-family: &quot;Helvetica Neue&quot;, sans-serif; font-size: 12px; font-weight: 200;" fill="rgb(50, 49, 63)" stroke="none" stroke-width="1px">0.4</text><text x="0" y="171.81818181818184" dx="0em" dy="0.3em" style="text-anchor: end; visibility: inherit; font-family: &quot;Helvetica Neue&quot;, sans-serif; font-size: 12px; font-weight: 200;" fill="rgb(50, 49, 63)" stroke="none" stroke-width="1px">0.5</text><text x="0" y="137.4545454545455" dx="0em" dy="0.3em" style="text-anchor: end; visibility: inherit; font-family: &quot;Helvetica Neue&quot;, sans-serif; font-size: 12px; font-weight: 200;" fill="rgb(50, 49, 63)" stroke="none" stroke-width="1px">0.6</text><text x="0" y="103.09090909090912" dx="0em" dy="0.3em" style="text-anchor: end; visibility: inherit; font-family: &quot;Helvetica Neue&quot;, sans-serif; font-size: 12px; font-weight: 200;" fill="rgb(50, 49, 63)" stroke="none" stroke-width="1px">0.7</text><text x="0" y="68.72727272727275" dx="0em" dy="0.3em" style="text-anchor: end; visibility: inherit; font-family: &quot;Helvetica Neue&quot;, sans-serif; font-size: 12px; font-weight: 200;" fill="rgb(50, 49, 63)" stroke="none" stroke-width="1px">0.8</text><text x="0" y="34.363636363636374" dx="0em" dy="0.3em" style="text-anchor: end; visibility: inherit; font-family: &quot;Helvetica Neue&quot;, sans-serif; font-size: 12px; font-weight: 200;" fill="rgb(50, 49, 63)" stroke="none" stroke-width="1px">0.9</text><text x="0" y="0" dx="0em" dy="0.3em" style="text-anchor: end; visibility: hidden; font-family: &quot;Helvetica Neue&quot;, sans-serif; font-size: 12px; font-weight: 200;" fill="rgb(50, 49, 63)" stroke="none" stroke-width="1px">1</text></g><line x1="50" y1="0" x2="50" y2="378" fill="rgb(0, 0, 0)" stroke="rgb(204, 204, 204)" stroke-width="1px"></line></g></g><g transform="translate(50, 0)" clip-path="url(#clip_0)"><clipPath id="clip_0"><rect width="925" height="378"></rect></clipPath><g><g><g><line x1="0" y1="0" x2="0" y2="378" fill="rgb(0, 0, 0)" stroke="rgb(60, 60, 60)" stroke-width="1px" opacity="0.25"></line><line x1="77.08333333333333" y1="0" x2="77.08333333333333" y2="378" fill="rgb(0, 0, 0)" stroke="rgb(60, 60, 60)" stroke-width="1px" opacity="0.25"></line><line x1="154.16666666666666" y1="0" x2="154.16666666666666" y2="378" fill="rgb(0, 0, 0)" stroke="rgb(60, 60, 60)" stroke-width="1px" opacity="0.25"></line><line x1="231.25" y1="0" x2="231.25" y2="378" fill="rgb(0, 0, 0)" stroke="rgb(60, 60, 60)" stroke-width="1px" opacity="0.25"></line><line x1="308.3333333333333" y1="0" x2="308.3333333333333" y2="378" fill="rgb(0, 0, 0)" stroke="rgb(60, 60, 60)" stroke-width="1px" opacity="0.25"></line><line x1="385.4166666666667" y1="0" x2="385.4166666666667" y2="378" fill="rgb(0, 0, 0)" stroke="rgb(60, 60, 60)" stroke-width="1px" opacity="0.25"></line><line x1="462.5" y1="0" x2="462.5" y2="378" fill="rgb(0, 0, 0)" stroke="rgb(60, 60, 60)" stroke-width="1px" opacity="0.25"></line><line x1="539.5833333333334" y1="0" x2="539.5833333333334" y2="378" fill="rgb(0, 0, 0)" stroke="rgb(60, 60, 60)" stroke-width="1px" opacity="0.25"></line><line x1="616.6666666666666" y1="0" x2="616.6666666666666" y2="378" fill="rgb(0, 0, 0)" stroke="rgb(60, 60, 60)" stroke-width="1px" opacity="0.25"></line><line x1="693.75" y1="0" x2="693.75" y2="378" fill="rgb(0, 0, 0)" stroke="rgb(60, 60, 60)" stroke-width="1px" opacity="0.25"></line><line x1="770.8333333333334" y1="0" x2="770.8333333333334" y2="378" fill="rgb(0, 0, 0)" stroke="rgb(60, 60, 60)" stroke-width="1px" opacity="0.25"></line><line x1="847.9166666666666" y1="0" x2="847.9166666666666" y2="378" fill="rgb(0, 0, 0)" stroke="rgb(60, 60, 60)" stroke-width="1px" opacity="0.25"></line><line x1="925" y1="0" x2="925" y2="378" fill="rgb(0, 0, 0)" stroke="rgb(60, 60, 60)" stroke-width="1px" opacity="0.25"></line></g><g><line x1="0" y1="378" x2="925" y2="378" fill="rgb(0, 0, 0)" stroke="rgb(60, 60, 60)" stroke-width="1px" opacity="0.25"></line><line x1="0" y1="343.6363636363636" x2="925" y2="343.6363636363636" fill="rgb(0, 0, 0)" stroke="rgb(60, 60, 60)" stroke-width="1px" opacity="0.25"></line><line x1="0" y1="309.27272727272725" x2="925" y2="309.27272727272725" fill="rgb(0, 0, 0)" stroke="rgb(60, 60, 60)" stroke-width="1px" opacity="0.25"></line><line x1="0" y1="274.9090909090909" x2="925" y2="274.9090909090909" fill="rgb(0, 0, 0)" stroke="rgb(60, 60, 60)" stroke-width="1px" opacity="0.25"></line><line x1="0" y1="240.54545454545453" x2="925" y2="240.54545454545453" fill="rgb(0, 0, 0)" stroke="rgb(60, 60, 60)" stroke-width="1px" opacity="0.25"></line><line x1="0" y1="206.1818181818182" x2="925" y2="206.1818181818182" fill="rgb(0, 0, 0)" stroke="rgb(60, 60, 60)" stroke-width="1px" opacity="0.25"></line><line x1="0" y1="171.81818181818184" x2="925" y2="171.81818181818184" fill="rgb(0, 0, 0)" stroke="rgb(60, 60, 60)" stroke-width="1px" opacity="0.25"></line><line x1="0" y1="137.4545454545455" x2="925" y2="137.4545454545455" fill="rgb(0, 0, 0)" stroke="rgb(60, 60, 60)" stroke-width="1px" opacity="0.25"></line><line x1="0" y1="103.09090909090912" x2="925" y2="103.09090909090912" fill="rgb(0, 0, 0)" stroke="rgb(60, 60, 60)" stroke-width="1px" opacity="0.25"></line><line x1="0" y1="68.72727272727275" x2="925" y2="68.72727272727275" fill="rgb(0, 0, 0)" stroke="rgb(60, 60, 60)" stroke-width="1px" opacity="0.25"></line><line x1="0" y1="34.363636363636374" x2="925" y2="34.363636363636374" fill="rgb(0, 0, 0)" stroke="rgb(60, 60, 60)" stroke-width="1px" opacity="0.25"></line><line x1="0" y1="0" x2="925" y2="0" fill="rgb(0, 0, 0)" stroke="rgb(60, 60, 60)" stroke-width="1px" opacity="0.25"></line></g></g></g><g><g><line x1="0" y1="343.6363636363636" x2="925" y2="343.6363636363636" fill="rgb(0, 0, 0)" stroke="rgb(153, 153, 153)" stroke-width="1.5px"></line></g></g><g><g><line x1="77.08333333333333" y1="0" x2="77.08333333333333" y2="378" fill="rgb(0, 0, 0)" stroke="rgb(153, 153, 153)" stroke-width="1.5px"></line></g></g><g><g><g><g><g><path stroke="rgb(238, 51, 119)" stroke-width="2px" d="M77.08333333333333,189.0000040964647L92.5,184.91931720890784L107.91666666666667,169.29350618418164L123.33333333333333,163.66313757046186L138.75,158.70467899609173L154.16666666666666,154.54663158659855L169.58333333333331,150.48257555370793L185,147.1395740891252L200.41666666666669,145.17007478257122L215.83333333333334,144.96919438329607L231.25,143.46989724111955L246.66666666666666,143.53808441374096L262.0833333333333,142.34019239066822L277.5,141.07220876611754L292.91666666666663,140.58709788879793L308.3333333333333,138.9212453552711L323.75,138.47194703532372L339.16666666666663,138.06494179040567L354.58333333333337,135.75882323779453L370,136.71205744356897L385.4166666666667,137.9712628102452L400.83333333333337,137.76456987026586L416.25,136.6783706253603L431.6666666666667,136.71393189680188L447.0833333333333,137.1476362444727L462.5,136.85803782998266L477.91666666666674,135.30973354693933L493.3333333333333,134.93056343206896L508.75000000000006,134.01578918709998L524.1666666666666,134.56656369104815L539.5833333333334,134.89702831548942L555,134.82040148865784L570.4166666666667,134.2246060741504L585.8333333333333,133.04240397240463L601.25,133.29526037297745L616.6666666666666,133.17206865614008L632.0833333333334,133.09815362685092L647.5,131.81671323708161L662.9166666666666,132.147479407899L678.3333333333333,130.9713949644036L693.75,130.54065804402606L709.1666666666667,130.0073021473953L724.5833333333334,129.68728860958117L740,130.18255255890924L755.4166666666666,129.38008052915308L770.8333333333334,128.48623079105226L786.25,128.36228746851765L801.6666666666667,129.6624656187075L817.0833333333333,130.44257250880273L832.5,129.39863153045295" style="fill: none;" fill="none"></path></g><g><path stroke="rgb(51, 187, 238)" stroke-width="2px" d="M77.08333333333333,223.70727035132322L92.5,212.9686378281225L107.91666666666667,197.93454780207054L123.33333333333333,185.45877469335016L138.75,177.9030038858316L154.16666666666666,174.4848739404183L169.58333333333331,171.5491036483234L185,169.98093786468863L200.41666666666669,166.69655679688796L215.83333333333334,161.1516780608991L231.25,156.32878434478607L246.66666666666666,153.7217760935869L262.0833333333333,151.1977718843092L277.5,151.88647457081012L292.91666666666663,148.58633070482972L308.3333333333333,146.74473749836133L323.75,146.87740673960056L339.16666666666663,147.36940231519756L354.58333333333337,146.83979257360076L370,146.38458958220377L385.4166666666667,145.28672730600806L400.83333333333337,143.8032896511618L416.25,144.97507205294815L431.6666666666667,143.2039411120165L447.0833333333333,142.55363561118878L462.5,146.2870929591558L477.91666666666674,145.9155251074721L493.3333333333333,143.08094752448858L508.75000000000006,143.85438573616446L524.1666666666666,142.1191790032857L539.5833333333334,140.80314142810946L555,139.60116063456172L570.4166666666667,140.39196921131585L585.8333333333333,139.49191015014117L601.25,137.71478334077912L616.6666666666666,138.2979569869674L632.0833333333334,136.44859216592323L647.5,134.9266067588156L662.9166666666666,133.46360441381583L678.3333333333333,135.6097968518614L693.75,134.28587679918635L709.1666666666667,134.31624961627793L724.5833333333334,135.43411189895417L740,134.86773790024407L755.4166666666666,135.90245764490047L770.8333333333334,136.11093116425434L786.25,135.41128223527787L801.6666666666667,135.67877314269197L817.0833333333333,137.4887173823992L832.5,136.65032048645895" style="fill: none;" fill="none"></path></g><g><path stroke="rgb(0, 153, 136)" stroke-width="2px" d="M77.08333333333333,168.03818951953542L92.5,157.08478063344958L107.91666666666667,151.8031183310918L123.33333333333333,147.10415861185868L138.75,143.06791254642465L154.16666666666666,140.71267654145328L169.58333333333331,137.95775655778692L185,136.21520372364944L200.41666666666669,133.93890904571194L215.83333333333334,131.75816104787498L231.25,130.32022884692358L246.66666666666666,130.1495869235589L262.0833333333333,128.80873060055427L277.5,127.45508799139489L292.91666666666663,127.1936595729544L308.3333333333333,127.31186434003456L323.75,126.83285347682462L339.16666666666663,126.82044052327015L354.58333333333337,126.53806306035773L370,124.58167159683288L385.4166666666667,124.09517784006789L400.83333333333337,123.25346188333285L416.25,124.53535598262809L431.6666666666667,123.24265997789831L447.0833333333333,121.5048659363465L462.5,121.6992861515543L477.91666666666674,122.09084390135277L493.3333333333333,121.36360008047814L508.75000000000006,121.61452639884334L524.1666666666666,120.80289610164544L539.5833333333334,120.45337083217623L555,119.41893078690947L570.4166666666667,119.21063335240518L585.8333333333333,119.63547420987794L601.25,120.16528427286084L616.6666666666666,120.07080378029349L632.0833333333334,119.73920993211186L647.5,118.71552877383374L662.9166666666666,118.37622563347566L678.3333333333333,116.7980996042304L693.75,115.16395191564379L709.1666666666667,115.9703739681421L724.5833333333334,116.72913275103565L740,115.39747735637053L755.4166666666666,115.1483034158328L770.8333333333334,115.68607112340794L786.25,115.32145967606749L801.6666666666667,116.2023313998098L817.0833333333333,116.04358236219485L832.5,115.39851364356628" style="fill: none;" fill="none"></path></g><g><path stroke="rgb(0, 119, 187)" stroke-width="2px" d="M77.08333333333333,308.9290897006338L92.5,308.9290897006338L107.91666666666667,300.162857763179L123.33333333333333,284.6092392444451L138.75,276.3778333205634L154.16666666666666,257.0179908333559L169.58333333333331,250.80486625136768L185,253.62113127974885L200.41666666666669,245.28283014810225L215.83333333333334,250.84405100349636L231.25,240.77754670547668L246.66666666666666,237.9294201639822L262.0833333333333,224.93850186290362L277.5,217.84262937382525L292.91666666666663,219.77703286849163L308.3333333333333,225.88685045962322L323.75,215.1164685037337L339.16666666666663,218.00326722633076L354.58333333333337,217.5357517004603L370,219.4546141178638L385.4166666666667,214.14537845571198L400.83333333333337,208.6231549788718L416.25,203.11057695495768L431.6666666666667,208.05037013671762L447.0833333333333,205.24112433318305L462.5,200.11921164512526L477.91666666666674,194.8467942853078L493.3333333333333,192.78298249395928L508.75000000000006,196.63051635153565L524.1666666666666,201.96303845916052L539.5833333333334,198.7021877212821L555,195.9209485456542L570.4166666666667,189.30384357053194L585.8333333333333,193.16848754688013L601.25,202.08509323853002L616.6666666666666,202.3492382556001L632.0833333333334,203.88226941628182L647.5,195.8675429466149L662.9166666666666,195.18234362054343L678.3333333333333,192.7094078076062L693.75,196.7238269975411L709.1666666666667,192.67211611529405L724.5833333333334,194.08981646777167L740,192.32879707050736L755.4166666666666,189.07291644081855L770.8333333333334,188.08156978314852L786.25,188.99875870810124L801.6666666666667,188.17452791934323L817.0833333333333,190.97889702955482L832.5,190.04988298406477" style="fill: none;" fill="none"></path></g><g><path stroke="rgb(204, 51, 17)" stroke-width="2px" d="M77.08333333333333,209.27454455332324L92.5,180.7097747447816L107.91666666666667,140.23169222590218L123.33333333333333,133.90194939359787L138.75,120.68742637712944L154.16666666666666,108.69054859594502L169.58333333333331,116.42652215642767L185,98.83831710395731L200.41666666666669,96.11334795106848L215.83333333333334,89.37929135758816L231.25,82.88182029710583L246.66666666666666,82.71782742142813L262.0833333333333,80.6927803811069L277.5,78.79163512046028L292.91666666666663,75.72663322306096L308.3333333333333,76.36343558722689L323.75,75.6455772552323L339.16666666666663,74.11518974726857L354.58333333333337,79.24542934841924L370,76.13769002961453L385.4166666666667,70.69921943084097L400.83333333333337,71.97227208247887L416.25,71.91136158867698L431.6666666666667,68.43843895820072L447.0833333333333,67.17942310414855L462.5,68.48583561515181L477.91666666666674,66.93295753681815L493.3333333333333,67.51322955497403L508.75000000000006,66.48684788767207L524.1666666666666,66.69574415926962L539.5833333333334,65.17163197864136L555,64.94443692618603L570.4166666666667,63.70848126166203L585.8333333333333,63.51672721252953L601.25,62.85185548105784L616.6666666666666,62.86529897401789L632.0833333333334,62.048632024051585L647.5,61.00881255920825L662.9166666666666,63.54637569744506L678.3333333333333,62.31982528574059L693.75,61.99626156037277L709.1666666666667,64.68866438984259L724.5833333333334,63.41756502272648L740,62.37999165815103L755.4166666666666,61.482542087928664L770.8333333333334,62.318616489617455L786.25,61.85807531422995L801.6666666666667,60.48212020980009L817.0833333333333,62.54308821033612L832.5,61.16803349904711" style="fill: none;" fill="none"></path></g></g></g></g><g opacity="0.2"><g><g><g><path stroke="rgb(238, 51, 119)" stroke-width="2px" d="M77.08333333333333,189.0000040964647L92.5,182.47090507637373L107.91666666666667,154.29272760044446L123.33333333333333,157.04182408072734L138.75,152.23091548139402L154.16666666666666,148.79455512220213L169.58333333333331,144.67091040177783L185,142.26544586094943L200.41666666666669,142.26544586094943L215.83333333333334,144.67091040177783L231.25,141.23455004258594L246.66666666666666,143.6399941010909L262.0833333333333,140.54726568135348L277.5,139.17271744121206L292.91666666666663,139.8600018024445L308.3333333333333,136.4236414432526L323.75,137.79818968339404L339.16666666666663,137.4545372616161L354.58333333333337,132.29999672282827L370,138.14182162284854L385.4166666666667,139.8600018024445L400.83333333333337,137.4545372616161L416.25,135.04909320311117L431.6666666666667,136.76727338270712L447.0833333333333,137.79818968339404L462.5,136.4236414432526L477.91666666666674,132.9872810840607L493.3333333333333,134.36180884187874L508.75000000000006,132.6436286622828L524.1666666666666,135.39272514256564L539.5833333333334,135.39272514256564L555,134.70546126365664L570.4166666666667,133.33091302351522L585.8333333333333,131.26910090446475L601.25,133.6745449629697L616.6666666666666,132.9872810840607L632.0833333333334,132.9872810840607L647.5,129.89455266432333L662.9166666666666,132.6436286622828L678.3333333333333,129.2072683030909L693.75,129.89455266432333L709.1666666666667,129.2072683030909L724.5833333333334,129.2072683030909L740,130.92544848268685L755.4166666666666,128.17637248472738L770.8333333333334,127.14545618404043L786.25,128.17637248472738L801.6666666666667,131.61273284391928L817.0833333333333,131.61273284391928L832.5,127.83272006294945" style="fill: none;" fill="none"></path></g><g><path stroke="rgb(51, 187, 238)" stroke-width="2px" d="M77.08333333333333,223.70727035132322L92.5,206.52545831420207L107.91666666666667,183.50182137706065L123.33333333333333,170.78726551749492L138.75,168.03818951953542L154.16666666666666,169.75636969913137L169.58333333333331,167.35090515830302L185,167.69453709775755L200.41666666666669,161.85273268006065L215.83333333333334,152.91817936030304L231.25,149.13818706165662L246.66666666666666,149.82545094056567L262.0833333333333,147.42000688206068L277.5,152.91817936030304L292.91666666666663,143.6399941010909L308.3333333333333,143.98364652286878L323.75,147.0763544602828L339.16666666666663,148.10727076096973L354.58333333333337,146.04545864191925L370,145.70182670246473L385.4166666666667,143.6399941010909L400.83333333333337,141.57818198204043L416.25,146.73272252082828L431.6666666666667,140.54726568135348L447.0833333333333,141.57818198204043L462.5,151.88726305961612L477.91666666666674,145.35817428068685L493.3333333333333,138.82908550175753L508.75000000000006,145.01454234123233L524.1666666666666,139.51636986299L539.5833333333334,138.82908550175753L555,137.79818968339404L570.4166666666667,141.57818198204043L585.8333333333333,138.14182162284854L601.25,135.04909320311117L616.6666666666666,139.17271744121206L632.0833333333334,133.6745449629697L647.5,132.6436286622828L662.9166666666666,131.26910090446475L678.3333333333333,138.82908550175753L693.75,132.29999672282827L709.1666666666667,134.36180884187874L724.5833333333334,137.11090532216159L740,134.01817690242422L755.4166666666666,137.4545372616161L770.8333333333334,136.4236414432526L786.25,134.36180884187874L801.6666666666667,136.0800095037981L817.0833333333333,140.203633741899L832.5,135.39272514256564" style="fill: none;" fill="none"></path></g><g><path stroke="rgb(0, 153, 136)" stroke-width="2px" d="M77.08333333333333,168.03818951953542L92.5,150.51273530179807L107.91666666666667,146.73272252082828L123.33333333333333,141.57818198204043L138.75,137.79818968339404L154.16666666666666,137.4545372616161L169.58333333333331,134.01817690242422L185,133.6745449629697L200.41666666666669,130.58181654323232L215.83333333333334,128.52000442418185L231.25,128.17637248472738L246.66666666666666,129.89455266432333L262.0833333333333,126.8018242445859L277.5,125.42727600444448L292.91666666666663,126.8018242445859L308.3333333333333,127.48908812349495L323.75,126.1145398833535L339.16666666666663,126.8018242445859L354.58333333333337,126.1145398833535L370,121.64726322347468L385.4166666666667,123.365463885394L400.83333333333337,121.99091564525258L416.25,126.45817182280803L431.6666666666667,121.30363128402018L447.0833333333333,118.89818722551519L462.5,121.99091564525258L477.91666666666674,122.6781795241616L493.3333333333333,120.27273546565664L508.75000000000006,121.99091564525258L524.1666666666666,119.58545110442424L539.5833333333334,119.92908304387873L555,117.86727092482829L570.4166666666667,118.89818722551519L585.8333333333333,120.27273546565664L601.25,120.95999934456569L616.6666666666666,119.92908304387873L632.0833333333334,119.24181916496974L647.5,117.18000704591924L662.9166666666666,117.86727092482829L678.3333333333333,114.4309105656364L693.75,112.71273038604045L709.1666666666667,117.18000704591924L724.5833333333334,117.86727092482829L740,113.3999942649495L755.4166666666666,114.77454250509089L770.8333333333334,116.49272268468684L786.25,114.77454250509089L801.6666666666667,117.5236389853738L817.0833333333333,115.80545880577785L832.5,114.4309105656364" style="fill: none;" fill="none"></path></g><g><path stroke="rgb(0, 119, 187)" stroke-width="2px" d="M77.08333333333333,308.9290897006338L92.5,308.9290897006338L107.91666666666667,291.74727510322225L123.33333333333333,266.3181838664142L138.75,265.63090974634343L154.16666666666666,230.2363591302525L169.58333333333331,241.91999868913132L185,257.72727272727275L200.41666666666669,232.98545561053538L215.83333333333334,259.10181584683335L231.25,225.7690927115354L246.66666666666666,233.6727297306061L262.0833333333333,205.49454201351514L277.5,207.2127221931111L292.91666666666663,222.676364291798L308.3333333333333,235.04726772958585L323.75,198.96545323458585L339.16666666666663,222.3327323523435L354.58333333333337,216.83454963293943L370,222.3327323523435L385.4166666666667,206.18181613358587L400.83333333333337,200.3400014747273L416.25,194.84181875532326L431.6666666666667,215.460001392798L447.0833333333333,201.02727559479803L462.5,192.4363644556566L477.91666666666674,186.93818173625255L493.3333333333333,189.68726797537371L508.75000000000006,202.40181359377775L524.1666666666666,209.96181867339396L539.5833333333334,193.810912695798L555,191.74909033558586L570.4166666666667,179.37818689779803L585.8333333333333,198.96545323458585L601.25,215.460001392798L616.6666666666666,202.74545577439397L632.0833333333334,206.18181613358587L647.5,183.84545331651518L662.9166666666666,194.15454463525253L678.3333333333333,189.0000040964647L693.75,202.74545577439397L709.1666666666667,186.59454979679802L724.5833333333334,196.2163669954647L740,189.68726797537371L755.4166666666666,184.18909549713138L770.8333333333334,186.59454979679802L786.25,190.37454209544444L801.6666666666667,186.93818173625255L817.0833333333333,195.18545069477776L832.5,188.6563619158485" style="fill: none;" fill="none"></path></g><g><path stroke="rgb(204, 51, 17)" stroke-width="2px" d="M77.08333333333333,209.27454455332324L92.5,163.5709128596566L107.91666666666667,101.37273300777787L123.33333333333333,126.45817182280803L138.75,103.43454512682831L154.16666666666666,92.09454774856573L169.58333333333331,127.48908812349495L185,73.1945452906869L200.41666666666669,92.09454774856573L215.83333333333334,79.38000213016164L231.25,73.1945452906869L246.66666666666666,82.47273054989904L262.0833333333333,77.6618219505657L277.5,75.94364177096975L292.91666666666663,71.1327331716364L308.3333333333333,77.3181900111112L323.75,74.5690935308283L339.16666666666663,71.81999705054545L354.58333333333337,86.94000720977789L370,71.47636511109096L385.4166666666667,62.541811791333316L400.83333333333337,73.8818091695959L416.25,71.81999705054545L431.6666666666667,63.22909615256572L447.0833333333333,65.29090827161616L462.5,70.445448810404L477.91666666666674,64.60364439270717L493.3333333333333,68.38363669135356L508.75000000000006,64.94727633216166L524.1666666666666,67.00908845121211L539.5833333333334,62.88546421311122L555,64.60364439270717L570.4166666666667,61.854547912424266L585.8333333333333,63.22909615256572L601.25,61.854547912424266L616.6666666666666,62.88546421311122L632.0833333333334,60.82363161173737L647.5,59.44908337159592L662.9166666666666,67.35272039066666L678.3333333333333,60.47999967228287L693.75,61.51091597296977L709.1666666666667,68.72726863080806L724.5833333333334,61.51091597296977L740,60.82363161173737L755.4166666666666,60.13636773282832L770.8333333333334,63.57272809202021L786.25,61.167263551191866L801.6666666666667,58.41818755323237L817.0833333333333,65.63454021107071L832.5,59.10545143214142" style="fill: none;" fill="none"></path></g></g></g></g></g></g><g transform="translate(50, 378)" clip-path="url(#clip_1)"><clipPath id="clip_1"><rect width="925" height="22"></rect></clipPath><g><g><line x1="0" y1="0" x2="0" y2="5" style="visibility: inherit;" fill="rgb(0, 0, 0)" stroke="rgb(204, 204, 204)" stroke-width="1px"></line><line x1="77.08333333333333" y1="0" x2="77.08333333333333" y2="5" style="visibility: inherit;" fill="rgb(0, 0, 0)" stroke="rgb(204, 204, 204)" stroke-width="1px"></line><line x1="154.16666666666666" y1="0" x2="154.16666666666666" y2="5" style="visibility: inherit;" fill="rgb(0, 0, 0)" stroke="rgb(204, 204, 204)" stroke-width="1px"></line><line x1="231.25" y1="0" x2="231.25" y2="5" style="visibility: inherit;" fill="rgb(0, 0, 0)" stroke="rgb(204, 204, 204)" stroke-width="1px"></line><line x1="308.3333333333333" y1="0" x2="308.3333333333333" y2="5" style="visibility: inherit;" fill="rgb(0, 0, 0)" stroke="rgb(204, 204, 204)" stroke-width="1px"></line><line x1="385.4166666666667" y1="0" x2="385.4166666666667" y2="5" style="visibility: inherit;" fill="rgb(0, 0, 0)" stroke="rgb(204, 204, 204)" stroke-width="1px"></line><line x1="462.5" y1="0" x2="462.5" y2="5" style="visibility: inherit;" fill="rgb(0, 0, 0)" stroke="rgb(204, 204, 204)" stroke-width="1px"></line><line x1="539.5833333333334" y1="0" x2="539.5833333333334" y2="5" style="visibility: inherit;" fill="rgb(0, 0, 0)" stroke="rgb(204, 204, 204)" stroke-width="1px"></line><line x1="616.6666666666666" y1="0" x2="616.6666666666666" y2="5" style="visibility: inherit;" fill="rgb(0, 0, 0)" stroke="rgb(204, 204, 204)" stroke-width="1px"></line><line x1="693.75" y1="0" x2="693.75" y2="5" style="visibility: inherit;" fill="rgb(0, 0, 0)" stroke="rgb(204, 204, 204)" stroke-width="1px"></line><line x1="770.8333333333334" y1="0" x2="770.8333333333334" y2="5" style="visibility: inherit;" fill="rgb(0, 0, 0)" stroke="rgb(204, 204, 204)" stroke-width="1px"></line><line x1="847.9166666666666" y1="0" x2="847.9166666666666" y2="5" style="visibility: inherit;" fill="rgb(0, 0, 0)" stroke="rgb(204, 204, 204)" stroke-width="1px"></line><line x1="925" y1="0" x2="925" y2="5" style="visibility: inherit;" fill="rgb(0, 0, 0)" stroke="rgb(204, 204, 204)" stroke-width="1px"></line></g><g transform="translate(0, 8)"><text x="0" y="0" dx="0em" dy="0.95em" style="text-anchor: middle; visibility: hidden; font-family: &quot;Helvetica Neue&quot;, sans-serif; font-size: 12px; font-weight: 200;" fill="rgb(50, 49, 63)" stroke="none" stroke-width="1px">-5</text><text x="77.08333333333333" y="0" dx="0em" dy="0.95em" style="text-anchor: middle; visibility: inherit; font-family: &quot;Helvetica Neue&quot;, sans-serif; font-size: 12px; font-weight: 200;" fill="rgb(50, 49, 63)" stroke="none" stroke-width="1px">0</text><text x="154.16666666666666" y="0" dx="0em" dy="0.95em" style="text-anchor: middle; visibility: inherit; font-family: &quot;Helvetica Neue&quot;, sans-serif; font-size: 12px; font-weight: 200;" fill="rgb(50, 49, 63)" stroke="none" stroke-width="1px">5</text><text x="231.25" y="0" dx="0em" dy="0.95em" style="text-anchor: middle; visibility: inherit; font-family: &quot;Helvetica Neue&quot;, sans-serif; font-size: 12px; font-weight: 200;" fill="rgb(50, 49, 63)" stroke="none" stroke-width="1px">10</text><text x="308.3333333333333" y="0" dx="0em" dy="0.95em" style="text-anchor: middle; visibility: inherit; font-family: &quot;Helvetica Neue&quot;, sans-serif; font-size: 12px; font-weight: 200;" fill="rgb(50, 49, 63)" stroke="none" stroke-width="1px">15</text><text x="385.4166666666667" y="0" dx="0em" dy="0.95em" style="text-anchor: middle; visibility: inherit; font-family: &quot;Helvetica Neue&quot;, sans-serif; font-size: 12px; font-weight: 200;" fill="rgb(50, 49, 63)" stroke="none" stroke-width="1px">20</text><text x="462.5" y="0" dx="0em" dy="0.95em" style="text-anchor: middle; visibility: inherit; font-family: &quot;Helvetica Neue&quot;, sans-serif; font-size: 12px; font-weight: 200;" fill="rgb(50, 49, 63)" stroke="none" stroke-width="1px">25</text><text x="539.5833333333334" y="0" dx="0em" dy="0.95em" style="text-anchor: middle; visibility: inherit; font-family: &quot;Helvetica Neue&quot;, sans-serif; font-size: 12px; font-weight: 200;" fill="rgb(50, 49, 63)" stroke="none" stroke-width="1px">30</text><text x="616.6666666666666" y="0" dx="0em" dy="0.95em" style="text-anchor: middle; visibility: inherit; font-family: &quot;Helvetica Neue&quot;, sans-serif; font-size: 12px; font-weight: 200;" fill="rgb(50, 49, 63)" stroke="none" stroke-width="1px">35</text><text x="693.75" y="0" dx="0em" dy="0.95em" style="text-anchor: middle; visibility: inherit; font-family: &quot;Helvetica Neue&quot;, sans-serif; font-size: 12px; font-weight: 200;" fill="rgb(50, 49, 63)" stroke="none" stroke-width="1px">40</text><text x="770.8333333333334" y="0" dx="0em" dy="0.95em" style="text-anchor: middle; visibility: inherit; font-family: &quot;Helvetica Neue&quot;, sans-serif; font-size: 12px; font-weight: 200;" fill="rgb(50, 49, 63)" stroke="none" stroke-width="1px">45</text><text x="847.9166666666666" y="0" dx="0em" dy="0.95em" style="text-anchor: middle; visibility: inherit; font-family: &quot;Helvetica Neue&quot;, sans-serif; font-size: 12px; font-weight: 200;" fill="rgb(50, 49, 63)" stroke="none" stroke-width="1px">50</text><text x="925" y="0" dx="0em" dy="0.95em" style="text-anchor: middle; visibility: hidden; font-family: &quot;Helvetica Neue&quot;, sans-serif; font-size: 12px; font-weight: 200;" fill="rgb(50, 49, 63)" stroke="none" stroke-width="1px">55</text></g><line x1="0" y1="0" x2="925" y2="0" fill="rgb(0, 0, 0)" stroke="rgb(204, 204, 204)" stroke-width="1px"></line></g></g></g></g></svg>