<svg viewBox="0 0 975 400" xmlns="http://www.w3.org/2000/svg"><g><g><g><g><g><line x1="50" y1="378" x2="45" y2="378" style="visibility: inherit;" fill="rgb(0, 0, 0)" stroke="rgb(204, 204, 204)" stroke-width="1px"></line><line x1="50" y1="324" x2="45" y2="324" style="visibility: inherit;" fill="rgb(0, 0, 0)" stroke="rgb(204, 204, 204)" stroke-width="1px"></line><line x1="50" y1="270" x2="45" y2="270" style="visibility: inherit;" fill="rgb(0, 0, 0)" stroke="rgb(204, 204, 204)" stroke-width="1px"></line><line x1="50" y1="216" x2="45" y2="216" style="visibility: inherit;" fill="rgb(0, 0, 0)" stroke="rgb(204, 204, 204)" stroke-width="1px"></line><line x1="50" y1="162" x2="45" y2="162" style="visibility: inherit;" fill="rgb(0, 0, 0)" stroke="rgb(204, 204, 204)" stroke-width="1px"></line><line x1="50" y1="108" x2="45" y2="108" style="visibility: inherit;" fill="rgb(0, 0, 0)" stroke="rgb(204, 204, 204)" stroke-width="1px"></line><line x1="50" y1="54" x2="45" y2="54" style="visibility: inherit;" fill="rgb(0, 0, 0)" stroke="rgb(204, 204, 204)" stroke-width="1px"></line><line x1="50" y1="0" x2="45" y2="0" style="visibility: inherit;" fill="rgb(0, 0, 0)" stroke="rgb(204, 204, 204)" stroke-width="1px"></line></g><g transform="translate(40, 0)"><text x="0" y="378" dx="0em" dy="0.3em" style="text-anchor: end; visibility: hidden; font-family: &quot;Helvetica Neue&quot;, sans-serif; font-size: 12px; font-weight: 200;" fill="rgb(50, 49, 63)" stroke="none" stroke-width="1px">-0.5</text><text x="0" y="324" dx="0em" dy="0.3em" style="text-anchor: end; visibility: inherit; font-family: &quot;Helvetica Neue&quot;, sans-serif; font-size: 12px; font-weight: 200;" fill="rgb(50, 49, 63)" stroke="none" stroke-width="1px">0</text><text x="0" y="270" dx="0em" dy="0.3em" style="text-anchor: end; visibility: inherit; font-family: &quot;Helvetica Neue&quot;, sans-serif; font-size: 12px; font-weight: 200;" fill="rgb(50, 49, 63)" stroke="none" stroke-width="1px">0.5</text><text x="0" y="216" dx="0em" dy="0.3em" style="text-anchor: end; visibility: inherit; font-family: &quot;Helvetica Neue&quot;, sans-serif; font-size: 12px; font-weight: 200;" fill="rgb(50, 49, 63)" stroke="none" stroke-width="1px">1</text><text x="0" y="162" dx="0em" dy="0.3em" style="text-anchor: end; visibility: inherit; font-family: &quot;Helvetica Neue&quot;, sans-serif; font-size: 12px; font-weight: 200;" fill="rgb(50, 49, 63)" stroke="none" stroke-width="1px">1.5</text><text x="0" y="108" dx="0em" dy="0.3em" style="text-anchor: end; visibility: inherit; font-family: &quot;Helvetica Neue&quot;, sans-serif; font-size: 12px; font-weight: 200;" fill="rgb(50, 49, 63)" stroke="none" stroke-width="1px">2</text><text x="0" y="54" dx="0em" dy="0.3em" style="text-anchor: end; visibility: inherit; font-family: &quot;Helvetica Neue&quot;, sans-serif; font-size: 12px; font-weight: 200;" fill="rgb(50, 49, 63)" stroke="none" stroke-width="1px">2.5</text><text x="0" y="0" dx="0em" dy="0.3em" style="text-anchor: end; visibility: hidden; font-family: &quot;Helvetica Neue&quot;, sans-serif; font-size: 12px; font-weight: 200;" fill="rgb(50, 49, 63)" stroke="none" stroke-width="1px">3</text></g><line x1="50" y1="0" x2="50" y2="378" fill="rgb(0, 0, 0)" stroke="rgb(204, 204, 204)" stroke-width="1px"></line></g></g><g transform="translate(50, 0)" clip-path="url(#clip_0)"><clipPath id="clip_0"><rect width="925" height="378"></rect></clipPath><g><g><g><line x1="0" y1="0" x2="0" y2="378" fill="rgb(0, 0, 0)" stroke="rgb(60, 60, 60)" stroke-width="1px" opacity="0.25"></line><line x1="77.08333333333333" y1="0" x2="77.08333333333333" y2="378" fill="rgb(0, 0, 0)" stroke="rgb(60, 60, 60)" stroke-width="1px" opacity="0.25"></line><line x1="154.16666666666666" y1="0" x2="154.16666666666666" y2="378" fill="rgb(0, 0, 0)" stroke="rgb(60, 60, 60)" stroke-width="1px" opacity="0.25"></line><line x1="231.25" y1="0" x2="231.25" y2="378" fill="rgb(0, 0, 0)" stroke="rgb(60, 60, 60)" stroke-width="1px" opacity="0.25"></line><line x1="308.3333333333333" y1="0" x2="308.3333333333333" y2="378" fill="rgb(0, 0, 0)" stroke="rgb(60, 60, 60)" stroke-width="1px" opacity="0.25"></line><line x1="385.4166666666667" y1="0" x2="385.4166666666667" y2="378" fill="rgb(0, 0, 0)" stroke="rgb(60, 60, 60)" stroke-width="1px" opacity="0.25"></line><line x1="462.5" y1="0" x2="462.5" y2="378" fill="rgb(0, 0, 0)" stroke="rgb(60, 60, 60)" stroke-width="1px" opacity="0.25"></line><line x1="539.5833333333334" y1="0" x2="539.5833333333334" y2="378" fill="rgb(0, 0, 0)" stroke="rgb(60, 60, 60)" stroke-width="1px" opacity="0.25"></line><line x1="616.6666666666666" y1="0" x2="616.6666666666666" y2="378" fill="rgb(0, 0, 0)" stroke="rgb(60, 60, 60)" stroke-width="1px" opacity="0.25"></line><line x1="693.75" y1="0" x2="693.75" y2="378" fill="rgb(0, 0, 0)" stroke="rgb(60, 60, 60)" stroke-width="1px" opacity="0.25"></line><line x1="770.8333333333334" y1="0" x2="770.8333333333334" y2="378" fill="rgb(0, 0, 0)" stroke="rgb(60, 60, 60)" stroke-width="1px" opacity="0.25"></line><line x1="847.9166666666666" y1="0" x2="847.9166666666666" y2="378" fill="rgb(0, 0, 0)" stroke="rgb(60, 60, 60)" stroke-width="1px" opacity="0.25"></line><line x1="925" y1="0" x2="925" y2="378" fill="rgb(0, 0, 0)" stroke="rgb(60, 60, 60)" stroke-width="1px" opacity="0.25"></line></g><g><line x1="0" y1="378" x2="925" y2="378" fill="rgb(0, 0, 0)" stroke="rgb(60, 60, 60)" stroke-width="1px" opacity="0.25"></line><line x1="0" y1="324" x2="925" y2="324" fill="rgb(0, 0, 0)" stroke="rgb(60, 60, 60)" stroke-width="1px" opacity="0.25"></line><line x1="0" y1="270" x2="925" y2="270" fill="rgb(0, 0, 0)" stroke="rgb(60, 60, 60)" stroke-width="1px" opacity="0.25"></line><line x1="0" y1="216" x2="925" y2="216" fill="rgb(0, 0, 0)" stroke="rgb(60, 60, 60)" stroke-width="1px" opacity="0.25"></line><line x1="0" y1="162" x2="925" y2="162" fill="rgb(0, 0, 0)" stroke="rgb(60, 60, 60)" stroke-width="1px" opacity="0.25"></line><line x1="0" y1="108" x2="925" y2="108" fill="rgb(0, 0, 0)" stroke="rgb(60, 60, 60)" stroke-width="1px" opacity="0.25"></line><line x1="0" y1="54" x2="925" y2="54" fill="rgb(0, 0, 0)" stroke="rgb(60, 60, 60)" stroke-width="1px" opacity="0.25"></line><line x1="0" y1="0" x2="925" y2="0" fill="rgb(0, 0, 0)" stroke="rgb(60, 60, 60)" stroke-width="1px" opacity="0.25"></line></g></g></g><g><g><line x1="0" y1="324" x2="925" y2="324" fill="rgb(0, 0, 0)" stroke="rgb(153, 153, 153)" stroke-width="1.5px"></line></g></g><g><g><line x1="77.08333333333333" y1="0" x2="77.08333333333333" y2="378" fill="rgb(0, 0, 0)" stroke="rgb(153, 153, 153)" stroke-width="1.5px"></line></g></g><g><g><g><g><g><path stroke="rgb(238, 51, 119)" stroke-width="2px" d="M77.08333333333333,106.7819595336914L92.5,119.38050717115402L107.91666666666667,131.39829163648645L123.33333333333333,140.82567822407273L138.75,148.42764784775207L154.16666666666666,155.03055873638064L169.58333333333331,161.1671397364442L185,165.95201171452882L200.41666666666669,169.2839977692387L215.83333333333334,171.59989348292106L231.25,175.18760617458676L246.66666666666666,177.66156966654395L262.0833333333333,179.90081245133223L277.5,180.7419709937389L292.91666666666663,182.02643075601105L308.3333333333333,184.60398471116397L323.75,186.10749643337303L339.16666666666663,186.93251473142698L354.58333333333337,188.77379473747206L370,188.24164157191137L385.4166666666667,188.67215426887444L400.83333333333337,189.09007727505013L416.25,190.1367521178151L431.6666666666667,190.4146690121258L447.0833333333333,189.93000272710918L462.5,189.7520319036637L477.91666666666674,191.42869812265423L493.3333333333333,191.3663409208706L508.75000000000006,192.333043052631L524.1666666666666,193.13127837773757L539.5833333333334,192.1167961813228L555,192.2442974226154L570.4166666666667,193.32927103314984L585.8333333333333,194.11830181638572L601.25,194.01005598573673L616.6666666666666,194.23888633885846L632.0833333333334,195.70882959225824L647.5,195.80749952268908L662.9166666666666,195.81572320148578L678.3333333333333,197.1269095085817L693.75,197.8988875957218L709.1666666666667,197.01734273462114L724.5833333333334,197.646857171411L740,196.48692621518225L755.4166666666666,198.53769730189336L770.8333333333334,198.35264882240867L786.25,198.54592385766142L801.6666666666667,196.34691676419348L817.0833333333333,196.19752555442471L832.5,196.00593427033638" style="fill: none;" fill="none"></path></g><g><path stroke="rgb(51, 187, 238)" stroke-width="2px" d="M77.08333333333333,91.00168704986572L92.5,99.72592055797577L107.91666666666667,107.64590190381415L123.33333333333333,116.51494518798944L138.75,124.816365268477L154.16666666666666,131.65085186283514L169.58333333333331,137.45915658668187L185,142.71115533076383L200.41666666666669,147.49691878430926L215.83333333333334,151.91633036644356L231.25,156.5871968668788L246.66666666666666,160.21840518662572L262.0833333333333,163.73141324280368L277.5,164.93309789387072L292.91666666666663,167.92847750702325L308.3333333333333,170.1901819075677L323.75,171.89584450388367L339.16666666666663,172.87450661553657L354.58333333333337,173.4880296621363L370,174.84340598724162L385.4166666666667,176.47122498501855L400.83333333333337,178.37496986440462L416.25,178.1754865535899L431.6666666666667,179.74223954920336L447.0833333333333,179.92945490326017L462.5,178.20078961444585L477.91666666666674,179.35748361952483L493.3333333333333,181.7014991337443L508.75000000000006,182.12143960537432L524.1666666666666,184.74688892555213L539.5833333333334,184.22004414360256L555,185.7309003170378L570.4166666666667,185.13285683494374L585.8333333333333,185.32610921758715L601.25,186.7238510175321L616.6666666666666,185.80047271037012L632.0833333333334,187.5802868797294L647.5,188.67795175685245L662.9166666666666,190.77887703871156L678.3333333333333,188.10064302262532L693.75,189.6203463708244L709.1666666666667,190.05832118024935L724.5833333333334,189.3418225419271L740,190.36855597345425L755.4166666666666,190.66748425396446L770.8333333333334,190.3489442648222L786.25,191.55975642099918L801.6666666666667,191.39609879430722L817.0833333333333,188.846049321716L832.5,190.22632370772584" style="fill: none;" fill="none"></path></g><g><path stroke="rgb(0, 153, 136)" stroke-width="2px" d="M77.08333333333333,125.90876626968384L92.5,142.48861598968503L107.91666666666667,154.61886356314838L123.33333333333333,164.09105600153703L138.75,171.6167568005596L154.16666666666666,177.51292285601642L169.58333333333331,181.9157308752654L185,185.7945249240149L200.41666666666669,189.1683238697148L215.83333333333334,191.94847173637297L231.25,194.3507738726768L246.66666666666666,196.22639712275176L262.0833333333333,197.6422802200136L277.5,199.3951522092866L292.91666666666663,200.35456894869216L308.3333333333333,200.44692422296964L323.75,200.7457382627359L339.16666666666663,201.13531459239368L354.58333333333337,201.15267189930225L370,203.18033160142525L385.4166666666667,203.7024343903335L400.83333333333337,204.69234558893396L416.25,203.330868632005L431.6666666666667,204.76762722264777L447.0833333333333,205.67388953328745L462.5,205.79990488067136L477.91666666666674,206.01697508721756L493.3333333333333,206.42943369581675L508.75000000000006,206.26014733773258L524.1666666666666,207.33239975113676L539.5833333333334,206.62110056108077L555,207.21492703887736L570.4166666666667,208.04086269587194L585.8333333333333,207.75681531598892L601.25,206.93291836854522L616.6666666666666,206.47396476913985L632.0833333333334,206.7310089595102L647.5,207.93784244073422L662.9166666666666,208.37964367495852L678.3333333333333,209.5482177250919L693.75,210.0192002963826L709.1666666666667,209.1545339408412L724.5833333333334,208.9142890442449L740,209.9586791319891L755.4166666666666,209.60114246145608L770.8333333333334,209.01372044998155L786.25,208.9274316413236L801.6666666666667,207.57698167458318L817.0833333333333,207.42686985191588L832.5,207.8161963358963" style="fill: none;" fill="none"></path></g><g><path stroke="rgb(0, 119, 187)" stroke-width="2px" d="M77.08333333333333,68.78267097473145L92.5,73.00821232795715L107.91666666666667,75.33374994628281L123.33333333333333,79.12351398257647L138.75,82.70055508001406L154.16666666666666,86.89541032042848L169.58333333333331,90.1536592514264L185,91.69359965295399L200.41666666666669,93.72272125704995L215.83333333333334,94.38500442322601L231.25,98.28924557131461L246.66666666666666,100.49362671503087L262.0833333333333,102.03381995249725L277.5,104.82423322554189L292.91666666666663,107.21812491887516L308.3333333333333,109.37297341257818L323.75,110.42587190554025L339.16666666666663,111.45531107324837L354.58333333333337,113.89282827946147L370,115.57407859676437L385.4166666666667,117.577405266619L400.83333333333337,120.39431768477277L416.25,122.56085183837547L431.6666666666667,123.35360260504723L447.0833333333333,123.32252543494118L462.5,124.75150205064955L477.91666666666674,126.88402452201473L493.3333333333333,127.33902075891575L508.75000000000006,128.8416154854918L524.1666666666666,126.82751141805068L539.5833333333334,128.48221206451873L555,130.58593556806568L570.4166666666667,132.69187840459813L585.8333333333333,131.33105393705821L601.25,129.25637578054926L616.6666666666666,129.77536382664894L632.0833333333334,132.5972064573737L647.5,135.29371225876548L662.9166666666666,135.81217610977134L678.3333333333333,137.17480566768424L693.75,135.4249403144903L709.1666666666667,136.9655406283394L724.5833333333334,136.7244711283378L740,136.78711054108825L755.4166666666666,136.96189626088935L770.8333333333334,137.5939569475521L786.25,137.3441505433388L801.6666666666667,138.0344890595393L817.0833333333333,137.69603256230593L832.5,138.92545397190275" style="fill: none;" fill="none"></path></g><g><path stroke="rgb(204, 51, 17)" stroke-width="2px" d="M77.08333333333333,117.52490186691284L92.5,141.54077643156052L107.91666666666667,164.92705235189322L123.33333333333333,178.26146191709182L138.75,191.01926854647834L154.16666666666666,201.74592463683365L169.58333333333331,204.2017457432641L185,215.10345157413033L200.41666666666669,218.20893763411954L215.83333333333334,224.41491564943072L231.25,229.8848383433871L246.66666666666666,231.15548346092777L262.0833333333333,233.7465046621404L277.5,235.11302108840476L292.91666666666663,238.9133811872846L308.3333333333333,239.73539163395927L323.75,240.79914847927327L339.16666666666663,241.57493082535674L354.58333333333337,239.4180221378711L370,242.4183312543819L385.4166666666667,245.53279467455712L400.83333333333337,246.23175847241885L416.25,247.47065733185707L431.6666666666667,249.6349155833028L447.0833333333333,250.1577566187519L462.5,249.53826110313415L477.91666666666674,250.59397319573026L493.3333333333333,251.38734877918776L508.75000000000006,252.73157558387726L524.1666666666666,253.155408533014L539.5833333333334,253.60105577157236L555,253.15505452806417L570.4166666666667,253.5318612031545L585.8333333333333,254.08190627317464L601.25,254.64925859604566L616.6666666666666,255.04357594797995L632.0833333333334,255.54927904054554L647.5,256.11678733228786L662.9166666666666,255.3698930115698L678.3333333333333,255.5487496003633L693.75,254.96744994743486L709.1666666666667,253.68903882694605L724.5833333333334,254.1211842025119L740,255.21108675765788L755.4166666666666,255.94352217185838L770.8333333333334,256.27444021506193L786.25,255.8366998231431L801.6666666666667,257.181287586482L817.0833333333333,256.80929306732605L832.5,257.77619893305484" style="fill: none;" fill="none"></path></g></g></g></g><g opacity="0.2"><g><g><g><path stroke="rgb(238, 51, 119)" stroke-width="2px" d="M77.08333333333333,106.7819595336914L92.5,126.93963575363159L107.91666666666667,142.93536472320557L123.33333333333333,151.91228485107422L138.75,158.35277938842773L154.16666666666666,164.16476154327393L169.58333333333331,169.94254875183103L185,172.92840099334717L200.41666666666669,174.19802999496457L215.83333333333334,175.03872871398926L231.25,180.5366349220276L246.66666666666666,181.3590517044067L262.0833333333333,183.2523651123047L277.5,182.00206089019775L292.91666666666663,183.95161056518555L308.3333333333333,188.4684977531433L323.75,188.3621277809143L339.16666666666663,188.16983270645142L354.58333333333337,191.53543424606323L370,187.44346046447754L385.4166666666667,189.3178997039795L400.83333333333337,189.71694803237915L416.25,191.7067437171936L431.6666666666667,190.83154106140137L447.0833333333333,189.20300674438477L462.5,189.48507642745972L477.91666666666674,193.94369316101074L493.3333333333333,191.27280521392822L508.75000000000006,193.78309535980225L524.1666666666666,194.32863092422485L539.5833333333334,190.595073223114L555,192.4355492591858L570.4166666666667,194.9567313194275L585.8333333333333,195.3018479347229L601.25,193.84768724441528L616.6666666666666,194.58213186264038L632.0833333333334,197.91374444961548L647.5,195.95550441741943L662.9166666666666,195.828058719635L678.3333333333333,199.09368896484375L693.75,199.05685472488403L709.1666666666667,195.69502544403076L724.5833333333334,198.59112882614136L740,194.74702978134155L755.4166666666666,201.613853931427L770.8333333333334,198.07507610321045L786.25,198.83583641052246L801.6666666666667,193.048406124115L817.0833333333333,195.9734387397766L832.5,195.71854734420776" style="fill: none;" fill="none"></path></g><g><path stroke="rgb(51, 187, 238)" stroke-width="2px" d="M77.08333333333333,91.00168704986572L92.5,104.9604606628418L107.91666666666667,115.24908399581909L123.33333333333333,126.94494009017944L138.75,135.65469932556155L154.16666666666666,141.1054072380066L169.58333333333331,145.7651252746582L185,150.36861991882324L200.41666666666669,154.55499029159543L215.83333333333334,158.47864151000974L231.25,163.55113220214847L246.66666666666666,165.64545679092407L262.0833333333333,168.98945474624634L277.5,166.7332706451416L292.91666666666663,172.41802597045896L308.3333333333333,173.5811433792114L323.75,174.45361661911008L339.16666666666663,174.34225130081177L354.58333333333337,174.40822076797485L370,176.87634658813477L385.4166666666667,178.9128642082214L400.83333333333337,181.2305245399475L416.25,177.87626552581787L431.6666666666667,182.09235048294067L447.0833333333333,180.21027660369873L462.5,175.60779905319214L477.91666666666674,181.0925216674805L493.3333333333333,185.21751880645752L508.75000000000006,182.75134992599484L524.1666666666666,188.68506145477295L539.5833333333334,183.42977714538574L555,187.99718427658078L570.4166666666667,184.23579168319702L585.8333333333333,185.61598777770996L601.25,188.82046365737915L616.6666666666666,184.4154052734375L632.0833333333334,190.2500081062317L647.5,190.3244490623474L662.9166666666666,193.93026494979858L678.3333333333333,184.0832920074463L693.75,191.89990139007568L709.1666666666667,190.71528339385986L724.5833333333334,188.26707458496094L740,191.9086561203003L755.4166666666666,191.1158766746521L770.8333333333334,189.87113428115845L786.25,193.37597465515137L801.6666666666667,191.15061235427856L817.0833333333333,185.02097511291504L832.5,192.29673528671265" style="fill: none;" fill="none"></path></g><g><path stroke="rgb(0, 153, 136)" stroke-width="2px" d="M77.08333333333333,125.90876626968384L92.5,152.4365258216858L107.91666666666667,166.26390123367312L123.33333333333333,175.23035430908203L138.75,181.44231176376343L154.16666666666666,185.66944313049316L169.58333333333331,188.21181678771975L185,191.4498438835144L200.41666666666669,194.14402198791504L215.83333333333334,196.07666730880737L231.25,197.93243837356567L246.66666666666666,199.02962493896484L262.0833333333333,199.76148176193237L277.5,202.02102613449097L292.91666666666663,201.79256629943848L308.3333333333333,200.58539199829102L323.75,201.1938328742981L339.16666666666663,201.71958017349243L354.58333333333337,201.1787052154541L370,206.22163581848145L385.4166666666667,204.48555994033813L400.83333333333337,206.177179813385L416.25,201.28868007659912L431.6666666666667,206.92274808883667L447.0833333333333,207.03327655792236L462.5,205.98892736434937L477.91666666666674,206.34257984161377L493.3333333333333,207.04812097549438L508.75000000000006,206.00621795654297L524.1666666666666,208.9407777786255L539.5833333333334,205.55415201187134L555,208.10566663742065L570.4166666666667,209.27976608276367L585.8333333333333,207.33074426651L601.25,205.6970729827881L616.6666666666666,205.78553438186646L632.0833333333334,207.11657524108887L647.5,209.7480926513672L662.9166666666666,209.04234552383423L678.3333333333333,211.30107879638672L693.75,210.72567415237427L709.1666666666667,207.85753440856934L724.5833333333334,208.55392169952393L740,211.52526426315308L755.4166666666666,209.0648374557495L770.8333333333334,208.13258743286133L786.25,208.79799842834473L801.6666666666667,205.55130672454834L817.0833333333333,207.20170211791992L832.5,208.40018606185913" style="fill: none;" fill="none"></path></g><g><path stroke="rgb(0, 119, 187)" stroke-width="2px" d="M77.08333333333333,68.78267097473145L92.5,75.54353713989258L107.91666666666667,77.56626605987549L123.33333333333333,83.58027648925781L138.75,87.37073993682861L154.16666666666666,92.6984052658081L169.58333333333331,94.81300735473633L185,93.93884754180908L200.41666666666669,96.71528148651123L215.83333333333334,95.36841773986816L231.25,104.11019611358643L246.66666666666666,103.7882022857666L262.0833333333333,104.33908081054688L277.5,109.00438642501831L292.91666666666663,110.80614852905273L308.3333333333333,112.60372638702393L323.75,112.00477409362793L339.16666666666663,112.99920845031738L354.58333333333337,117.54873275756836L370,118.09580039978027L385.4166666666667,120.58228540420532L400.83333333333337,124.61959362030032L416.25,125.81061029434204L431.6666666666667,124.54271936416629L447.0833333333333,123.27590990066525L462.5,126.89496088027954L477.91666666666674,130.082802772522L493.3333333333333,128.02151441574097L508.75000000000006,131.0955061912537L524.1666666666666,123.80635643005371L539.5833333333334,130.96426248550415L555,133.74152040481567L570.4166666666667,135.8507924079895L585.8333333333333,129.28981733322146L601.25,126.14435863494873L616.6666666666666,130.55384588241577L632.0833333333334,136.82997035980225L647.5,139.33847093582153L662.9166666666666,136.58987188339233L678.3333333333333,139.21875L693.75,132.800142288208L709.1666666666667,139.27644109725955L724.5833333333334,136.36286687850952L740,136.88106966018677L755.4166666666666,137.22407484054565L770.8333333333334,138.5420479774475L786.25,136.9694409370422L801.6666666666667,139.06999683380127L817.0833333333333,137.18834781646726L832.5,140.76958608627322" style="fill: none;" fill="none"></path></g><g><path stroke="rgb(204, 51, 17)" stroke-width="2px" d="M77.08333333333333,117.52490186691284L92.5,155.95030117034912L107.91666666666667,187.3778772354126L123.33333333333333,193.94272756576538L138.75,207.67586088180542L154.16666666666666,216.58475160598755L169.58333333333331,207.7136092185974L185,230.99824333190918L200.41666666666669,222.78892636299133L215.83333333333334,233.63006973266602L231.25,238.04011058807373L246.66666666666666,233.05453634262085L262.0833333333333,237.62457633018494L277.5,237.1601185798645L292.91666666666663,244.60945415496826L308.3333333333333,240.96782755851746L323.75,242.39433360099792L339.16666666666663,242.73840737342834L354.58333333333337,236.18298768997192L370,246.91852068901062L385.4166666666667,250.20431900024414L400.83333333333337,247.2801811695099L416.25,249.32898116111755L431.6666666666667,252.88127732276917L447.0833333333333,250.9420144557953L462.5,248.60902047157288L477.91666666666674,252.17753863334656L493.3333333333333,252.5774109363556L508.75000000000006,254.7479145526886L524.1666666666666,253.79115772247314L539.5833333333334,254.26952648162842L555,252.48605275154114L570.4166666666667,254.09707117080688L585.8333333333333,254.90697383880615L601.25,255.50028705596924L616.6666666666666,255.6350519657135L632.0833333333334,256.3078336715698L647.5,256.9680497646332L662.9166666666666,254.2495515346527L678.3333333333333,255.81703448295593L693.75,254.09550046920776L709.1666666666667,251.77142214775085L724.5833333333334,254.7694022655487L740,256.8459405899048L755.4166666666666,257.04217529296875L770.8333333333334,256.7708172798157L786.25,255.1800892353058L801.6666666666667,259.1981692314148L817.0833333333333,256.25130128860474L832.5,259.2265577316284" style="fill: none;" fill="none"></path></g></g></g></g></g></g><g transform="translate(50, 378)" clip-path="url(#clip_1)"><clipPath id="clip_1"><rect width="925" height="22"></rect></clipPath><g><g><line x1="0" y1="0" x2="0" y2="5" style="visibility: inherit;" fill="rgb(0, 0, 0)" stroke="rgb(204, 204, 204)" stroke-width="1px"></line><line x1="77.08333333333333" y1="0" x2="77.08333333333333" y2="5" style="visibility: inherit;" fill="rgb(0, 0, 0)" stroke="rgb(204, 204, 204)" stroke-width="1px"></line><line x1="154.16666666666666" y1="0" x2="154.16666666666666" y2="5" style="visibility: inherit;" fill="rgb(0, 0, 0)" stroke="rgb(204, 204, 204)" stroke-width="1px"></line><line x1="231.25" y1="0" x2="231.25" y2="5" style="visibility: inherit;" fill="rgb(0, 0, 0)" stroke="rgb(204, 204, 204)" stroke-width="1px"></line><line x1="308.3333333333333" y1="0" x2="308.3333333333333" y2="5" style="visibility: inherit;" fill="rgb(0, 0, 0)" stroke="rgb(204, 204, 204)" stroke-width="1px"></line><line x1="385.4166666666667" y1="0" x2="385.4166666666667" y2="5" style="visibility: inherit;" fill="rgb(0, 0, 0)" stroke="rgb(204, 204, 204)" stroke-width="1px"></line><line x1="462.5" y1="0" x2="462.5" y2="5" style="visibility: inherit;" fill="rgb(0, 0, 0)" stroke="rgb(204, 204, 204)" stroke-width="1px"></line><line x1="539.5833333333334" y1="0" x2="539.5833333333334" y2="5" style="visibility: inherit;" fill="rgb(0, 0, 0)" stroke="rgb(204, 204, 204)" stroke-width="1px"></line><line x1="616.6666666666666" y1="0" x2="616.6666666666666" y2="5" style="visibility: inherit;" fill="rgb(0, 0, 0)" stroke="rgb(204, 204, 204)" stroke-width="1px"></line><line x1="693.75" y1="0" x2="693.75" y2="5" style="visibility: inherit;" fill="rgb(0, 0, 0)" stroke="rgb(204, 204, 204)" stroke-width="1px"></line><line x1="770.8333333333334" y1="0" x2="770.8333333333334" y2="5" style="visibility: inherit;" fill="rgb(0, 0, 0)" stroke="rgb(204, 204, 204)" stroke-width="1px"></line><line x1="847.9166666666666" y1="0" x2="847.9166666666666" y2="5" style="visibility: inherit;" fill="rgb(0, 0, 0)" stroke="rgb(204, 204, 204)" stroke-width="1px"></line><line x1="925" y1="0" x2="925" y2="5" style="visibility: inherit;" fill="rgb(0, 0, 0)" stroke="rgb(204, 204, 204)" stroke-width="1px"></line></g><g transform="translate(0, 8)"><text x="0" y="0" dx="0em" dy="0.95em" style="text-anchor: middle; visibility: hidden; font-family: &quot;Helvetica Neue&quot;, sans-serif; font-size: 12px; font-weight: 200;" fill="rgb(50, 49, 63)" stroke="none" stroke-width="1px">-5</text><text x="77.08333333333333" y="0" dx="0em" dy="0.95em" style="text-anchor: middle; visibility: inherit; font-family: &quot;Helvetica Neue&quot;, sans-serif; font-size: 12px; font-weight: 200;" fill="rgb(50, 49, 63)" stroke="none" stroke-width="1px">0</text><text x="154.16666666666666" y="0" dx="0em" dy="0.95em" style="text-anchor: middle; visibility: inherit; font-family: &quot;Helvetica Neue&quot;, sans-serif; font-size: 12px; font-weight: 200;" fill="rgb(50, 49, 63)" stroke="none" stroke-width="1px">5</text><text x="231.25" y="0" dx="0em" dy="0.95em" style="text-anchor: middle; visibility: inherit; font-family: &quot;Helvetica Neue&quot;, sans-serif; font-size: 12px; font-weight: 200;" fill="rgb(50, 49, 63)" stroke="none" stroke-width="1px">10</text><text x="308.3333333333333" y="0" dx="0em" dy="0.95em" style="text-anchor: middle; visibility: inherit; font-family: &quot;Helvetica Neue&quot;, sans-serif; font-size: 12px; font-weight: 200;" fill="rgb(50, 49, 63)" stroke="none" stroke-width="1px">15</text><text x="385.4166666666667" y="0" dx="0em" dy="0.95em" style="text-anchor: middle; visibility: inherit; font-family: &quot;Helvetica Neue&quot;, sans-serif; font-size: 12px; font-weight: 200;" fill="rgb(50, 49, 63)" stroke="none" stroke-width="1px">20</text><text x="462.5" y="0" dx="0em" dy="0.95em" style="text-anchor: middle; visibility: inherit; font-family: &quot;Helvetica Neue&quot;, sans-serif; font-size: 12px; font-weight: 200;" fill="rgb(50, 49, 63)" stroke="none" stroke-width="1px">25</text><text x="539.5833333333334" y="0" dx="0em" dy="0.95em" style="text-anchor: middle; visibility: inherit; font-family: &quot;Helvetica Neue&quot;, sans-serif; font-size: 12px; font-weight: 200;" fill="rgb(50, 49, 63)" stroke="none" stroke-width="1px">30</text><text x="616.6666666666666" y="0" dx="0em" dy="0.95em" style="text-anchor: middle; visibility: inherit; font-family: &quot;Helvetica Neue&quot;, sans-serif; font-size: 12px; font-weight: 200;" fill="rgb(50, 49, 63)" stroke="none" stroke-width="1px">35</text><text x="693.75" y="0" dx="0em" dy="0.95em" style="text-anchor: middle; visibility: inherit; font-family: &quot;Helvetica Neue&quot;, sans-serif; font-size: 12px; font-weight: 200;" fill="rgb(50, 49, 63)" stroke="none" stroke-width="1px">40</text><text x="770.8333333333334" y="0" dx="0em" dy="0.95em" style="text-anchor: middle; visibility: inherit; font-family: &quot;Helvetica Neue&quot;, sans-serif; font-size: 12px; font-weight: 200;" fill="rgb(50, 49, 63)" stroke="none" stroke-width="1px">45</text><text x="847.9166666666666" y="0" dx="0em" dy="0.95em" style="text-anchor: middle; visibility: inherit; font-family: &quot;Helvetica Neue&quot;, sans-serif; font-size: 12px; font-weight: 200;" fill="rgb(50, 49, 63)" stroke="none" stroke-width="1px">50</text><text x="925" y="0" dx="0em" dy="0.95em" style="text-anchor: middle; visibility: hidden; font-family: &quot;Helvetica Neue&quot;, sans-serif; font-size: 12px; font-weight: 200;" fill="rgb(50, 49, 63)" stroke="none" stroke-width="1px">55</text></g><line x1="0" y1="0" x2="925" y2="0" fill="rgb(0, 0, 0)" stroke="rgb(204, 204, 204)" stroke-width="1px"></line></g></g></g></g></svg>