<svg viewBox="0 0 975 400" xmlns="http://www.w3.org/2000/svg"><g><g><g><g><g><line x1="50" y1="378" x2="45" y2="378" style="visibility: inherit;" fill="rgb(0, 0, 0)" stroke="rgb(204, 204, 204)" stroke-width="1px"></line><line x1="50" y1="352.8" x2="45" y2="352.8" style="visibility: inherit;" fill="rgb(0, 0, 0)" stroke="rgb(204, 204, 204)" stroke-width="1px"></line><line x1="50" y1="327.6" x2="45" y2="327.6" style="visibility: inherit;" fill="rgb(0, 0, 0)" stroke="rgb(204, 204, 204)" stroke-width="1px"></line><line x1="50" y1="302.4" x2="45" y2="302.4" style="visibility: inherit;" fill="rgb(0, 0, 0)" stroke="rgb(204, 204, 204)" stroke-width="1px"></line><line x1="50" y1="277.2" x2="45" y2="277.2" style="visibility: inherit;" fill="rgb(0, 0, 0)" stroke="rgb(204, 204, 204)" stroke-width="1px"></line><line x1="50" y1="252" x2="45" y2="252" style="visibility: inherit;" fill="rgb(0, 0, 0)" stroke="rgb(204, 204, 204)" stroke-width="1px"></line><line x1="50" y1="226.79999999999998" x2="45" y2="226.79999999999998" style="visibility: inherit;" fill="rgb(0, 0, 0)" stroke="rgb(204, 204, 204)" stroke-width="1px"></line><line x1="50" y1="201.60000000000002" x2="45" y2="201.60000000000002" style="visibility: inherit;" fill="rgb(0, 0, 0)" stroke="rgb(204, 204, 204)" stroke-width="1px"></line><line x1="50" y1="176.4" x2="45" y2="176.4" style="visibility: inherit;" fill="rgb(0, 0, 0)" stroke="rgb(204, 204, 204)" stroke-width="1px"></line><line x1="50" y1="151.20000000000002" x2="45" y2="151.20000000000002" style="visibility: inherit;" fill="rgb(0, 0, 0)" stroke="rgb(204, 204, 204)" stroke-width="1px"></line><line x1="50" y1="126" x2="45" y2="126" style="visibility: inherit;" fill="rgb(0, 0, 0)" stroke="rgb(204, 204, 204)" stroke-width="1px"></line><line x1="50" y1="100.79999999999995" x2="45" y2="100.79999999999995" style="visibility: inherit;" fill="rgb(0, 0, 0)" stroke="rgb(204, 204, 204)" stroke-width="1px"></line><line x1="50" y1="75.60000000000002" x2="45" y2="75.60000000000002" style="visibility: inherit;" fill="rgb(0, 0, 0)" stroke="rgb(204, 204, 204)" stroke-width="1px"></line><line x1="50" y1="50.39999999999998" x2="45" y2="50.39999999999998" style="visibility: inherit;" fill="rgb(0, 0, 0)" stroke="rgb(204, 204, 204)" stroke-width="1px"></line><line x1="50" y1="25.200000000000045" x2="45" y2="25.200000000000045" style="visibility: inherit;" fill="rgb(0, 0, 0)" stroke="rgb(204, 204, 204)" stroke-width="1px"></line><line x1="50" y1="0" x2="45" y2="0" style="visibility: inherit;" fill="rgb(0, 0, 0)" stroke="rgb(204, 204, 204)" stroke-width="1px"></line></g><g transform="translate(40, 0)"><text x="0" y="378" dx="0em" dy="0.3em" style="text-anchor: end; visibility: hidden; font-family: &quot;Helvetica Neue&quot;, sans-serif; font-size: 12px; font-weight: 200;" fill="rgb(50, 49, 63)" stroke="none" stroke-width="1px">-0.4</text><text x="0" y="352.8" dx="0em" dy="0.3em" style="text-anchor: end; visibility: inherit; font-family: &quot;Helvetica Neue&quot;, sans-serif; font-size: 12px; font-weight: 200;" fill="rgb(50, 49, 63)" stroke="none" stroke-width="1px">-0.2</text><text x="0" y="327.6" dx="0em" dy="0.3em" style="text-anchor: end; visibility: inherit; font-family: &quot;Helvetica Neue&quot;, sans-serif; font-size: 12px; font-weight: 200;" fill="rgb(50, 49, 63)" stroke="none" stroke-width="1px">0</text><text x="0" y="302.4" dx="0em" dy="0.3em" style="text-anchor: end; visibility: inherit; font-family: &quot;Helvetica Neue&quot;, sans-serif; font-size: 12px; font-weight: 200;" fill="rgb(50, 49, 63)" stroke="none" stroke-width="1px">0.2</text><text x="0" y="277.2" dx="0em" dy="0.3em" style="text-anchor: end; visibility: inherit; font-family: &quot;Helvetica Neue&quot;, sans-serif; font-size: 12px; font-weight: 200;" fill="rgb(50, 49, 63)" stroke="none" stroke-width="1px">0.4</text><text x="0" y="252" dx="0em" dy="0.3em" style="text-anchor: end; visibility: inherit; font-family: &quot;Helvetica Neue&quot;, sans-serif; font-size: 12px; font-weight: 200;" fill="rgb(50, 49, 63)" stroke="none" stroke-width="1px">0.6</text><text x="0" y="226.79999999999998" dx="0em" dy="0.3em" style="text-anchor: end; visibility: inherit; font-family: &quot;Helvetica Neue&quot;, sans-serif; font-size: 12px; font-weight: 200;" fill="rgb(50, 49, 63)" stroke="none" stroke-width="1px">0.8</text><text x="0" y="201.60000000000002" dx="0em" dy="0.3em" style="text-anchor: end; visibility: inherit; font-family: &quot;Helvetica Neue&quot;, sans-serif; font-size: 12px; font-weight: 200;" fill="rgb(50, 49, 63)" stroke="none" stroke-width="1px">1</text><text x="0" y="176.4" dx="0em" dy="0.3em" style="text-anchor: end; visibility: inherit; font-family: &quot;Helvetica Neue&quot;, sans-serif; font-size: 12px; font-weight: 200;" fill="rgb(50, 49, 63)" stroke="none" stroke-width="1px">1.2</text><text x="0" y="151.20000000000002" dx="0em" dy="0.3em" style="text-anchor: end; visibility: inherit; font-family: &quot;Helvetica Neue&quot;, sans-serif; font-size: 12px; font-weight: 200;" fill="rgb(50, 49, 63)" stroke="none" stroke-width="1px">1.4</text><text x="0" y="126" dx="0em" dy="0.3em" style="text-anchor: end; visibility: inherit; font-family: &quot;Helvetica Neue&quot;, sans-serif; font-size: 12px; font-weight: 200;" fill="rgb(50, 49, 63)" stroke="none" stroke-width="1px">1.6</text><text x="0" y="100.79999999999995" dx="0em" dy="0.3em" style="text-anchor: end; visibility: inherit; font-family: &quot;Helvetica Neue&quot;, sans-serif; font-size: 12px; font-weight: 200;" fill="rgb(50, 49, 63)" stroke="none" stroke-width="1px">1.8</text><text x="0" y="75.60000000000002" dx="0em" dy="0.3em" style="text-anchor: end; visibility: inherit; font-family: &quot;Helvetica Neue&quot;, sans-serif; font-size: 12px; font-weight: 200;" fill="rgb(50, 49, 63)" stroke="none" stroke-width="1px">2</text><text x="0" y="50.39999999999998" dx="0em" dy="0.3em" style="text-anchor: end; visibility: inherit; font-family: &quot;Helvetica Neue&quot;, sans-serif; font-size: 12px; font-weight: 200;" fill="rgb(50, 49, 63)" stroke="none" stroke-width="1px">2.2</text><text x="0" y="25.200000000000045" dx="0em" dy="0.3em" style="text-anchor: end; visibility: inherit; font-family: &quot;Helvetica Neue&quot;, sans-serif; font-size: 12px; font-weight: 200;" fill="rgb(50, 49, 63)" stroke="none" stroke-width="1px">2.4</text><text x="0" y="0" dx="0em" dy="0.3em" style="text-anchor: end; visibility: hidden; font-family: &quot;Helvetica Neue&quot;, sans-serif; font-size: 12px; font-weight: 200;" fill="rgb(50, 49, 63)" stroke="none" stroke-width="1px">2.6</text></g><line x1="50" y1="0" x2="50" y2="378" fill="rgb(0, 0, 0)" stroke="rgb(204, 204, 204)" stroke-width="1px"></line></g></g><g transform="translate(50, 0)" clip-path="url(#clip_0)"><clipPath id="clip_0"><rect width="925" height="378"></rect></clipPath><g><g><g><line x1="0" y1="0" x2="0" y2="378" fill="rgb(0, 0, 0)" stroke="rgb(60, 60, 60)" stroke-width="1px" opacity="0.25"></line><line x1="77.08333333333333" y1="0" x2="77.08333333333333" y2="378" fill="rgb(0, 0, 0)" stroke="rgb(60, 60, 60)" stroke-width="1px" opacity="0.25"></line><line x1="154.16666666666666" y1="0" x2="154.16666666666666" y2="378" fill="rgb(0, 0, 0)" stroke="rgb(60, 60, 60)" stroke-width="1px" opacity="0.25"></line><line x1="231.25" y1="0" x2="231.25" y2="378" fill="rgb(0, 0, 0)" stroke="rgb(60, 60, 60)" stroke-width="1px" opacity="0.25"></line><line x1="308.3333333333333" y1="0" x2="308.3333333333333" y2="378" fill="rgb(0, 0, 0)" stroke="rgb(60, 60, 60)" stroke-width="1px" opacity="0.25"></line><line x1="385.4166666666667" y1="0" x2="385.4166666666667" y2="378" fill="rgb(0, 0, 0)" stroke="rgb(60, 60, 60)" stroke-width="1px" opacity="0.25"></line><line x1="462.5" y1="0" x2="462.5" y2="378" fill="rgb(0, 0, 0)" stroke="rgb(60, 60, 60)" stroke-width="1px" opacity="0.25"></line><line x1="539.5833333333334" y1="0" x2="539.5833333333334" y2="378" fill="rgb(0, 0, 0)" stroke="rgb(60, 60, 60)" stroke-width="1px" opacity="0.25"></line><line x1="616.6666666666666" y1="0" x2="616.6666666666666" y2="378" fill="rgb(0, 0, 0)" stroke="rgb(60, 60, 60)" stroke-width="1px" opacity="0.25"></line><line x1="693.75" y1="0" x2="693.75" y2="378" fill="rgb(0, 0, 0)" stroke="rgb(60, 60, 60)" stroke-width="1px" opacity="0.25"></line><line x1="770.8333333333334" y1="0" x2="770.8333333333334" y2="378" fill="rgb(0, 0, 0)" stroke="rgb(60, 60, 60)" stroke-width="1px" opacity="0.25"></line><line x1="847.9166666666666" y1="0" x2="847.9166666666666" y2="378" fill="rgb(0, 0, 0)" stroke="rgb(60, 60, 60)" stroke-width="1px" opacity="0.25"></line><line x1="925" y1="0" x2="925" y2="378" fill="rgb(0, 0, 0)" stroke="rgb(60, 60, 60)" stroke-width="1px" opacity="0.25"></line></g><g><line x1="0" y1="378" x2="925" y2="378" fill="rgb(0, 0, 0)" stroke="rgb(60, 60, 60)" stroke-width="1px" opacity="0.25"></line><line x1="0" y1="352.8" x2="925" y2="352.8" fill="rgb(0, 0, 0)" stroke="rgb(60, 60, 60)" stroke-width="1px" opacity="0.25"></line><line x1="0" y1="327.6" x2="925" y2="327.6" fill="rgb(0, 0, 0)" stroke="rgb(60, 60, 60)" stroke-width="1px" opacity="0.25"></line><line x1="0" y1="302.4" x2="925" y2="302.4" fill="rgb(0, 0, 0)" stroke="rgb(60, 60, 60)" stroke-width="1px" opacity="0.25"></line><line x1="0" y1="277.2" x2="925" y2="277.2" fill="rgb(0, 0, 0)" stroke="rgb(60, 60, 60)" stroke-width="1px" opacity="0.25"></line><line x1="0" y1="252" x2="925" y2="252" fill="rgb(0, 0, 0)" stroke="rgb(60, 60, 60)" stroke-width="1px" opacity="0.25"></line><line x1="0" y1="226.79999999999998" x2="925" y2="226.79999999999998" fill="rgb(0, 0, 0)" stroke="rgb(60, 60, 60)" stroke-width="1px" opacity="0.25"></line><line x1="0" y1="201.60000000000002" x2="925" y2="201.60000000000002" fill="rgb(0, 0, 0)" stroke="rgb(60, 60, 60)" stroke-width="1px" opacity="0.25"></line><line x1="0" y1="176.4" x2="925" y2="176.4" fill="rgb(0, 0, 0)" stroke="rgb(60, 60, 60)" stroke-width="1px" opacity="0.25"></line><line x1="0" y1="151.20000000000002" x2="925" y2="151.20000000000002" fill="rgb(0, 0, 0)" stroke="rgb(60, 60, 60)" stroke-width="1px" opacity="0.25"></line><line x1="0" y1="126" x2="925" y2="126" fill="rgb(0, 0, 0)" stroke="rgb(60, 60, 60)" stroke-width="1px" opacity="0.25"></line><line x1="0" y1="100.79999999999995" x2="925" y2="100.79999999999995" fill="rgb(0, 0, 0)" stroke="rgb(60, 60, 60)" stroke-width="1px" opacity="0.25"></line><line x1="0" y1="75.60000000000002" x2="925" y2="75.60000000000002" fill="rgb(0, 0, 0)" stroke="rgb(60, 60, 60)" stroke-width="1px" opacity="0.25"></line><line x1="0" y1="50.39999999999998" x2="925" y2="50.39999999999998" fill="rgb(0, 0, 0)" stroke="rgb(60, 60, 60)" stroke-width="1px" opacity="0.25"></line><line x1="0" y1="25.200000000000045" x2="925" y2="25.200000000000045" fill="rgb(0, 0, 0)" stroke="rgb(60, 60, 60)" stroke-width="1px" opacity="0.25"></line><line x1="0" y1="0" x2="925" y2="0" fill="rgb(0, 0, 0)" stroke="rgb(60, 60, 60)" stroke-width="1px" opacity="0.25"></line></g></g></g><g><g><line x1="0" y1="327.6" x2="925" y2="327.6" fill="rgb(0, 0, 0)" stroke="rgb(153, 153, 153)" stroke-width="1.5px"></line></g></g><g><g><line x1="77.08333333333333" y1="0" x2="77.08333333333333" y2="378" fill="rgb(0, 0, 0)" stroke="rgb(153, 153, 153)" stroke-width="1.5px"></line></g></g><g><g><g><g><g><path stroke="rgb(204, 51, 17)" stroke-width="2px" d="M77.08333333333333,99.23248014450076L92.5,111.91625363230708L107.91666666666667,121.73814190455846L123.33333333333333,132.25619324410664L138.75,141.4674725099705L154.16666666666666,149.5000420438168L169.58333333333331,157.10806323148051L185,164.1600597998241L200.41666666666669,168.9706030622956L215.83333333333334,175.38046155546905L231.25,180.78286733732944L246.66666666666666,184.437460392639L262.0833333333333,189.43406337173747L277.5,192.8954293555615L292.91666666666663,196.28513029615323L308.3333333333333,199.88236196104828L323.75,200.58878986215962L339.16666666666663,204.88878408605544L354.58333333333337,207.8777560429035L370,209.1452363819316L385.4166666666667,211.66456181677486L400.83333333333337,213.03896889865942L416.25,215.18223829209728L431.6666666666667,216.3973797293845L447.0833333333333,218.8546615827107L462.5,219.52183013687315L477.91666666666674,220.40210396697765L493.3333333333333,220.6661553398091L508.75000000000006,222.80188638315877L524.1666666666666,223.4753658635954L539.5833333333334,223.8623392441697L555,226.1276537134391L570.4166666666667,227.2790174196095L585.8333333333333,226.89087730427727L601.25,228.54727950666788L616.6666666666666,230.20855698734067L632.0833333333334,231.25990749145234L647.5,232.96152901771512L662.9166666666666,232.8204209236509L678.3333333333333,233.62453241862298L693.75,234.47942940135286L709.1666666666667,233.72204979704816L724.5833333333334,233.99071168220053L740,235.23105033488307L755.4166666666666,236.6586773793467L770.8333333333334,237.1996936464986L786.25,237.4717471304447L801.6666666666667,238.54883658548093L817.0833333333333,238.38321219718173L832.5,237.46570201655905" style="fill: none;" fill="none"></path></g><g><path stroke="rgb(0, 153, 136)" stroke-width="2px" d="M77.08333333333333,84.95914778709414L92.5,110.24542517066004L107.91666666666667,132.38249604361397L123.33333333333333,151.00695556998252L138.75,166.5731394174114L154.16666666666666,179.70440013014286L169.58333333333331,189.9496409509283L185,197.77139966343543L200.41666666666669,204.86749382432305L215.83333333333334,209.76670658868116L231.25,213.3703988486808L246.66666666666666,216.7589922752105L262.0833333333333,219.99338381933472L277.5,222.14398791049888L292.91666666666663,223.99128204532857L308.3333333333333,226.05644052662848L323.75,227.11359275032348L339.16666666666663,228.9860334601499L354.58333333333337,230.16451030050484L370,231.64615824179012L385.4166666666667,232.79968394162182L400.83333333333337,234.1424291183547L416.25,235.54570914609585L431.6666666666667,236.036299882576L447.0833333333333,237.15862607689425L462.5,238.44037883850822L477.91666666666674,238.634926373835L493.3333333333333,238.67269563555033L508.75000000000006,239.3979142374394L524.1666666666666,239.57044403234195L539.5833333333334,237.92758823823277L555,238.06414900788522L570.4166666666667,239.39349725019255L585.8333333333333,240.8368529290518L601.25,241.10667775442488L616.6666666666666,241.85776170533907L632.0833333333334,242.340949197672L647.5,243.6823957755679L662.9166666666666,243.51990679672005L678.3333333333333,244.73188029791388L693.75,244.61978016764158L709.1666666666667,244.39343033344716L724.5833333333334,245.09130807247746L740,243.9294381254507L755.4166666666666,244.81426157683944L770.8333333333334,244.00492704225985L786.25,244.45034596154812L801.6666666666667,244.52720510500674L817.0833333333333,244.91447826587486L832.5,245.72778803565757" style="fill: none;" fill="none"></path></g><g><path stroke="rgb(255, 112, 67)" stroke-width="2px" d="M77.08333333333333,52.69564733505251L92.5,55.313397502899136L107.91666666666667,63.67666315351215L123.33333333333333,75.16147658386654L138.75,82.50610449765804L154.16666666666666,93.37036459105354L169.58333333333331,102.88841828640597L185,110.27947090735108L200.41666666666669,117.9603911242171L215.83333333333334,122.51421794102853L231.25,129.83770803162744L246.66666666666666,135.59713839249264L262.0833333333333,141.58968916758573L277.5,146.67872561090687L292.91666666666663,150.4397124586921L308.3333333333333,154.23982851913243L323.75,158.8717340558359L339.16666666666663,164.05249691229253L354.58333333333337,166.42848640213643L370,170.34390314316224L385.4166666666667,173.830501070046L400.83333333333337,175.96141027816276L416.25,177.13839934621342L431.6666666666667,179.73194138132476L447.0833333333333,183.07016467209044L462.5,185.58505976968897L477.91666666666674,187.63424131301275L493.3333333333333,189.0859483778094L508.75000000000006,192.32972282121025L524.1666666666666,193.29506619068428L539.5833333333334,196.86918414372786L555,198.53599477645474L570.4166666666667,201.47627143140198L585.8333333333333,201.67690684461587L601.25,202.5386845764486L616.6666666666666,203.13457210302857L632.0833333333334,204.73744954767673L647.5,207.72150968528888L662.9166666666666,207.49362252552461L678.3333333333333,209.0683563062687L693.75,210.53438540511524L709.1666666666667,210.45348621968427L724.5833333333334,211.77898917214995L740,212.99444975884109L755.4166666666666,213.70832722689985L770.8333333333334,214.82175383399687L786.25,216.6182331552627L801.6666666666667,217.5623973936366L817.0833333333333,218.56614492957314L832.5,219.70106084958348" style="fill: none;" fill="none"></path></g></g></g></g><g opacity="0.2"><g><g><g><path stroke="rgb(204, 51, 17)" stroke-width="2px" d="M77.08333333333333,99.23248014450076L92.5,119.52651772499087L107.91666666666667,131.16715464591982L123.33333333333333,144.6254216194153L138.75,153.49371871948244L154.16666666666666,160.61197743415835L169.58333333333331,167.9876552581787L185,174.44193849563598L200.41666666666669,176.06521997451782L215.83333333333334,184.89835438728335L231.25,188.83747658729553L246.66666666666666,189.89946184158327L262.0833333333333,196.9126530647278L277.5,198.08069715499877L292.91666666666663,201.36569724082946L308.3333333333333,205.27567241191863L323.75,201.64813277721407L339.16666666666663,211.3376836538315L354.58333333333337,212.36075863838198L370,211.04634103775027L385.4166666666667,215.44341180324557L400.83333333333337,215.1005342960358L416.25,218.3971000671387L431.6666666666667,218.2200774908066L447.0833333333333,222.54056689739227L462.5,220.52258012294772L477.91666666666674,221.72251245975497L493.3333333333333,221.06223199367525L508.75000000000006,226.00548098087313L524.1666666666666,224.4855847120285L539.5833333333334,224.44279918670654L555,229.5256249666214L570.4166666666667,229.00606284141543L585.8333333333333,226.3086671590805L601.25,231.03188273906707L616.6666666666666,232.70047316551208L632.0833333333334,232.83693323135378L647.5,235.5139612913132L662.9166666666666,232.60875878334048L678.3333333333333,234.83069965839388L693.75,235.76177487373354L709.1666666666667,232.5859803915024L724.5833333333334,234.39370450973513L740,237.09155831336977L755.4166666666666,238.8001179456711L770.8333333333334,238.01121804714202L786.25,237.87982735633852L801.6666666666667,240.16447076797488L817.0833333333333,238.13477561473846L832.5,236.08943674564364" style="fill: none;" fill="none"></path></g><g><path stroke="rgb(0, 153, 136)" stroke-width="2px" d="M77.08333333333333,84.95914778709414L92.5,125.41719160079958L107.91666666666667,153.6340840816498L123.33333333333333,172.90931997299194L138.75,186.89634904861452L154.16666666666666,197.86966094970705L169.58333333333331,204.60049924850463L185,209.1755989551544L200.41666666666669,215.3328543663025L215.83333333333334,217.0414665699005L231.25,218.74325201511385L246.66666666666666,221.82344183921813L262.0833333333333,224.83441028594973L277.5,225.36568078994753L292.91666666666663,226.76005182266238L308.3333333333333,229.1527217388153L323.75,228.6988737344742L339.16666666666663,231.79421911239626L354.58333333333337,231.9320460319519L370,233.86849472522738L385.4166666666667,234.52990922927856L400.83333333333337,236.15650269985198L416.25,237.65060148239138L431.6666666666667,236.77218017578127L447.0833333333333,238.84210739135744L462.5,240.36300251483917L477.91666666666674,238.92674717903137L493.3333333333333,238.72934947013857L508.75000000000006,240.48574147224429L524.1666666666666,239.82923862934115L539.5833333333334,235.4633050918579L555,238.26899013519287L570.4166666666667,241.38751945495608L585.8333333333333,243.00188634395602L601.25,241.5114149808884L616.6666666666666,242.98438761234283L632.0833333333334,243.0657304286957L647.5,245.6945656299591L662.9166666666666,243.27617332935336L678.3333333333333,246.54984054565432L693.75,244.4516299724579L709.1666666666667,244.053905582428L724.5833333333334,246.1381246805191L740,242.18663320541384L755.4166666666666,246.14149675369265L770.8333333333334,242.79092524051669L786.25,245.11847434043887L801.6666666666667,244.64249382019045L817.0833333333333,245.49538800716402L832.5,246.94775269031527" style="fill: none;" fill="none"></path></g><g><path stroke="rgb(255, 112, 67)" stroke-width="2px" d="M77.08333333333333,52.69564733505251L92.5,56.8840476036072L107.91666666666667,71.70539817810061L123.33333333333333,88.66761717796328L138.75,92.09525070190432L154.16666666666666,108.39954743385317L169.58333333333331,116.49938735961916L185,121.05569658279421L200.41666666666669,129.2882565021515L215.83333333333334,129.27612004280093L231.25,140.756519651413L246.66666666666666,144.20494136810302L262.0833333333333,150.55894861221316L277.5,154.30231032371523L292.91666666666663,156.07677183151247L308.3333333333333,159.93732247352602L323.75,165.8176322937012L339.16666666666663,171.8223258018494L354.58333333333337,169.99210867881774L370,176.21667037010192L385.4166666666667,179.06020674705505L400.83333333333337,179.15770397186282L416.25,178.90385971069338L431.6666666666667,183.62222371101382L447.0833333333333,188.07747588157653L462.5,189.3573916912079L477.91666666666674,190.7080083847046L493.3333333333333,191.26350674629214L508.75000000000006,197.1953814983368L524.1666666666666,194.74308071136477L539.5833333333334,202.2303598880768L555,201.03621039390563L570.4166666666667,205.88668606281283L585.8333333333333,201.97785995006564L601.25,203.83135113716125L616.6666666666666,204.02840337753295L632.0833333333334,207.14176568984985L647.5,212.19759986400604L662.9166666666666,207.15179178714752L678.3333333333333,211.4304569721222L693.75,212.73342905044558L709.1666666666667,210.33213744163513L724.5833333333334,213.76724359989169L740,214.81764063835146L755.4166666666666,214.7791434288025L770.8333333333334,216.4918937444687L786.25,219.3129521369934L801.6666666666667,218.9786437511444L817.0833333333333,220.07176623344424L832.5,221.40343472957613" style="fill: none;" fill="none"></path></g></g></g></g></g></g><g transform="translate(50, 378)" clip-path="url(#clip_1)"><clipPath id="clip_1"><rect width="925" height="22"></rect></clipPath><g><g><line x1="0" y1="0" x2="0" y2="5" style="visibility: inherit;" fill="rgb(0, 0, 0)" stroke="rgb(204, 204, 204)" stroke-width="1px"></line><line x1="77.08333333333333" y1="0" x2="77.08333333333333" y2="5" style="visibility: inherit;" fill="rgb(0, 0, 0)" stroke="rgb(204, 204, 204)" stroke-width="1px"></line><line x1="154.16666666666666" y1="0" x2="154.16666666666666" y2="5" style="visibility: inherit;" fill="rgb(0, 0, 0)" stroke="rgb(204, 204, 204)" stroke-width="1px"></line><line x1="231.25" y1="0" x2="231.25" y2="5" style="visibility: inherit;" fill="rgb(0, 0, 0)" stroke="rgb(204, 204, 204)" stroke-width="1px"></line><line x1="308.3333333333333" y1="0" x2="308.3333333333333" y2="5" style="visibility: inherit;" fill="rgb(0, 0, 0)" stroke="rgb(204, 204, 204)" stroke-width="1px"></line><line x1="385.4166666666667" y1="0" x2="385.4166666666667" y2="5" style="visibility: inherit;" fill="rgb(0, 0, 0)" stroke="rgb(204, 204, 204)" stroke-width="1px"></line><line x1="462.5" y1="0" x2="462.5" y2="5" style="visibility: inherit;" fill="rgb(0, 0, 0)" stroke="rgb(204, 204, 204)" stroke-width="1px"></line><line x1="539.5833333333334" y1="0" x2="539.5833333333334" y2="5" style="visibility: inherit;" fill="rgb(0, 0, 0)" stroke="rgb(204, 204, 204)" stroke-width="1px"></line><line x1="616.6666666666666" y1="0" x2="616.6666666666666" y2="5" style="visibility: inherit;" fill="rgb(0, 0, 0)" stroke="rgb(204, 204, 204)" stroke-width="1px"></line><line x1="693.75" y1="0" x2="693.75" y2="5" style="visibility: inherit;" fill="rgb(0, 0, 0)" stroke="rgb(204, 204, 204)" stroke-width="1px"></line><line x1="770.8333333333334" y1="0" x2="770.8333333333334" y2="5" style="visibility: inherit;" fill="rgb(0, 0, 0)" stroke="rgb(204, 204, 204)" stroke-width="1px"></line><line x1="847.9166666666666" y1="0" x2="847.9166666666666" y2="5" style="visibility: inherit;" fill="rgb(0, 0, 0)" stroke="rgb(204, 204, 204)" stroke-width="1px"></line><line x1="925" y1="0" x2="925" y2="5" style="visibility: inherit;" fill="rgb(0, 0, 0)" stroke="rgb(204, 204, 204)" stroke-width="1px"></line></g><g transform="translate(0, 8)"><text x="0" y="0" dx="0em" dy="0.95em" style="text-anchor: middle; visibility: hidden; font-family: &quot;Helvetica Neue&quot;, sans-serif; font-size: 12px; font-weight: 200;" fill="rgb(50, 49, 63)" stroke="none" stroke-width="1px">-5</text><text x="77.08333333333333" y="0" dx="0em" dy="0.95em" style="text-anchor: middle; visibility: inherit; font-family: &quot;Helvetica Neue&quot;, sans-serif; font-size: 12px; font-weight: 200;" fill="rgb(50, 49, 63)" stroke="none" stroke-width="1px">0</text><text x="154.16666666666666" y="0" dx="0em" dy="0.95em" style="text-anchor: middle; visibility: inherit; font-family: &quot;Helvetica Neue&quot;, sans-serif; font-size: 12px; font-weight: 200;" fill="rgb(50, 49, 63)" stroke="none" stroke-width="1px">5</text><text x="231.25" y="0" dx="0em" dy="0.95em" style="text-anchor: middle; visibility: inherit; font-family: &quot;Helvetica Neue&quot;, sans-serif; font-size: 12px; font-weight: 200;" fill="rgb(50, 49, 63)" stroke="none" stroke-width="1px">10</text><text x="308.3333333333333" y="0" dx="0em" dy="0.95em" style="text-anchor: middle; visibility: inherit; font-family: &quot;Helvetica Neue&quot;, sans-serif; font-size: 12px; font-weight: 200;" fill="rgb(50, 49, 63)" stroke="none" stroke-width="1px">15</text><text x="385.4166666666667" y="0" dx="0em" dy="0.95em" style="text-anchor: middle; visibility: inherit; font-family: &quot;Helvetica Neue&quot;, sans-serif; font-size: 12px; font-weight: 200;" fill="rgb(50, 49, 63)" stroke="none" stroke-width="1px">20</text><text x="462.5" y="0" dx="0em" dy="0.95em" style="text-anchor: middle; visibility: inherit; font-family: &quot;Helvetica Neue&quot;, sans-serif; font-size: 12px; font-weight: 200;" fill="rgb(50, 49, 63)" stroke="none" stroke-width="1px">25</text><text x="539.5833333333334" y="0" dx="0em" dy="0.95em" style="text-anchor: middle; visibility: inherit; font-family: &quot;Helvetica Neue&quot;, sans-serif; font-size: 12px; font-weight: 200;" fill="rgb(50, 49, 63)" stroke="none" stroke-width="1px">30</text><text x="616.6666666666666" y="0" dx="0em" dy="0.95em" style="text-anchor: middle; visibility: inherit; font-family: &quot;Helvetica Neue&quot;, sans-serif; font-size: 12px; font-weight: 200;" fill="rgb(50, 49, 63)" stroke="none" stroke-width="1px">35</text><text x="693.75" y="0" dx="0em" dy="0.95em" style="text-anchor: middle; visibility: inherit; font-family: &quot;Helvetica Neue&quot;, sans-serif; font-size: 12px; font-weight: 200;" fill="rgb(50, 49, 63)" stroke="none" stroke-width="1px">40</text><text x="770.8333333333334" y="0" dx="0em" dy="0.95em" style="text-anchor: middle; visibility: inherit; font-family: &quot;Helvetica Neue&quot;, sans-serif; font-size: 12px; font-weight: 200;" fill="rgb(50, 49, 63)" stroke="none" stroke-width="1px">45</text><text x="847.9166666666666" y="0" dx="0em" dy="0.95em" style="text-anchor: middle; visibility: inherit; font-family: &quot;Helvetica Neue&quot;, sans-serif; font-size: 12px; font-weight: 200;" fill="rgb(50, 49, 63)" stroke="none" stroke-width="1px">50</text><text x="925" y="0" dx="0em" dy="0.95em" style="text-anchor: middle; visibility: hidden; font-family: &quot;Helvetica Neue&quot;, sans-serif; font-size: 12px; font-weight: 200;" fill="rgb(50, 49, 63)" stroke="none" stroke-width="1px">55</text></g><line x1="0" y1="0" x2="925" y2="0" fill="rgb(0, 0, 0)" stroke="rgb(204, 204, 204)" stroke-width="1px"></line></g></g></g></g></svg>