<svg viewBox="0 0 975 400" xmlns="http://www.w3.org/2000/svg"><g><g><g><g><g><line x1="50" y1="378" x2="45" y2="378" style="visibility: inherit;" fill="rgb(0, 0, 0)" stroke="rgb(204, 204, 204)" stroke-width="1px"></line><line x1="50" y1="352.8" x2="45" y2="352.8" style="visibility: inherit;" fill="rgb(0, 0, 0)" stroke="rgb(204, 204, 204)" stroke-width="1px"></line><line x1="50" y1="327.6" x2="45" y2="327.6" style="visibility: inherit;" fill="rgb(0, 0, 0)" stroke="rgb(204, 204, 204)" stroke-width="1px"></line><line x1="50" y1="302.4" x2="45" y2="302.4" style="visibility: inherit;" fill="rgb(0, 0, 0)" stroke="rgb(204, 204, 204)" stroke-width="1px"></line><line x1="50" y1="277.2" x2="45" y2="277.2" style="visibility: inherit;" fill="rgb(0, 0, 0)" stroke="rgb(204, 204, 204)" stroke-width="1px"></line><line x1="50" y1="252" x2="45" y2="252" style="visibility: inherit;" fill="rgb(0, 0, 0)" stroke="rgb(204, 204, 204)" stroke-width="1px"></line><line x1="50" y1="226.79999999999998" x2="45" y2="226.79999999999998" style="visibility: inherit;" fill="rgb(0, 0, 0)" stroke="rgb(204, 204, 204)" stroke-width="1px"></line><line x1="50" y1="201.60000000000002" x2="45" y2="201.60000000000002" style="visibility: inherit;" fill="rgb(0, 0, 0)" stroke="rgb(204, 204, 204)" stroke-width="1px"></line><line x1="50" y1="176.4" x2="45" y2="176.4" style="visibility: inherit;" fill="rgb(0, 0, 0)" stroke="rgb(204, 204, 204)" stroke-width="1px"></line><line x1="50" y1="151.20000000000002" x2="45" y2="151.20000000000002" style="visibility: inherit;" fill="rgb(0, 0, 0)" stroke="rgb(204, 204, 204)" stroke-width="1px"></line><line x1="50" y1="126" x2="45" y2="126" style="visibility: inherit;" fill="rgb(0, 0, 0)" stroke="rgb(204, 204, 204)" stroke-width="1px"></line><line x1="50" y1="100.79999999999995" x2="45" y2="100.79999999999995" style="visibility: inherit;" fill="rgb(0, 0, 0)" stroke="rgb(204, 204, 204)" stroke-width="1px"></line><line x1="50" y1="75.60000000000002" x2="45" y2="75.60000000000002" style="visibility: inherit;" fill="rgb(0, 0, 0)" stroke="rgb(204, 204, 204)" stroke-width="1px"></line><line x1="50" y1="50.39999999999998" x2="45" y2="50.39999999999998" style="visibility: inherit;" fill="rgb(0, 0, 0)" stroke="rgb(204, 204, 204)" stroke-width="1px"></line><line x1="50" y1="25.200000000000045" x2="45" y2="25.200000000000045" style="visibility: inherit;" fill="rgb(0, 0, 0)" stroke="rgb(204, 204, 204)" stroke-width="1px"></line><line x1="50" y1="0" x2="45" y2="0" style="visibility: inherit;" fill="rgb(0, 0, 0)" stroke="rgb(204, 204, 204)" stroke-width="1px"></line></g><g transform="translate(40, 0)"><text x="0" y="378" dx="0em" dy="0.3em" style="text-anchor: end; visibility: hidden; font-family: &quot;Helvetica Neue&quot;, sans-serif; font-size: 12px; font-weight: 200;" fill="rgb(50, 49, 63)" stroke="none" stroke-width="1px">-0.4</text><text x="0" y="352.8" dx="0em" dy="0.3em" style="text-anchor: end; visibility: inherit; font-family: &quot;Helvetica Neue&quot;, sans-serif; font-size: 12px; font-weight: 200;" fill="rgb(50, 49, 63)" stroke="none" stroke-width="1px">-0.2</text><text x="0" y="327.6" dx="0em" dy="0.3em" style="text-anchor: end; visibility: inherit; font-family: &quot;Helvetica Neue&quot;, sans-serif; font-size: 12px; font-weight: 200;" fill="rgb(50, 49, 63)" stroke="none" stroke-width="1px">0</text><text x="0" y="302.4" dx="0em" dy="0.3em" style="text-anchor: end; visibility: inherit; font-family: &quot;Helvetica Neue&quot;, sans-serif; font-size: 12px; font-weight: 200;" fill="rgb(50, 49, 63)" stroke="none" stroke-width="1px">0.2</text><text x="0" y="277.2" dx="0em" dy="0.3em" style="text-anchor: end; visibility: inherit; font-family: &quot;Helvetica Neue&quot;, sans-serif; font-size: 12px; font-weight: 200;" fill="rgb(50, 49, 63)" stroke="none" stroke-width="1px">0.4</text><text x="0" y="252" dx="0em" dy="0.3em" style="text-anchor: end; visibility: inherit; font-family: &quot;Helvetica Neue&quot;, sans-serif; font-size: 12px; font-weight: 200;" fill="rgb(50, 49, 63)" stroke="none" stroke-width="1px">0.6</text><text x="0" y="226.79999999999998" dx="0em" dy="0.3em" style="text-anchor: end; visibility: inherit; font-family: &quot;Helvetica Neue&quot;, sans-serif; font-size: 12px; font-weight: 200;" fill="rgb(50, 49, 63)" stroke="none" stroke-width="1px">0.8</text><text x="0" y="201.60000000000002" dx="0em" dy="0.3em" style="text-anchor: end; visibility: inherit; font-family: &quot;Helvetica Neue&quot;, sans-serif; font-size: 12px; font-weight: 200;" fill="rgb(50, 49, 63)" stroke="none" stroke-width="1px">1</text><text x="0" y="176.4" dx="0em" dy="0.3em" style="text-anchor: end; visibility: inherit; font-family: &quot;Helvetica Neue&quot;, sans-serif; font-size: 12px; font-weight: 200;" fill="rgb(50, 49, 63)" stroke="none" stroke-width="1px">1.2</text><text x="0" y="151.20000000000002" dx="0em" dy="0.3em" style="text-anchor: end; visibility: inherit; font-family: &quot;Helvetica Neue&quot;, sans-serif; font-size: 12px; font-weight: 200;" fill="rgb(50, 49, 63)" stroke="none" stroke-width="1px">1.4</text><text x="0" y="126" dx="0em" dy="0.3em" style="text-anchor: end; visibility: inherit; font-family: &quot;Helvetica Neue&quot;, sans-serif; font-size: 12px; font-weight: 200;" fill="rgb(50, 49, 63)" stroke="none" stroke-width="1px">1.6</text><text x="0" y="100.79999999999995" dx="0em" dy="0.3em" style="text-anchor: end; visibility: inherit; font-family: &quot;Helvetica Neue&quot;, sans-serif; font-size: 12px; font-weight: 200;" fill="rgb(50, 49, 63)" stroke="none" stroke-width="1px">1.8</text><text x="0" y="75.60000000000002" dx="0em" dy="0.3em" style="text-anchor: end; visibility: inherit; font-family: &quot;Helvetica Neue&quot;, sans-serif; font-size: 12px; font-weight: 200;" fill="rgb(50, 49, 63)" stroke="none" stroke-width="1px">2</text><text x="0" y="50.39999999999998" dx="0em" dy="0.3em" style="text-anchor: end; visibility: inherit; font-family: &quot;Helvetica Neue&quot;, sans-serif; font-size: 12px; font-weight: 200;" fill="rgb(50, 49, 63)" stroke="none" stroke-width="1px">2.2</text><text x="0" y="25.200000000000045" dx="0em" dy="0.3em" style="text-anchor: end; visibility: inherit; font-family: &quot;Helvetica Neue&quot;, sans-serif; font-size: 12px; font-weight: 200;" fill="rgb(50, 49, 63)" stroke="none" stroke-width="1px">2.4</text><text x="0" y="0" dx="0em" dy="0.3em" style="text-anchor: end; visibility: hidden; font-family: &quot;Helvetica Neue&quot;, sans-serif; font-size: 12px; font-weight: 200;" fill="rgb(50, 49, 63)" stroke="none" stroke-width="1px">2.6</text></g><line x1="50" y1="0" x2="50" y2="378" fill="rgb(0, 0, 0)" stroke="rgb(204, 204, 204)" stroke-width="1px"></line></g></g><g transform="translate(50, 0)" clip-path="url(#clip_0)"><clipPath id="clip_0"><rect width="925" height="378"></rect></clipPath><g><g><g><line x1="0" y1="0" x2="0" y2="378" fill="rgb(0, 0, 0)" stroke="rgb(60, 60, 60)" stroke-width="1px" opacity="0.25"></line><line x1="77.08333333333333" y1="0" x2="77.08333333333333" y2="378" fill="rgb(0, 0, 0)" stroke="rgb(60, 60, 60)" stroke-width="1px" opacity="0.25"></line><line x1="154.16666666666666" y1="0" x2="154.16666666666666" y2="378" fill="rgb(0, 0, 0)" stroke="rgb(60, 60, 60)" stroke-width="1px" opacity="0.25"></line><line x1="231.25" y1="0" x2="231.25" y2="378" fill="rgb(0, 0, 0)" stroke="rgb(60, 60, 60)" stroke-width="1px" opacity="0.25"></line><line x1="308.3333333333333" y1="0" x2="308.3333333333333" y2="378" fill="rgb(0, 0, 0)" stroke="rgb(60, 60, 60)" stroke-width="1px" opacity="0.25"></line><line x1="385.4166666666667" y1="0" x2="385.4166666666667" y2="378" fill="rgb(0, 0, 0)" stroke="rgb(60, 60, 60)" stroke-width="1px" opacity="0.25"></line><line x1="462.5" y1="0" x2="462.5" y2="378" fill="rgb(0, 0, 0)" stroke="rgb(60, 60, 60)" stroke-width="1px" opacity="0.25"></line><line x1="539.5833333333334" y1="0" x2="539.5833333333334" y2="378" fill="rgb(0, 0, 0)" stroke="rgb(60, 60, 60)" stroke-width="1px" opacity="0.25"></line><line x1="616.6666666666666" y1="0" x2="616.6666666666666" y2="378" fill="rgb(0, 0, 0)" stroke="rgb(60, 60, 60)" stroke-width="1px" opacity="0.25"></line><line x1="693.75" y1="0" x2="693.75" y2="378" fill="rgb(0, 0, 0)" stroke="rgb(60, 60, 60)" stroke-width="1px" opacity="0.25"></line><line x1="770.8333333333334" y1="0" x2="770.8333333333334" y2="378" fill="rgb(0, 0, 0)" stroke="rgb(60, 60, 60)" stroke-width="1px" opacity="0.25"></line><line x1="847.9166666666666" y1="0" x2="847.9166666666666" y2="378" fill="rgb(0, 0, 0)" stroke="rgb(60, 60, 60)" stroke-width="1px" opacity="0.25"></line><line x1="925" y1="0" x2="925" y2="378" fill="rgb(0, 0, 0)" stroke="rgb(60, 60, 60)" stroke-width="1px" opacity="0.25"></line></g><g><line x1="0" y1="378" x2="925" y2="378" fill="rgb(0, 0, 0)" stroke="rgb(60, 60, 60)" stroke-width="1px" opacity="0.25"></line><line x1="0" y1="352.8" x2="925" y2="352.8" fill="rgb(0, 0, 0)" stroke="rgb(60, 60, 60)" stroke-width="1px" opacity="0.25"></line><line x1="0" y1="327.6" x2="925" y2="327.6" fill="rgb(0, 0, 0)" stroke="rgb(60, 60, 60)" stroke-width="1px" opacity="0.25"></line><line x1="0" y1="302.4" x2="925" y2="302.4" fill="rgb(0, 0, 0)" stroke="rgb(60, 60, 60)" stroke-width="1px" opacity="0.25"></line><line x1="0" y1="277.2" x2="925" y2="277.2" fill="rgb(0, 0, 0)" stroke="rgb(60, 60, 60)" stroke-width="1px" opacity="0.25"></line><line x1="0" y1="252" x2="925" y2="252" fill="rgb(0, 0, 0)" stroke="rgb(60, 60, 60)" stroke-width="1px" opacity="0.25"></line><line x1="0" y1="226.79999999999998" x2="925" y2="226.79999999999998" fill="rgb(0, 0, 0)" stroke="rgb(60, 60, 60)" stroke-width="1px" opacity="0.25"></line><line x1="0" y1="201.60000000000002" x2="925" y2="201.60000000000002" fill="rgb(0, 0, 0)" stroke="rgb(60, 60, 60)" stroke-width="1px" opacity="0.25"></line><line x1="0" y1="176.4" x2="925" y2="176.4" fill="rgb(0, 0, 0)" stroke="rgb(60, 60, 60)" stroke-width="1px" opacity="0.25"></line><line x1="0" y1="151.20000000000002" x2="925" y2="151.20000000000002" fill="rgb(0, 0, 0)" stroke="rgb(60, 60, 60)" stroke-width="1px" opacity="0.25"></line><line x1="0" y1="126" x2="925" y2="126" fill="rgb(0, 0, 0)" stroke="rgb(60, 60, 60)" stroke-width="1px" opacity="0.25"></line><line x1="0" y1="100.79999999999995" x2="925" y2="100.79999999999995" fill="rgb(0, 0, 0)" stroke="rgb(60, 60, 60)" stroke-width="1px" opacity="0.25"></line><line x1="0" y1="75.60000000000002" x2="925" y2="75.60000000000002" fill="rgb(0, 0, 0)" stroke="rgb(60, 60, 60)" stroke-width="1px" opacity="0.25"></line><line x1="0" y1="50.39999999999998" x2="925" y2="50.39999999999998" fill="rgb(0, 0, 0)" stroke="rgb(60, 60, 60)" stroke-width="1px" opacity="0.25"></line><line x1="0" y1="25.200000000000045" x2="925" y2="25.200000000000045" fill="rgb(0, 0, 0)" stroke="rgb(60, 60, 60)" stroke-width="1px" opacity="0.25"></line><line x1="0" y1="0" x2="925" y2="0" fill="rgb(0, 0, 0)" stroke="rgb(60, 60, 60)" stroke-width="1px" opacity="0.25"></line></g></g></g><g><g><line x1="0" y1="327.6" x2="925" y2="327.6" fill="rgb(0, 0, 0)" stroke="rgb(153, 153, 153)" stroke-width="1.5px"></line></g></g><g><g><line x1="77.08333333333333" y1="0" x2="77.08333333333333" y2="378" fill="rgb(0, 0, 0)" stroke="rgb(153, 153, 153)" stroke-width="1.5px"></line></g></g><g><g><g><g><g><path stroke="rgb(0, 119, 187)" stroke-width="2px" d="M77.08333333333333,44.12262067794802L92.5,53.82424042224886L107.91666666666667,62.089524977547796L123.33333333333333,71.63712280795858L138.75,78.32605755641845L154.16666666666666,86.20934021351928L169.58333333333331,96.05204303324837L185,100.45601672304463L200.41666666666669,109.44236590860362L215.83333333333334,116.74602995336079L231.25,123.49501754810441L246.66666666666666,129.12471137114636L262.0833333333333,134.58603048143672L277.5,140.67461087509878L292.91666666666663,143.02520952887917L308.3333333333333,149.18139962806984L323.75,151.8918099265605L339.16666666666663,157.7450622212204L354.58333333333337,162.7008997119891L370,166.96575566690495L385.4166666666667,170.05123724220587L400.83333333333337,173.03010696264985L416.25,174.40934507793733L431.6666666666667,177.46746462735638L447.0833333333333,180.91921448095138L462.5,183.20947178142748L477.91666666666674,186.0048645874458L493.3333333333333,187.72764623940333L508.75000000000006,189.94245083387113L524.1666666666666,190.9826715245083L539.5833333333334,193.4062023572664L555,194.9057422551387L570.4166666666667,195.34641353284806L585.8333333333333,198.37150037846976L601.25,201.160058707026L616.6666666666666,201.50917503837866L632.0833333333334,202.21357205352476L647.5,204.04418074120107L662.9166666666666,203.13160372428845L678.3333333333333,205.35013684958398L693.75,205.56121473168483L709.1666666666667,207.00034443838203L724.5833333333334,208.4655833648073L740,209.37527815396015L755.4166666666666,211.17758807138122L770.8333333333334,211.11233696338437L786.25,212.17937049510238L801.6666666666667,214.08356380253628L817.0833333333333,214.19279545658736L832.5,216.06593690226345" style="fill: none;" fill="none"></path></g><g><path stroke="rgb(255, 112, 67)" stroke-width="2px" d="M77.08333333333333,67.06710777282717L92.5,79.66379127502438L107.91666666666667,93.56221671785624L123.33333333333333,107.20586185928653L138.75,117.48252959476423L154.16666666666666,129.57447784345848L169.58333333333331,140.68411018329562L185,151.0688454933528L200.41666666666669,159.5505219521649L215.83333333333334,167.37716528779686L231.25,175.37856901571203L246.66666666666666,181.66269801275791L262.0833333333333,187.0260023059488L277.5,192.79610625829878L292.91666666666663,197.54621129856864L308.3333333333333,201.57332678373706L323.75,203.78119209757895L339.16666666666663,207.21541927647164L354.58333333333337,210.18044637042823L370,212.8174200298615L385.4166666666667,215.7060189726921L400.83333333333337,217.30285015955812L416.25,219.44690517434765L431.6666666666667,221.71164476064357L447.0833333333333,222.31564279605834L462.5,224.0768960157667L477.91666666666674,225.73096471322629L493.3333333333333,227.041668669773L508.75000000000006,227.4906818139304L524.1666666666666,228.83566551782488L539.5833333333334,230.34869717031037L555,231.6428700336793L570.4166666666667,232.6934594113024L585.8333333333333,233.3253150428603L601.25,234.30763147882118L616.6666666666666,235.74225964244653L632.0833333333334,235.97712266886413L647.5,236.04772111706828L662.9166666666666,237.55862781940488L678.3333333333333,238.12335927525305L693.75,238.4197115282954L709.1666666666667,238.56665601861044L724.5833333333334,239.69541595569996L740,240.47164714702552L755.4166666666666,240.82678786977993L770.8333333333334,240.7755948928853L786.25,241.44597893168216L801.6666666666667,242.4549812532275L817.0833333333333,243.5855038104692L832.5,242.73018044102923" style="fill: none;" fill="none"></path></g></g></g></g><g opacity="0.2"><g><g><g><path stroke="rgb(0, 119, 187)" stroke-width="2px" d="M77.08333333333333,44.12262067794802L92.5,59.64521226882937L107.91666666666667,70.02419815063479L123.33333333333333,82.86509785652163L138.75,87.05913076400759L154.16666666666666,97.11475811004641L169.58333333333331,110.12726554870608L185,106.87705264091494L200.41666666666669,122.6954854488373L215.83333333333334,127.5911198616028L231.25,133.55728611946108L246.66666666666666,137.53861556053164L262.0833333333333,142.7601769924164L277.5,149.79555330276492L292.91666666666663,146.54834446907043L308.3333333333333,158.41134295463564L323.75,155.95627841949465L339.16666666666663,166.52345452308657L354.58333333333337,170.13390097618105L370,173.36264977455141L385.4166666666667,174.67929039001467L400.83333333333337,177.4983135223389L416.25,176.47817502021792L431.6666666666667,182.05460772514343L447.0833333333333,186.0968147277832L462.5,186.64484796524047L477.91666666666674,190.19794664382937L493.3333333333333,190.311816072464L508.75000000000006,193.2646556854248L524.1666666666666,192.54300198554992L539.5833333333334,197.04149780273437L555,197.15505180358886L570.4166666666667,196.00742039680483L585.8333333333333,202.90913043022155L601.25,205.3428960800171L616.6666666666666,202.03284952640533L632.0833333333334,203.2701675653458L647.5,206.79009375572207L662.9166666666666,201.7627382040024L678.3333333333333,208.67793653011324L693.75,205.87783155441286L709.1666666666667,209.15903899669647L724.5833333333334,210.66344175338747L740,210.73982033729555L755.4166666666666,213.8810529470444L770.8333333333334,211.01446030139925L786.25,213.77992079257965L801.6666666666667,216.93985376358032L817.0833333333333,214.35664293766024L832.5,218.87564907073977" style="fill: none;" fill="none"></path></g><g><path stroke="rgb(255, 112, 67)" stroke-width="2px" d="M77.08333333333333,67.06710777282717L92.5,87.2218013763428L107.91666666666667,106.90470514297488L123.33333333333333,123.25078854560854L138.75,130.89974699020385L154.16666666666666,146.3019953727722L169.58333333333331,156.57106218338012L185,166.20988926887514L200.41666666666669,172.05934724807742L215.83333333333334,178.99881849288943L231.25,187.3081024646759L246.66666666666666,191.05469355583193L262.0833333333333,195.0534466266632L277.5,201.43995795249938L292.91666666666663,204.66578528881075L308.3333333333333,207.61115977764132L323.75,207.09205577373507L339.16666666666663,212.36588809490206L354.58333333333337,214.62753531932833L370,216.7726394891739L385.4166666666667,220.03875896930697L400.83333333333337,219.69804439544677L416.25,222.66294536590578L431.6666666666667,225.10872731208804L447.0833333333333,223.22163555622103L462.5,226.71876833438873L477.91666666666674,228.21206352710726L493.3333333333333,229.00772259235384L508.75000000000006,228.1642011165619L524.1666666666666,230.85314033031466L539.5833333333334,232.61824414730074L555,233.58412907123568L570.4166666666667,234.2693433523178L585.8333333333333,234.27309844493868L601.25,235.78110609054568L616.6666666666666,237.89420185089114L632.0833333333334,236.3294172048569L647.5,236.15361878871917L662.9166666666666,239.82498786449435L678.3333333333333,238.97045645713806L693.75,238.86423990726473L709.1666666666667,238.78707275390627L724.5833333333334,241.38855586051943L740,241.6359939336777L755.4166666666666,241.3594989538193L770.8333333333334,240.6988054275513L786.25,242.45155498981478L801.6666666666667,243.96848473548891L817.0833333333333,245.28128764629363L832.5,241.4471953868866" style="fill: none;" fill="none"></path></g></g></g></g></g></g><g transform="translate(50, 378)" clip-path="url(#clip_1)"><clipPath id="clip_1"><rect width="925" height="22"></rect></clipPath><g><g><line x1="0" y1="0" x2="0" y2="5" style="visibility: inherit;" fill="rgb(0, 0, 0)" stroke="rgb(204, 204, 204)" stroke-width="1px"></line><line x1="77.08333333333333" y1="0" x2="77.08333333333333" y2="5" style="visibility: inherit;" fill="rgb(0, 0, 0)" stroke="rgb(204, 204, 204)" stroke-width="1px"></line><line x1="154.16666666666666" y1="0" x2="154.16666666666666" y2="5" style="visibility: inherit;" fill="rgb(0, 0, 0)" stroke="rgb(204, 204, 204)" stroke-width="1px"></line><line x1="231.25" y1="0" x2="231.25" y2="5" style="visibility: inherit;" fill="rgb(0, 0, 0)" stroke="rgb(204, 204, 204)" stroke-width="1px"></line><line x1="308.3333333333333" y1="0" x2="308.3333333333333" y2="5" style="visibility: inherit;" fill="rgb(0, 0, 0)" stroke="rgb(204, 204, 204)" stroke-width="1px"></line><line x1="385.4166666666667" y1="0" x2="385.4166666666667" y2="5" style="visibility: inherit;" fill="rgb(0, 0, 0)" stroke="rgb(204, 204, 204)" stroke-width="1px"></line><line x1="462.5" y1="0" x2="462.5" y2="5" style="visibility: inherit;" fill="rgb(0, 0, 0)" stroke="rgb(204, 204, 204)" stroke-width="1px"></line><line x1="539.5833333333334" y1="0" x2="539.5833333333334" y2="5" style="visibility: inherit;" fill="rgb(0, 0, 0)" stroke="rgb(204, 204, 204)" stroke-width="1px"></line><line x1="616.6666666666666" y1="0" x2="616.6666666666666" y2="5" style="visibility: inherit;" fill="rgb(0, 0, 0)" stroke="rgb(204, 204, 204)" stroke-width="1px"></line><line x1="693.75" y1="0" x2="693.75" y2="5" style="visibility: inherit;" fill="rgb(0, 0, 0)" stroke="rgb(204, 204, 204)" stroke-width="1px"></line><line x1="770.8333333333334" y1="0" x2="770.8333333333334" y2="5" style="visibility: inherit;" fill="rgb(0, 0, 0)" stroke="rgb(204, 204, 204)" stroke-width="1px"></line><line x1="847.9166666666666" y1="0" x2="847.9166666666666" y2="5" style="visibility: inherit;" fill="rgb(0, 0, 0)" stroke="rgb(204, 204, 204)" stroke-width="1px"></line><line x1="925" y1="0" x2="925" y2="5" style="visibility: inherit;" fill="rgb(0, 0, 0)" stroke="rgb(204, 204, 204)" stroke-width="1px"></line></g><g transform="translate(0, 8)"><text x="0" y="0" dx="0em" dy="0.95em" style="text-anchor: middle; visibility: hidden; font-family: &quot;Helvetica Neue&quot;, sans-serif; font-size: 12px; font-weight: 200;" fill="rgb(50, 49, 63)" stroke="none" stroke-width="1px">-5</text><text x="77.08333333333333" y="0" dx="0em" dy="0.95em" style="text-anchor: middle; visibility: inherit; font-family: &quot;Helvetica Neue&quot;, sans-serif; font-size: 12px; font-weight: 200;" fill="rgb(50, 49, 63)" stroke="none" stroke-width="1px">0</text><text x="154.16666666666666" y="0" dx="0em" dy="0.95em" style="text-anchor: middle; visibility: inherit; font-family: &quot;Helvetica Neue&quot;, sans-serif; font-size: 12px; font-weight: 200;" fill="rgb(50, 49, 63)" stroke="none" stroke-width="1px">5</text><text x="231.25" y="0" dx="0em" dy="0.95em" style="text-anchor: middle; visibility: inherit; font-family: &quot;Helvetica Neue&quot;, sans-serif; font-size: 12px; font-weight: 200;" fill="rgb(50, 49, 63)" stroke="none" stroke-width="1px">10</text><text x="308.3333333333333" y="0" dx="0em" dy="0.95em" style="text-anchor: middle; visibility: inherit; font-family: &quot;Helvetica Neue&quot;, sans-serif; font-size: 12px; font-weight: 200;" fill="rgb(50, 49, 63)" stroke="none" stroke-width="1px">15</text><text x="385.4166666666667" y="0" dx="0em" dy="0.95em" style="text-anchor: middle; visibility: inherit; font-family: &quot;Helvetica Neue&quot;, sans-serif; font-size: 12px; font-weight: 200;" fill="rgb(50, 49, 63)" stroke="none" stroke-width="1px">20</text><text x="462.5" y="0" dx="0em" dy="0.95em" style="text-anchor: middle; visibility: inherit; font-family: &quot;Helvetica Neue&quot;, sans-serif; font-size: 12px; font-weight: 200;" fill="rgb(50, 49, 63)" stroke="none" stroke-width="1px">25</text><text x="539.5833333333334" y="0" dx="0em" dy="0.95em" style="text-anchor: middle; visibility: inherit; font-family: &quot;Helvetica Neue&quot;, sans-serif; font-size: 12px; font-weight: 200;" fill="rgb(50, 49, 63)" stroke="none" stroke-width="1px">30</text><text x="616.6666666666666" y="0" dx="0em" dy="0.95em" style="text-anchor: middle; visibility: inherit; font-family: &quot;Helvetica Neue&quot;, sans-serif; font-size: 12px; font-weight: 200;" fill="rgb(50, 49, 63)" stroke="none" stroke-width="1px">35</text><text x="693.75" y="0" dx="0em" dy="0.95em" style="text-anchor: middle; visibility: inherit; font-family: &quot;Helvetica Neue&quot;, sans-serif; font-size: 12px; font-weight: 200;" fill="rgb(50, 49, 63)" stroke="none" stroke-width="1px">40</text><text x="770.8333333333334" y="0" dx="0em" dy="0.95em" style="text-anchor: middle; visibility: inherit; font-family: &quot;Helvetica Neue&quot;, sans-serif; font-size: 12px; font-weight: 200;" fill="rgb(50, 49, 63)" stroke="none" stroke-width="1px">45</text><text x="847.9166666666666" y="0" dx="0em" dy="0.95em" style="text-anchor: middle; visibility: inherit; font-family: &quot;Helvetica Neue&quot;, sans-serif; font-size: 12px; font-weight: 200;" fill="rgb(50, 49, 63)" stroke="none" stroke-width="1px">50</text><text x="925" y="0" dx="0em" dy="0.95em" style="text-anchor: middle; visibility: hidden; font-family: &quot;Helvetica Neue&quot;, sans-serif; font-size: 12px; font-weight: 200;" fill="rgb(50, 49, 63)" stroke="none" stroke-width="1px">55</text></g><line x1="0" y1="0" x2="925" y2="0" fill="rgb(0, 0, 0)" stroke="rgb(204, 204, 204)" stroke-width="1px"></line></g></g></g></g></svg>